<?xml version="1.0" encoding="utf-8"?>
<!-- Generator: Adobe Illustrator 22.1.0, SVG Export Plug-In . SVG Version: 6.00 Build 0)  -->
<svg version="1.2" baseProfile="tiny" id="g-2020-timeplot-done-desktop-img" xmlns="http://www.w3.org/2000/svg" xmlns:xlink="http://www.w3.org/1999/xlink"
	 x="0px" y="0px" viewBox="0 0 1200 892.522" xml:space="preserve">
<g>
	<g style="opacity:0.1;">
		
			<line fill="none" stroke="#777777" stroke-width="0.75" stroke-miterlimit="10" x1="118.839" y1="40.13" x2="980.066" y2="40.13"/>
		<g>
			
				<line fill="none" stroke="#777777" stroke-width="0.75" stroke-miterlimit="10" x1="118.839" y1="153.018" x2="980.066" y2="153.017"/>
			
				<line fill="none" stroke="#777777" stroke-width="0.75" stroke-miterlimit="10" x1="118.839" y1="266.191" x2="980.066" y2="266.191"/>
			
				<line fill="none" stroke="#777777" stroke-width="0.75" stroke-miterlimit="10" x1="119.65" y1="378.507" x2="980.877" y2="378.507"/>
			
				<line fill="none" stroke="#777777" stroke-width="0.75" stroke-miterlimit="10" x1="121.273" y1="491.109" x2="982.5" y2="491.109"/>
			
				<line fill="none" stroke="#777777" stroke-width="0.75" stroke-miterlimit="10" x1="120.462" y1="603.997" x2="981.689" y2="603.997"/>
			
				<line fill="none" stroke="#777777" stroke-width="0.75" stroke-miterlimit="10" x1="119.38" y1="716.885" x2="980.607" y2="716.884"/>
		</g>
	</g>
	
		<polyline fill="none" stroke="#0642FF" stroke-width="0.75" stroke-linecap="square" stroke-linejoin="round" stroke-miterlimit="10" points="
		171.687,829.903 287.978,829.114 294.983,825.729 299.187,825.616 307.593,823.36 409.873,823.061 415.477,822.722 423.884,822.44 
		435.092,817.928 437.895,815.671 	"/>
	<path style="opacity:0.9;" fill="#3F5EBA" d="M880.135,491.565l-1.401,16.667l-1.401,1.986l-2.802,0.226l-1.401,1.868l-1.401,3.279
		l-2.802,0.535l-1.401,6.938l-1.401,0.451l-1.401,3.858l-1.401,2.482l-1.401,3.351l-1.401,0.816l-1.401,0.372l-1.401,3.644
		l-4.203,0.869l-1.401,0.643l-1.401,2.313l-2.802,0.554l-1.401,13.617l-2.802,6.55l-1.401,9.894l-2.802,14.058l-1.401,1.735
		l-1.401,1.128l-1.401,0.451l-1.401,1.961l-1.401,0.226l-1.401,1.128l-1.401,0.079l-1.401,5.135l-1.401,2.426l-1.401,12.523
		l-2.802,1.771l-1.401,6.318l-1.401,8.786l-7.005,1.022l-1.401,1.907l-5.604,1.34l-1.401,0.833l-4.203,0.609l-2.802,1.197
		l-1.401,1.695l-1.401,7.348l-1.401,2.958l-1.401,0.248l-4.203,2.617l-2.802,3.63l-1.401,9.107l-2.802,2.256l-1.401,6.656
		l-1.401,1.47l-1.401,0.056l-1.401,1.128l-1.401,4.763l-2.802,0.113l-1.401,0.519l-1.401,2.256l-1.401,1.162l-2.802,1.649
		l-1.401,0.023l-1.401,2.651l-2.802,0.298l-1.401,2.087l-1.401,0.068l-1.401,0.702l-2.802,0.056l-1.401,6.318l-9.808,1.444
		l-2.802,0.043l-1.401,1.699l-1.401,0.081l-4.203,0.72l-2.802,0.122l-1.401,0.62l-1.401,0.226l-1.401,4.513l-1.401,0.271
		l-2.802,1.225l-1.401,7.446l-1.401,23.955l-1.401,2.477l-1.401,10.075l-1.401,16.969l-1.401,5.237l-1.401,0.056l-1.401,1.41
		l-8.406,0.372l-2.802,2.313l-15.412,0.382l-1.401,0.677l-2.802,0.564l-2.802,0.102l-1.401,0.499l-11.209,0.344l-2.802,2.335
		l-4.203,0.564l-1.401,6.318l-2.802,0.056l-2.802,2.933l-32.225,0.827l-4.203,0.903l-16.813,0.21l-2.802,0.226l-1.401,0.406
		l-11.209,0.499l-2.802,0.338l-22.417,0.126l-5.604,0.564l-1.401,5.697l-14.011,0.217l-1.401,0.113l-5.604,0.275l-2.802,0.564
		l-2.802,0.26l-1.401,6.318l-7.005,0.056l-7.005,0.282l-1.401,0.282l-22.417,0.786l-7.005,1.128l-7.005,0.113l-29.423,0.338
		c0,0-0.037,0-0.117,0.004c0,7.444,0,14.033,0,14.033s36.664,0,90.757,0c152.112,0,442.043,0,442.043,0s0-598.385,0-726.951
		c-0.174,1.392-0.268,2.148-0.268,2.148l-1.401,11.205l-4.203,13.973l-1.401,9.014l-1.401,3.73l-1.401,6.008l-1.401,14.605
		l-1.401,8.879l-1.401,19.078l-1.401,14.723l-1.401,27.511l-1.401,31.07l-1.401,9.477l-1.401,2.065l-1.401,3.599l-1.401,5.991
		l-1.401,10.379l-1.401,16.189l-1.401,13.859l-1.401,10.391l-2.802,18.513l-1.401,0.282l-1.401,3.339l-1.401,1.895l-1.401,14.718
		l-1.401,5.876l-1.401,9.443l-1.401,3.779l-1.401,8.53l-1.401,4.562l-1.401,3.689l-1.401,6.543l-1.401,8.123l-2.802,2.013
		l-1.401,0.342l-1.401,2.053l-2.802,3.817l-1.401,3.757l-1.401,7.929l-2.802,0.496l-1.401,0.643l-1.401,2.369l-1.401,6.284
		l-2.802,4.267l-1.401,0.53l-1.401,1.478l-1.401,3.734l-1.401,0.116l-1.401,2.582l-1.401,0.451l-1.401,9.824l-1.401,2.683
		l-5.604,2.761"/>
	<path fill="#C1272D" d="M436.836,817.702c-0.001,6.253-0.001,12.302-0.001,12.302l532.8,0c0,0,0-11.194,0-20.611
		c-0.69,0.001-1.133,0.001-1.133,0.001l-1.401,0.482l-15.412,0.158l-11.209,0.102l-1.401,0.002l-2.802,0.059l-1.401,0.046
		l-2.802,0.207l-5.604,0.002l-1.401,0.002l-1.401,0.056l-11.209,0.167l-14.011,0.01l-9.808,0.041l-2.802,0.117l-4.203,0.038
		l-5.604,0.158l-5.604,0.002l-1.401,0.008l-8.407,0.079l-2.802,0.172l-7.005,0.079l-4.203,0.042l-7.005,0.102l-7.005,0.212
		l-5.604,0.076l-1.401,0.008l-18.214,0.079l-9.808,0.042l-14.011,0.212l-16.813,0.079l-12.61,0.226l-8.407,0.212l-5.604,0.079
		l-16.813,0.079l-11.209,0.226l-12.61,0.212l-29.423,0.079l-14.011,0.212l-29.423,0.079l-14.011,0.212l-28.022,0.079l-14.011,0.212
		l-29.423,0.248l-14.011,0.212l-7.005,0.079l-21.016,0.169l-5.604,0.381l-8.407,0.226l-1.401,0.079l-21.016,0.169l-7.005,0.071
		l-14.011,0.212l-2.802,0.079l-1.4,0.017c0,0-0.229,0.003-0.653,0.008C436.837,816.625,436.836,817.164,436.836,817.702z"/>
	<path fill="#C1272D" d="M411.691,816.138l-13.969,0.211l-27.939,0.079l-13.969,0.212l-20.954,0.079l-22.351,0.085l-41.908,0.079
		l-43.305,0.192l-20.954,0.079l-18.16,12.636l-43.305,0.079l-13.969,0.079c0,0-0.757,0.004-2.102,0.012
		c0.001,0.057,0.001,0.113,0,0.17h8.333c68.64,0,299.697,0,299.697,0s0-5.763,0.001-14.301
		C436.751,815.829,411.691,816.138,411.691,816.138z"/>
	<path fill="#C1272D" d="M153.634,830.345c-1.11,0-5.111,0-9.111,0c13.379-0.091,26.758-0.182,26.758-0.182l116.291-0.79
		l7.005-3.385l4.203-0.113l8.407-2.256l102.28-0.299l5.604-0.338l8.407-0.282l11.209-4.513c0,0,1.834-1.476,2.534-2.041
		c-0.001,6.377-0.001,14.198-0.001,14.198l-283.284,0C153.936,830.345,153.83,830.345,153.634,830.345z"/>
	<g>
		<g>
			<g>
				
					<line fill="none" stroke="#888888" stroke-width="0.5" stroke-linejoin="round" stroke-miterlimit="10" x1="118.392" y1="830.611" x2="118.392" y2="834.094"/>
				
					<line fill="none" stroke="#888888" stroke-width="0.5" stroke-linejoin="round" stroke-miterlimit="10" x1="160.814" y1="830.584" x2="160.814" y2="834.068"/>
				
					<line fill="none" stroke="#888888" stroke-width="0.5" stroke-linejoin="round" stroke-miterlimit="10" x1="203.439" y1="830.557" x2="203.439" y2="834.041"/>
				
					<line fill="none" stroke="#888888" stroke-width="0.5" stroke-linejoin="round" stroke-miterlimit="10" x1="246.147" y1="830.531" x2="246.147" y2="834.014"/>
			</g>
			<g>
				
					<line fill="none" stroke="#888888" stroke-width="0.5" stroke-linejoin="round" stroke-miterlimit="10" x1="458.455" y1="830.611" x2="458.455" y2="834.095"/>
				
					<line fill="none" stroke="#888888" stroke-width="0.5" stroke-linejoin="round" stroke-miterlimit="10" x1="500.904" y1="830.584" x2="500.904" y2="834.068"/>
				
					<line fill="none" stroke="#888888" stroke-width="0.5" stroke-linejoin="round" stroke-miterlimit="10" x1="543.556" y1="830.557" x2="543.556" y2="834.041"/>
				
					<line fill="none" stroke="#888888" stroke-width="0.5" stroke-linejoin="round" stroke-miterlimit="10" x1="586.293" y1="830.531" x2="586.293" y2="834.014"/>
			</g>
			<g>
				
					<line fill="none" stroke="#888888" stroke-width="0.5" stroke-linejoin="round" stroke-miterlimit="10" x1="628.511" y1="830.486" x2="628.511" y2="833.97"/>
				
					<line fill="none" stroke="#888888" stroke-width="0.5" stroke-linejoin="round" stroke-miterlimit="10" x1="670.933" y1="830.459" x2="670.933" y2="833.943"/>
			</g>
			<g>
				
					<line fill="none" stroke="#888888" stroke-width="0.5" stroke-linejoin="round" stroke-miterlimit="10" x1="714.155" y1="830.459" x2="714.155" y2="833.943"/>
			</g>
			<g>
				
					<line fill="none" stroke="#888888" stroke-width="0.5" stroke-linejoin="round" stroke-miterlimit="10" x1="288.522" y1="830.468" x2="288.522" y2="833.952"/>
				
					<line fill="none" stroke="#888888" stroke-width="0.5" stroke-linejoin="round" stroke-miterlimit="10" x1="330.944" y1="830.441" x2="330.944" y2="833.925"/>
				
					<line fill="none" stroke="#888888" stroke-width="0.5" stroke-linejoin="round" stroke-miterlimit="10" x1="373.569" y1="830.414" x2="373.569" y2="833.898"/>
				
					<line fill="none" stroke="#888888" stroke-width="0.5" stroke-linejoin="round" stroke-miterlimit="10" x1="416.278" y1="830.388" x2="416.278" y2="833.871"/>
			</g>
		</g>
		<g>
			<g>
				
					<line fill="none" stroke="#888888" stroke-width="0.5" stroke-linejoin="round" stroke-miterlimit="10" x1="756.675" y1="830.611" x2="756.675" y2="834.095"/>
				
					<line fill="none" stroke="#888888" stroke-width="0.5" stroke-linejoin="round" stroke-miterlimit="10" x1="799.097" y1="830.584" x2="799.097" y2="834.068"/>
				
					<line fill="none" stroke="#888888" stroke-width="0.5" stroke-linejoin="round" stroke-miterlimit="10" x1="841.722" y1="830.558" x2="841.722" y2="834.041"/>
				
					<line fill="none" stroke="#888888" stroke-width="0.5" stroke-linejoin="round" stroke-miterlimit="10" x1="884.43" y1="830.531" x2="884.43" y2="834.014"/>
			</g>
			
				<line fill="none" stroke="#888888" stroke-width="0.5" stroke-linejoin="round" stroke-miterlimit="10" x1="926.805" y1="830.468" x2="926.805" y2="833.952"/>
			
				<line fill="none" stroke="#888888" stroke-width="0.5" stroke-linejoin="round" stroke-miterlimit="10" x1="969.228" y1="830.441" x2="969.228" y2="833.925"/>
		</g>
	</g>
	<line fill="none" stroke="#3F5EBA" stroke-miterlimit="10" x1="277.842" y1="830.129" x2="277.842" y2="756.355"/>
	<line fill="none" stroke="#C1272D" stroke-miterlimit="10" x1="353.857" y1="830.129" x2="353.857" y2="732.103"/>
	
		<line style="opacity:0.3;" fill="none" stroke="#FFFFFF" stroke-miterlimit="10" stroke-dasharray="5,5" x1="610.68" y1="829.936" x2="610.68" y2="796.62"/>
	
		<line style="opacity:0.3;" fill="none" stroke="#FFFFFF" stroke-miterlimit="10" stroke-dasharray="5,5" x1="679.223" y1="830.793" x2="679.223" y2="813.278"/>
	
		<line style="opacity:0.3;" fill="none" stroke="#FFFFFF" stroke-miterlimit="10" stroke-dasharray="5,5" x1="731.27" y1="830.15" x2="731.27" y2="812.751"/>
	<line fill="none" stroke="#3F5EBA" stroke-miterlimit="10" x1="951.171" y1="273.828" x2="913.528" y2="273.828"/>
	<line fill="none" stroke="#3F5EBA" stroke-miterlimit="10" x1="975.514" y1="103.828" x2="970.514" y2="103.828"/>
	<line fill="none" stroke="#C1272D" stroke-miterlimit="10" x1="961.642" y1="142.826" x2="943.955" y2="142.826"/>
	<line fill="none" stroke="#C1272D" stroke-miterlimit="10" x1="975.298" y1="809.826" x2="970.298" y2="809.826"/>
	
		<line style="opacity:0.9;" fill="none" stroke="#E38D8F" stroke-miterlimit="10" x1="768.243" y1="812.156" x2="768.243" y2="534.508"/>
	
		<line style="opacity:0.9;" fill="none" stroke="#E38D8F" stroke-miterlimit="10" x1="731.27" y1="812.672" x2="731.27" y2="625.482"/>
	
		<line style="opacity:0.9;" fill="none" stroke="#E38D8F" stroke-miterlimit="10" x1="731.819" y1="625.482" x2="705.828" y2="625.482"/>
	
		<line style="opacity:0.9;" fill="none" stroke="#E38D8F" stroke-miterlimit="10" x1="679.033" y1="813.278" x2="679.033" y2="696.811"/>
	
		<line style="opacity:0.9;" fill="none" stroke="#E38D8F" stroke-miterlimit="10" x1="679.642" y1="696.811" x2="640.804" y2="696.811"/>
	
		<line style="opacity:0.9;" fill="none" stroke="#E38D8F" stroke-miterlimit="10" x1="610.68" y1="813.848" x2="610.68" y2="743.677"/>
	<line style="opacity:0.9;" fill="none" stroke="#E38D8F" stroke-miterlimit="10" x1="611.328" y1="743.94" x2="564.813" y2="743.94"/>
	
		<line style="opacity:0.3;" fill="none" stroke="#FFFFFF" stroke-miterlimit="10" stroke-dasharray="5,5" x1="768.243" y1="830.15" x2="768.243" y2="812.672"/>
	<rect x="316.843" y="710.737" fill="#FFFFFF" width="84.151" height="10.294"/>
	<rect x="578.197" y="598.85" fill="#FFFFFF" width="127.631" height="10.294"/>
	<rect x="497.075" y="485.962" fill="#FFFFFF" width="326.732" height="11.44"/>
	<rect x="796.331" y="261.044" fill="#FFFFFF" width="117.198" height="9.61"/>
	<rect x="764.458" y="147.871" fill="#FFFFFF" width="175.775" height="7.696"/>
</g>
<style>
#g-2020-timeplot-done-desktop-img rect, #g-2020-timeplot-done-desktop-img circle, #g-2020-timeplot-done-desktop-img path, #g-2020-timeplot-done-desktop-img line, #g-2020-timeplot-done-desktop-img polyline { vector-effect: non-scaling-stroke; }
</style>
</svg>

