<?xml version="1.0" encoding="utf-8"?>
<!-- Generator: Adobe Illustrator 22.1.0, SVG Export Plug-In . SVG Version: 6.00 Build 0)  -->
<svg version="1.2" baseProfile="tiny" id="g-2020-timeplot-done-mobile-img" xmlns="http://www.w3.org/2000/svg" xmlns:xlink="http://www.w3.org/1999/xlink"
	 x="0px" y="0px" viewBox="0 0 300 837" xml:space="preserve">
<g>
	<g style="opacity:0.1;">
		<line fill="none" stroke="#777777" stroke-width="0.75" stroke-miterlimit="10" x1="271.9" y1="43.531" x2="271.9" y2="730.148"/>
		<g>
			
				<line fill="none" stroke="#777777" stroke-width="0.75" stroke-miterlimit="10" x1="238.679" y1="43.531" x2="238.68" y2="730.148"/>
			
				<line fill="none" stroke="#777777" stroke-width="0.75" stroke-miterlimit="10" x1="205.375" y1="43.531" x2="205.375" y2="730.148"/>
			
				<line fill="none" stroke="#777777" stroke-width="0.75" stroke-miterlimit="10" x1="172.323" y1="44.178" x2="172.323" y2="730.795"/>
			
				<line fill="none" stroke="#777777" stroke-width="0.75" stroke-miterlimit="10" x1="139.187" y1="45.471" x2="139.187" y2="732.089"/>
			
				<line fill="none" stroke="#777777" stroke-width="0.75" stroke-miterlimit="10" x1="105.967" y1="44.824" x2="105.967" y2="731.442"/>
			
				<line fill="none" stroke="#777777" stroke-width="0.75" stroke-miterlimit="10" x1="72.747" y1="43.962" x2="72.747" y2="730.579"/>
		</g>
	</g>
	
		<polyline fill="none" stroke="#0642FF" stroke-width="0.75" stroke-linecap="square" stroke-linejoin="round" stroke-miterlimit="10" points="
		39.488,85.664 39.72,178.377 40.716,183.963 40.749,187.314 41.413,194.016 41.501,275.559 41.601,280.027 41.684,286.729 
		43.012,295.665 43.676,297.899 	"/>
	<path style="opacity:0.9;" fill="#3F5EBA" d="M139.053,650.477l-4.905-1.117l-0.585-1.117l-0.066-2.234l-0.55-1.117l-0.965-1.117
		l-0.157-2.234l-2.042-1.117l-0.133-1.117l-1.135-1.117l-0.73-1.117l-0.986-1.117l-0.24-1.117l-0.11-1.117l-1.072-1.117
		l-0.256-3.351l-0.189-1.117l-0.681-1.117l-0.163-2.234l-4.007-1.117l-1.928-2.234l-2.912-1.117l-4.137-2.234l-0.511-1.117
		l-0.332-1.117l-0.133-1.117l-0.577-1.117l-0.066-1.117l-0.332-1.117l-0.023-1.117l-1.511-1.117l-0.714-1.117l-3.685-1.117
		l-0.521-2.234l-1.859-1.117l-2.586-1.117l-0.301-5.585l-0.561-1.117l-0.394-4.468l-0.245-1.117l-0.179-3.351l-0.352-2.234
		l-0.499-1.117l-2.162-1.117l-0.87-1.117l-0.073-1.117l-0.77-3.351l-1.068-2.234l-2.68-1.117l-0.664-2.234l-1.959-1.117
		l-0.433-1.117l-0.017-1.117l-0.332-1.117l-1.402-1.117l-0.033-2.234l-0.153-1.117l-0.664-1.117l-0.342-1.117l-0.485-2.234
		l-0.007-1.117l-0.78-1.117l-0.088-2.234l-0.614-1.117l-0.02-1.117l-0.207-1.117l-0.017-2.234l-1.859-1.117l-0.425-7.819
		l-0.013-2.234l-0.5-1.117l-0.024-1.117l-0.212-3.351l-0.036-2.234l-0.183-1.117l-0.066-1.117l-1.328-1.117l-0.08-1.117
		l-0.361-2.234l-2.191-1.117l-7.049-1.117l-0.729-1.117l-2.965-1.117l-4.993-1.117l-1.541-1.117l-0.017-1.117l-0.415-1.117
		l-0.11-6.702l-0.681-2.234l-0.112-12.287l-0.199-1.117l-0.166-2.234l-0.03-2.234l-0.147-1.117l-0.101-8.936l-0.687-2.234
		l-0.166-3.351l-1.859-1.117l-0.017-2.234l-0.863-2.234l-0.243-25.692l-0.266-3.351l-0.062-13.404l-0.066-2.234l-0.12-1.117
		l-0.147-8.936l-0.1-2.234l-0.037-17.872l-0.166-4.468l-1.677-1.117l-0.064-11.17l-0.033-1.117l-0.081-4.468l-0.166-2.234
		l-0.076-2.234l-1.859-1.117l-0.017-5.585l-0.083-5.585l-0.083-1.117l-0.231-17.872l-0.332-5.585l-0.033-5.585l-0.1-23.458
		c0,0,0-0.029-0.001-0.093c-2.19,0-4.13,0-4.13,0s0,29.231,0,72.357c0,121.272,0,352.421,0,352.421s176.091,0,213.925,0
		c-0.409-0.139-0.632-0.214-0.632-0.214l-3.297-1.117l-4.112-3.351l-2.653-1.117l-1.098-1.117l-1.768-1.117l-4.298-1.117
		l-2.613-1.117l-5.614-1.117l-4.333-1.117l-8.096-1.117l-9.143-1.117l-2.789-1.117l-0.608-1.117l-1.059-1.117l-1.763-1.117
		l-3.054-1.117l-4.764-1.117l-4.078-1.117l-3.058-1.117l-5.448-2.234l-0.083-1.117l-0.983-1.117l-0.558-1.117l-4.331-1.117
		l-1.729-1.117l-2.779-1.117l-1.112-1.117l-2.51-1.117l-1.343-1.117l-1.086-1.117l-1.926-1.117l-2.39-1.117l-0.592-2.234
		l-0.101-1.117l-0.604-1.117l-1.123-2.234l-1.106-1.117l-2.333-1.117l-0.146-2.234l-0.189-1.117l-0.697-1.117l-1.849-1.117
		l-1.256-2.234l-0.156-1.117l-0.435-1.117l-1.099-1.117l-0.034-1.117l-0.76-1.117l-0.133-1.117l-2.891-1.117l-0.789-1.117
		l-0.813-4.468"/>
	<path fill="#C1272D" d="M43.078,297.056c-1.84-0.001-3.62-0.001-3.62-0.001l0,424.778c0,0,3.294,0,6.065,0c0-0.55,0-0.903,0-0.903
		l-0.142-1.117l-0.046-12.287l-0.03-8.936l-0.001-1.117l-0.017-2.234l-0.014-1.117l-0.061-2.234l-0.001-4.468l-0.001-1.117
		l-0.017-1.117l-0.049-8.936l-0.003-11.17l-0.012-7.819l-0.035-2.234l-0.011-3.351l-0.046-4.468l-0.001-4.468l-0.002-1.117
		l-0.023-6.702l-0.051-2.234l-0.023-5.585l-0.012-3.351l-0.03-5.585l-0.062-5.585l-0.022-4.468l-0.002-1.117l-0.023-14.521
		l-0.012-7.819l-0.062-11.17l-0.023-13.404l-0.066-10.053l-0.062-6.702l-0.023-4.468l-0.023-13.404l-0.066-8.936l-0.062-10.053
		l-0.023-23.458l-0.062-11.17l-0.023-23.458l-0.062-11.17l-0.023-22.341l-0.062-11.17l-0.073-23.458l-0.062-11.17l-0.023-5.585
		l-0.05-16.755l-0.112-4.468l-0.066-6.702l-0.023-1.117l-0.05-16.755l-0.021-5.585l-0.062-11.17l-0.023-2.234l-0.005-1.116
		c0,0-0.001-0.182-0.002-0.521C43.395,297.056,43.237,297.056,43.078,297.056z"/>
	<path fill="#C1272D" d="M43.539,277.008l-0.062-11.137l-0.023-22.274l-0.062-11.137l-0.023-16.706l-0.025-17.819l-0.023-33.411
		l-0.056-34.525l-0.023-16.706l-3.718-14.478l-0.023-34.525l-0.023-11.137c0,0-0.001-0.603-0.003-1.676
		c-0.017,0.001-0.033,0.001-0.05,0v6.644c0,54.723,0,238.935,0,238.935s1.696,0,4.208,0.001
		C43.63,296.988,43.539,277.008,43.539,277.008z"/>
	<path fill="#C1272D" d="M39.358,71.271c0-0.885,0-4.075,0-7.264c0.027,10.667,0.053,21.333,0.053,21.333l0.232,92.713l0.996,5.585
		l0.033,3.351l0.664,6.702l0.088,81.543l0.1,4.468l0.083,6.702l1.328,8.936c0,0,0.434,1.462,0.601,2.021
		c-1.877-0.001-4.178-0.001-4.178-0.001l0-225.849C39.358,71.512,39.358,71.427,39.358,71.271z"/>
	<g>
		<g>
			<g>
				
					<line fill="none" stroke="#888888" stroke-width="0.5" stroke-linejoin="round" stroke-miterlimit="10" x1="39.28" y1="43.174" x2="38.254" y2="43.174"/>
				
					<line fill="none" stroke="#888888" stroke-width="0.5" stroke-linejoin="round" stroke-miterlimit="10" x1="39.287" y1="76.996" x2="38.262" y2="76.996"/>
				
					<line fill="none" stroke="#888888" stroke-width="0.5" stroke-linejoin="round" stroke-miterlimit="10" x1="39.295" y1="110.978" x2="38.27" y2="110.978"/>
				
					<line fill="none" stroke="#888888" stroke-width="0.5" stroke-linejoin="round" stroke-miterlimit="10" x1="39.303" y1="145.028" x2="38.278" y2="145.028"/>
			</g>
			<g>
				
					<line fill="none" stroke="#888888" stroke-width="0.5" stroke-linejoin="round" stroke-miterlimit="10" x1="39.28" y1="314.291" x2="38.254" y2="314.291"/>
				
					<line fill="none" stroke="#888888" stroke-width="0.5" stroke-linejoin="round" stroke-miterlimit="10" x1="39.287" y1="348.134" x2="38.262" y2="348.134"/>
				
					<line fill="none" stroke="#888888" stroke-width="0.5" stroke-linejoin="round" stroke-miterlimit="10" x1="39.295" y1="382.139" x2="38.27" y2="382.139"/>
				
					<line fill="none" stroke="#888888" stroke-width="0.5" stroke-linejoin="round" stroke-miterlimit="10" x1="39.303" y1="416.21" x2="38.278" y2="416.21"/>
			</g>
			<g>
				
					<line fill="none" stroke="#888888" stroke-width="0.5" stroke-linejoin="round" stroke-miterlimit="10" x1="39.316" y1="449.869" x2="38.291" y2="449.869"/>
				
					<line fill="none" stroke="#888888" stroke-width="0.5" stroke-linejoin="round" stroke-miterlimit="10" x1="39.324" y1="483.69" x2="38.299" y2="483.69"/>
			</g>
			<g>
				
					<line fill="none" stroke="#888888" stroke-width="0.5" stroke-linejoin="round" stroke-miterlimit="10" x1="39.324" y1="518.149" x2="38.299" y2="518.149"/>
			</g>
			<g>
				
					<line fill="none" stroke="#888888" stroke-width="0.5" stroke-linejoin="round" stroke-miterlimit="10" x1="39.322" y1="178.811" x2="38.297" y2="178.811"/>
				
					<line fill="none" stroke="#888888" stroke-width="0.5" stroke-linejoin="round" stroke-miterlimit="10" x1="39.33" y1="212.633" x2="38.304" y2="212.633"/>
				
					<line fill="none" stroke="#888888" stroke-width="0.5" stroke-linejoin="round" stroke-miterlimit="10" x1="39.337" y1="246.615" x2="38.312" y2="246.615"/>
				
					<line fill="none" stroke="#888888" stroke-width="0.5" stroke-linejoin="round" stroke-miterlimit="10" x1="39.345" y1="280.665" x2="38.32" y2="280.665"/>
			</g>
		</g>
		<g>
			<g>
				
					<line fill="none" stroke="#888888" stroke-width="0.5" stroke-linejoin="round" stroke-miterlimit="10" x1="39.28" y1="552.049" x2="38.254" y2="552.049"/>
				
					<line fill="none" stroke="#888888" stroke-width="0.5" stroke-linejoin="round" stroke-miterlimit="10" x1="39.287" y1="585.87" x2="38.262" y2="585.87"/>
				
					<line fill="none" stroke="#888888" stroke-width="0.5" stroke-linejoin="round" stroke-miterlimit="10" x1="39.295" y1="619.852" x2="38.27" y2="619.852"/>
				
					<line fill="none" stroke="#888888" stroke-width="0.5" stroke-linejoin="round" stroke-miterlimit="10" x1="39.303" y1="653.902" x2="38.278" y2="653.902"/>
			</g>
			
				<line fill="none" stroke="#888888" stroke-width="0.5" stroke-linejoin="round" stroke-miterlimit="10" x1="39.322" y1="687.686" x2="38.296" y2="687.686"/>
			
				<line fill="none" stroke="#888888" stroke-width="0.5" stroke-linejoin="round" stroke-miterlimit="10" x1="39.329" y1="721.507" x2="38.304" y2="721.507"/>
		</g>
	</g>
	<line fill="none" stroke="#3F5EBA" stroke-miterlimit="10" x1="39.421" y1="170.296" x2="61.131" y2="170.296"/>
	<line fill="none" stroke="#C1272D" stroke-miterlimit="10" x1="39.421" y1="230.9" x2="68.268" y2="230.9"/>
	
		<line style="opacity:0.3;" fill="none" stroke="#FFFFFF" stroke-miterlimit="10" stroke-dasharray="5,5" x1="39.478" y1="435.653" x2="49.282" y2="435.653"/>
	
		<line style="opacity:0.3;" fill="none" stroke="#FFFFFF" stroke-miterlimit="10" stroke-dasharray="5,5" x1="39.226" y1="490.299" x2="44.38" y2="490.299"/>
	
		<line style="opacity:0.3;" fill="none" stroke="#FFFFFF" stroke-miterlimit="10" stroke-dasharray="5,5" x1="39.415" y1="531.794" x2="44.535" y2="531.794"/>
	<line fill="none" stroke="#3F5EBA" stroke-miterlimit="10" x1="203.128" y1="707.111" x2="203.128" y2="645.167"/>
	<line fill="none" stroke="#C1272D" stroke-miterlimit="10" x1="241.679" y1="715.459" x2="241.679" y2="701.358"/>
	
		<line style="opacity:0.9;" fill="none" stroke="#E38D8F" stroke-miterlimit="10" x1="44.71" y1="561.271" x2="113.545" y2="561.271"/>
	
		<line style="opacity:0.9;" fill="none" stroke="#E38D8F" stroke-miterlimit="10" x1="44.559" y1="531.794" x2="112.5" y2="531.794"/>
	
		<line style="opacity:0.9;" fill="none" stroke="#E38D8F" stroke-miterlimit="10" x1="44.38" y1="490.148" x2="72.862" y2="490.148"/>
	
		<line style="opacity:0.9;" fill="none" stroke="#E38D8F" stroke-miterlimit="10" x1="72.768" y1="490.633" x2="72.768" y2="459.67"/>
	
		<line style="opacity:0.9;" fill="none" stroke="#E38D8F" stroke-miterlimit="10" x1="112.102" y1="532" x2="112.102" y2="525.333"/>
	
		<line style="opacity:0.9;" fill="none" stroke="#E38D8F" stroke-miterlimit="10" x1="44.212" y1="435.653" x2="64.862" y2="435.653"/>
	<line style="opacity:0.9;" fill="none" stroke="#E38D8F" stroke-miterlimit="10" x1="64.785" y1="436.17" x2="64.785" y2="399.085"/>
	
		<line style="opacity:0.3;" fill="none" stroke="#FFFFFF" stroke-miterlimit="10" stroke-dasharray="5,5" x1="39.415" y1="561.271" x2="44.559" y2="561.271"/>
</g>
<style>
#g-2020-timeplot-done-mobile-img rect, #g-2020-timeplot-done-mobile-img circle, #g-2020-timeplot-done-mobile-img path, #g-2020-timeplot-done-mobile-img line, #g-2020-timeplot-done-mobile-img polyline { vector-effect: non-scaling-stroke; }
</style>
</svg>

