<?xml version="1.0" encoding="utf-8"?>
<!-- Generator: Adobe Illustrator 22.1.0, SVG Export Plug-In . SVG Version: 6.00 Build 0)  -->
<svg version="1.2" baseProfile="tiny" id="g-2020-timeplot-done-tablet-img" xmlns="http://www.w3.org/2000/svg" xmlns:xlink="http://www.w3.org/1999/xlink"
	 x="0px" y="0px" viewBox="0 0 600 968.928" xml:space="preserve">
<g>
	<g style="opacity:0.1;">
		<line fill="none" stroke="#777777" stroke-width="0.75" stroke-miterlimit="10" x1="55.522" y1="63.333" x2="503.3" y2="63.332"/>
		<g>
			
				<line fill="none" stroke="#777777" stroke-width="0.75" stroke-miterlimit="10" x1="55.522" y1="182.152" x2="503.3" y2="182.151"/>
			
				<line fill="none" stroke="#777777" stroke-width="0.75" stroke-miterlimit="10" x1="55.522" y1="301.272" x2="503.3" y2="301.271"/>
			
				<line fill="none" stroke="#777777" stroke-width="0.75" stroke-miterlimit="10" x1="55.944" y1="419.489" x2="503.722" y2="419.489"/>
			
				<line fill="none" stroke="#777777" stroke-width="0.75" stroke-miterlimit="10" x1="56.788" y1="538.008" x2="504.565" y2="538.007"/>
			
				<line fill="none" stroke="#777777" stroke-width="0.75" stroke-miterlimit="10" x1="56.366" y1="656.827" x2="504.143" y2="656.826"/>
			
				<line fill="none" stroke="#777777" stroke-width="0.75" stroke-miterlimit="10" x1="55.804" y1="775.646" x2="503.581" y2="775.646"/>
		</g>
	</g>
	
		<polyline fill="none" stroke="#0642FF" stroke-width="0.75" stroke-linecap="square" stroke-linejoin="round" stroke-miterlimit="10" points="
		83,894.603 143.463,893.772 147.105,890.209 149.29,890.091 153.661,887.716 206.839,887.401 209.753,887.045 214.124,886.748 
		219.952,881.998 221.409,879.623 	"/>
	<path style="opacity:0.9;" fill="#3F5EBA" d="M451.342,538.488l-0.728,17.542l-0.728,2.091l-1.457,0.237l-0.728,1.966l-0.728,3.451
		l-1.457,0.563l-0.728,7.303l-0.728,0.475l-0.728,4.061l-0.728,2.612l-0.728,3.527l-0.728,0.859l-0.728,0.392l-0.728,3.836
		l-2.185,0.914l-0.728,0.677l-0.728,2.434l-1.457,0.583l-0.728,14.333l-1.457,6.894l-0.728,10.414l-1.457,14.796l-0.728,1.826
		l-0.728,1.187l-0.728,0.475l-0.728,2.064l-0.728,0.237l-0.728,1.187l-0.728,0.083l-0.728,5.405l-0.728,2.553l-0.728,13.181
		l-1.457,1.864l-0.728,6.65l-0.728,9.248l-3.642,1.076l-0.728,2.007l-2.914,1.411l-0.728,0.876l-2.185,0.641l-1.457,1.26
		l-0.728,1.784l-0.728,7.734l-0.728,3.114l-0.728,0.261l-2.185,2.755l-1.457,3.821l-0.728,9.585l-1.457,2.375l-0.728,7.006
		l-0.728,1.547l-0.728,0.059l-0.728,1.187l-0.728,5.013l-1.457,0.119l-0.728,0.546l-0.728,2.375l-0.728,1.223l-1.457,1.736
		l-0.728,0.024l-0.728,2.79l-1.457,0.314l-0.728,2.197l-0.728,0.072l-0.728,0.739l-1.457,0.059l-0.728,6.65l-5.099,1.52
		l-1.457,0.045l-0.728,1.789l-0.728,0.085l-2.185,0.758l-1.457,0.128l-0.728,0.653l-0.728,0.238l-0.728,4.75l-0.728,0.285
		l-1.457,1.29l-0.728,7.837l-0.728,25.213l-0.728,2.607l-0.728,10.604l-0.728,17.86l-0.728,5.512l-0.728,0.059l-0.728,1.484
		l-4.371,0.392l-1.457,2.434l-8.013,0.402l-0.728,0.712l-1.457,0.594l-1.457,0.107l-0.728,0.525l-5.828,0.362l-1.457,2.458
		l-2.185,0.594l-0.728,6.65l-1.457,0.059l-1.457,3.087l-16.755,0.87l-2.185,0.95l-8.742,0.221l-1.457,0.237l-0.728,0.427
		l-5.828,0.526l-1.457,0.356l-11.655,0.133l-2.914,0.594l-0.728,5.997l-7.285,0.229l-0.728,0.119l-2.914,0.29l-1.457,0.594
		l-1.457,0.273l-0.728,6.65l-3.642,0.059l-3.642,0.297l-0.728,0.297l-11.655,0.827l-3.642,1.187l-3.642,0.119l-15.298,0.356
		c0,0-0.019,0-0.061,0.004c0,7.835,0,14.77,0,14.77s19.063,0,47.187,0c79.088,0,229.831,0,229.831,0s0-629.826,0-765.148
		c-0.09,1.465-0.14,2.261-0.14,2.261l-0.728,11.794l-2.185,14.707l-0.728,9.488l-0.728,3.926l-0.728,6.323l-0.728,15.373
		l-0.728,9.345l-0.728,20.08l-0.728,15.496l-0.728,28.956l-0.728,32.703l-0.728,9.975l-0.728,2.173l-0.728,3.788l-0.728,6.305
		l-0.728,10.925l-0.728,17.04l-0.728,14.587l-0.728,10.936l-1.457,19.486l-0.728,0.297l-0.728,3.515l-0.728,1.995l-0.728,15.492
		l-0.728,6.185l-0.728,9.939l-0.728,3.978l-0.728,8.978l-0.728,4.802l-0.728,3.883l-0.728,6.887l-0.728,8.55l-1.457,2.119
		l-0.728,0.36l-0.728,2.161l-1.457,4.018l-0.728,3.954l-0.728,8.345l-1.457,0.522l-0.728,0.677l-0.728,2.494l-0.728,6.614
		l-1.457,4.491l-0.728,0.558l-0.728,1.556l-0.728,3.931l-0.728,0.122l-0.728,2.718l-0.728,0.475l-0.728,10.34l-0.728,2.824
		l-2.914,2.906"/>
	<path fill="#C1272D" d="M220.858,881.761c-0.001,6.582-0.001,12.949-0.001,12.949l277.019,0c0,0,0-11.782,0-21.694
		c-0.359,0.001-0.589,0.001-0.589,0.001l-0.728,0.508l-8.013,0.166l-5.828,0.107l-0.728,0.002l-1.457,0.062l-0.728,0.049
		l-1.457,0.218l-2.914,0.002l-0.728,0.002l-0.728,0.059l-5.828,0.176l-7.285,0.01l-5.099,0.043l-1.457,0.124l-2.185,0.04
		l-2.914,0.166l-2.914,0.002l-0.728,0.009l-4.371,0.083l-1.457,0.181l-3.642,0.083l-2.185,0.044l-3.642,0.107l-3.642,0.223
		l-2.914,0.08l-0.728,0.009l-9.47,0.083l-5.099,0.044l-7.285,0.223l-8.742,0.083l-6.556,0.237l-4.371,0.223l-2.914,0.083
		l-8.742,0.083l-5.828,0.237l-6.556,0.223l-15.298,0.083l-7.285,0.223l-15.298,0.083l-7.285,0.223l-14.569,0.083l-7.285,0.223
		l-15.298,0.261l-7.285,0.223l-3.642,0.083l-10.927,0.178l-2.914,0.401l-4.371,0.237l-0.728,0.083l-10.927,0.178l-3.642,0.075
		l-7.285,0.223l-1.457,0.083l-0.728,0.018c0,0-0.119,0.003-0.34,0.008C220.859,880.627,220.859,881.195,220.858,881.761z"/>
	<path fill="#C1272D" d="M207.785,880.115l-7.263,0.223l-14.526,0.083l-7.263,0.223l-10.895,0.083l-11.621,0.089l-21.789,0.083
		l-22.515,0.202l-10.895,0.083l-9.442,13.299l-22.516,0.083l-7.263,0.083c0,0-0.393,0.005-1.093,0.013c0.001,0.06,0,0.119,0,0.179
		h4.333c35.688,0,155.822,0,155.822,0s0-6.066,0.001-15.052C220.814,879.789,207.785,880.115,207.785,880.115z"/>
	<path fill="#C1272D" d="M73.613,895.068c-0.577,0-2.657,0-4.737,0c6.956-0.096,13.912-0.191,13.912-0.191l60.463-0.831l3.642-3.562
		l2.185-0.119l4.371-2.375l53.178-0.315l2.914-0.356l4.371-0.297l5.828-4.75c0,0,0.953-1.554,1.318-2.148
		c-0.001,6.712-0.001,14.944-0.001,14.944l-147.288,0C73.77,895.068,73.715,895.068,73.613,895.068z"/>
	<g>
		<g>
			<g>
				
					<line fill="none" stroke="#888888" stroke-width="0.5" stroke-linejoin="round" stroke-miterlimit="10" x1="55.29" y1="895.348" x2="55.29" y2="899.014"/>
				
					<line fill="none" stroke="#888888" stroke-width="0.5" stroke-linejoin="round" stroke-miterlimit="10" x1="77.346" y1="895.32" x2="77.346" y2="898.986"/>
				
					<line fill="none" stroke="#888888" stroke-width="0.5" stroke-linejoin="round" stroke-miterlimit="10" x1="99.508" y1="895.291" x2="99.508" y2="898.958"/>
				
					<line fill="none" stroke="#888888" stroke-width="0.5" stroke-linejoin="round" stroke-miterlimit="10" x1="121.714" y1="895.263" x2="121.714" y2="898.93"/>
			</g>
			<g>
				
					<line fill="none" stroke="#888888" stroke-width="0.5" stroke-linejoin="round" stroke-miterlimit="10" x1="232.098" y1="895.348" x2="232.098" y2="899.014"/>
				
					<line fill="none" stroke="#888888" stroke-width="0.5" stroke-linejoin="round" stroke-miterlimit="10" x1="254.169" y1="895.32" x2="254.169" y2="898.986"/>
				
					<line fill="none" stroke="#888888" stroke-width="0.5" stroke-linejoin="round" stroke-miterlimit="10" x1="276.345" y1="895.291" x2="276.345" y2="898.958"/>
				
					<line fill="none" stroke="#888888" stroke-width="0.5" stroke-linejoin="round" stroke-miterlimit="10" x1="298.565" y1="895.263" x2="298.565" y2="898.93"/>
			</g>
			<g>
				
					<line fill="none" stroke="#888888" stroke-width="0.5" stroke-linejoin="round" stroke-miterlimit="10" x1="320.516" y1="895.216" x2="320.516" y2="898.883"/>
				
					<line fill="none" stroke="#888888" stroke-width="0.5" stroke-linejoin="round" stroke-miterlimit="10" x1="342.572" y1="895.188" x2="342.572" y2="898.855"/>
			</g>
			<g>
				
					<line fill="none" stroke="#888888" stroke-width="0.5" stroke-linejoin="round" stroke-miterlimit="10" x1="365.045" y1="895.188" x2="365.045" y2="898.855"/>
			</g>
			<g>
				
					<line fill="none" stroke="#888888" stroke-width="0.5" stroke-linejoin="round" stroke-miterlimit="10" x1="143.746" y1="895.197" x2="143.746" y2="898.864"/>
				
					<line fill="none" stroke="#888888" stroke-width="0.5" stroke-linejoin="round" stroke-miterlimit="10" x1="165.802" y1="895.169" x2="165.802" y2="898.836"/>
				
					<line fill="none" stroke="#888888" stroke-width="0.5" stroke-linejoin="round" stroke-miterlimit="10" x1="187.964" y1="895.141" x2="187.964" y2="898.808"/>
				
					<line fill="none" stroke="#888888" stroke-width="0.5" stroke-linejoin="round" stroke-miterlimit="10" x1="210.169" y1="895.113" x2="210.169" y2="898.779"/>
			</g>
		</g>
		<g>
			<g>
				
					<line fill="none" stroke="#888888" stroke-width="0.5" stroke-linejoin="round" stroke-miterlimit="10" x1="387.152" y1="895.348" x2="387.152" y2="899.014"/>
				
					<line fill="none" stroke="#888888" stroke-width="0.5" stroke-linejoin="round" stroke-miterlimit="10" x1="409.209" y1="895.32" x2="409.209" y2="898.986"/>
				
					<line fill="none" stroke="#888888" stroke-width="0.5" stroke-linejoin="round" stroke-miterlimit="10" x1="431.37" y1="895.292" x2="431.37" y2="898.958"/>
				
					<line fill="none" stroke="#888888" stroke-width="0.5" stroke-linejoin="round" stroke-miterlimit="10" x1="453.576" y1="895.263" x2="453.576" y2="898.93"/>
			</g>
			
				<line fill="none" stroke="#888888" stroke-width="0.5" stroke-linejoin="round" stroke-miterlimit="10" x1="475.608" y1="895.198" x2="475.608" y2="898.864"/>
			
				<line fill="none" stroke="#888888" stroke-width="0.5" stroke-linejoin="round" stroke-miterlimit="10" x1="497.664" y1="895.169" x2="497.664" y2="898.836"/>
		</g>
	</g>
	<line fill="none" stroke="#3F5EBA" stroke-miterlimit="10" x1="138.192" y1="894.841" x2="138.192" y2="817.19"/>
	<line fill="none" stroke="#C1272D" stroke-miterlimit="10" x1="177.715" y1="894.841" x2="177.715" y2="737.581"/>
	
		<line style="opacity:0.3;" fill="none" stroke="#FFFFFF" stroke-miterlimit="10" stroke-dasharray="5,5" x1="311.245" y1="894.637" x2="311.245" y2="859.57"/>
	
		<line style="opacity:0.3;" fill="none" stroke="#FFFFFF" stroke-miterlimit="10" stroke-dasharray="5,5" x1="346.882" y1="895.54" x2="346.882" y2="877.104"/>
	
		<line style="opacity:0.3;" fill="none" stroke="#FFFFFF" stroke-miterlimit="10" stroke-dasharray="5,5" x1="373.943" y1="894.863" x2="373.943" y2="876.549"/>
	<line fill="none" stroke="#3F5EBA" stroke-miterlimit="10" x1="488.276" y1="309.31" x2="468.705" y2="309.31"/>
	<line fill="none" stroke="#3F5EBA" stroke-miterlimit="10" x1="500.933" y1="130.378" x2="498.333" y2="130.378"/>
	<line fill="none" stroke="#C1272D" stroke-miterlimit="10" x1="493.721" y1="171.425" x2="484.524" y2="171.425"/>
	<line fill="none" stroke="#C1272D" stroke-miterlimit="10" x1="500.821" y1="873.471" x2="498.221" y2="873.471"/>
	
		<line style="opacity:0.9;" fill="none" stroke="#E38D8F" stroke-miterlimit="10" x1="393.167" y1="875.923" x2="393.167" y2="583.686"/>
	
		<line style="opacity:0.9;" fill="none" stroke="#E38D8F" stroke-miterlimit="10" x1="373.943" y1="876.466" x2="373.943" y2="679.441"/>
	
		<line style="opacity:0.9;" fill="none" stroke="#E38D8F" stroke-miterlimit="10" x1="374.229" y1="679.441" x2="360.715" y2="679.441"/>
	
		<line style="opacity:0.9;" fill="none" stroke="#E38D8F" stroke-miterlimit="10" x1="346.784" y1="877.104" x2="346.784" y2="754.517"/>
	
		<line style="opacity:0.9;" fill="none" stroke="#E38D8F" stroke-miterlimit="10" x1="347.1" y1="754.517" x2="326.907" y2="754.517"/>
	
		<line style="opacity:0.9;" fill="none" stroke="#E38D8F" stroke-miterlimit="10" x1="311.245" y1="877.704" x2="311.245" y2="803.846"/>
	
		<line style="opacity:0.9;" fill="none" stroke="#E38D8F" stroke-miterlimit="10" x1="311.582" y1="804.122" x2="287.397" y2="804.122"/>
	
		<line style="opacity:0.3;" fill="none" stroke="#FFFFFF" stroke-miterlimit="10" stroke-dasharray="5,5" x1="393.167" y1="894.863" x2="393.167" y2="876.466"/>
</g>
<style>
#g-2020-timeplot-done-tablet-img rect, #g-2020-timeplot-done-tablet-img circle, #g-2020-timeplot-done-tablet-img path, #g-2020-timeplot-done-tablet-img line, #g-2020-timeplot-done-tablet-img polyline { vector-effect: non-scaling-stroke; }
</style>
</svg>

