<?xml version="1.0" encoding="utf-8"?>
<!-- Generator: Adobe Illustrator 22.1.0, SVG Export Plug-In . SVG Version: 6.00 Build 0)  -->
<svg version="1.2" baseProfile="tiny" id="g-committee-donations-done-desktop-img" xmlns="http://www.w3.org/2000/svg" xmlns:xlink="http://www.w3.org/1999/xlink"
	 x="0px" y="0px" viewBox="0 0 1200 1167.446" xml:space="preserve">
<g>
	<g>
		
			<line fill="none" stroke="#D9D9D9" stroke-width="0.75" stroke-miterlimit="10" x1="1168.359" y1="795.844" x2="631.362" y2="795.844"/>
		
			<line fill="none" stroke="#D9D9D9" stroke-width="0.75" stroke-miterlimit="10" x1="1168.359" y1="696.296" x2="631.362" y2="696.296"/>
		
			<line fill="none" stroke="#D9D9D9" stroke-width="0.75" stroke-miterlimit="10" x1="1168.359" y1="596.747" x2="631.362" y2="596.747"/>
		
			<line fill="none" stroke="#D9D9D9" stroke-width="0.75" stroke-miterlimit="10" x1="1171.413" y1="497.199" x2="631.362" y2="497.199"/>
		
			<line fill="none" stroke="#D9D9D9" stroke-width="0.75" stroke-miterlimit="10" x1="1168.359" y1="397.652" x2="631.362" y2="397.652"/>
		
			<line fill="none" stroke="#D9D9D9" stroke-width="0.75" stroke-miterlimit="10" x1="1168.359" y1="298.104" x2="631.362" y2="298.104"/>
		
			<line fill="none" stroke="#D9D9D9" stroke-width="0.75" stroke-miterlimit="10" x1="1168.701" y1="198.556" x2="631.704" y2="198.556"/>
		<rect x="925.056" y="856.524" fill="#FFBB33" width="17.9" height="38.867"/>
		<rect x="674.459" y="575.506" fill="#303B75" width="17.9" height="319.886"/>
		<rect x="1068.257" y="880.41" fill="#4AA3BA" width="17.9" height="14.982"/>
		<rect x="853.458" y="845.618" fill="#303B75" width="17.9" height="49.774"/>
		
		<rect x="639.367" y="154.59" fill="#4AA3BA" width="17.9" height="740.802"/>
		<rect x="781.859" y="828.517" fill="#4AA3BA" width="17.9" height="66.875"/>
		<rect x="889.257" y="854.97" fill="#4AA3BA" width="17.9" height="40.421"/>
		<rect x="996.658" y="876.175" fill="#4AA3BA" width="17.9" height="19.217"/>
		<rect x="1032.457" y="878.668" fill="#4AA3BA" width="17.9" height="16.723"/>
		<rect x="1104.058" y="880.508" fill="#A7D846" width="17.9" height="14.883"/>
		<rect x="710.258" y="724.168" fill="#A7D846" width="17.9" height="171.223"/>
		
		<rect x="746.058" y="824.747" fill="#DA5C53" width="17.9" height="70.645"/>
		<rect x="817.658" y="832.797" fill="#DA5C53" width="17.9" height="62.595"/>
		<rect x="960.857" y="873.707" fill="#DA5C53" width="17.9" height="21.684"/>
		<rect x="1139.857" y="880.791" fill="#DA5C53" width="17.9" height="14.6"/>
	</g>
	<line fill="none" stroke="#D9D9D9" stroke-width="0.75" stroke-miterlimit="10" x1="1168.701" y1="98" x2="631.704" y2="98"/>
	<path style="opacity:0.3;" fill="#D9D9D9" d="M526.966,288.083H66.448c-7.413,0-13.479-6.066-13.479-13.479V70.574
		c0-7.413,6.066-13.479,13.479-13.479h460.518c7.413,0,13.479,6.066,13.479,13.479v204.031
		C540.445,282.018,534.379,288.083,526.966,288.083z"/>
	<g>
		<g>
			<g>
				
					<line fill="none" stroke="#D9D9D9" stroke-width="0.75" stroke-miterlimit="10" x1="603.38" y1="398.543" x2="66.384" y2="397.614"/>
				
					<line fill="none" stroke="#D9D9D9" stroke-width="0.75" stroke-miterlimit="10" x1="602.708" y1="795.712" x2="65.712" y2="794.783"/>
				
					<line fill="none" stroke="#D9D9D9" stroke-width="0.75" stroke-miterlimit="10" x1="602.876" y1="696.421" x2="65.88" y2="695.492"/>
				
					<line fill="none" stroke="#D9D9D9" stroke-width="0.75" stroke-miterlimit="10" x1="603.044" y1="597.128" x2="66.048" y2="596.199"/>
				
					<line fill="none" stroke="#D9D9D9" stroke-width="0.75" stroke-miterlimit="10" x1="603.212" y1="497.836" x2="66.216" y2="496.907"/>
			</g>
			
				<rect x="-167.936" y="636.879" transform="matrix(0.0017 -1 1 0.0017 -565.1322 725.971)" fill="#303B75" width="497.94" height="18.303"/>
			
				<rect x="-48.28" y="720.133" transform="matrix(0.0017 -1 1 0.0017 -611.9838 845.5492)" fill="#4AA3BA" width="331.558" height="18.303"/>
			
				<rect x="27.551" y="759.489" transform="matrix(0.0017 -1 1 0.0017 -614.8621 921.3769)" fill="#4AA3BA" width="252.973" height="18.303"/>
			
				<rect x="72.121" y="767.531" transform="matrix(0.0017 -1 1 0.0017 -586.374 965.9969)" fill="#4AA3BA" width="237.016" height="18.303"/>
			
				<rect x="192.477" y="851.486" transform="matrix(0.0017 -1 1 0.0017 -633.9272 1086.2733)" fill="#DA5C53" width="69.233" height="18.303"/>
			
				<rect x="232.005" y="854.477" transform="matrix(0.0017 -1 1 0.0017 -600.3796 1125.8595)" fill="#4AA3BA" width="63.377" height="18.303"/>
			
				<rect x="269.493" y="855.425" transform="matrix(0.0017 -1 1 0.0017 -564.7858 1163.4098)" fill="#4AA3BA" width="61.608" height="18.303"/>
			
				<rect x="319.532" y="868.944" transform="matrix(0.0017 -1 1 0.0017 -541.7848 1213.4891)" fill="#A7D846" width="34.695" height="18.303"/>
			
				<rect x="360.919" y="873.798" transform="matrix(0.0017 -1 1 0.0017 -510.1026 1254.9313)" fill="#4AA3BA" width="25.116" height="18.303"/>
			
				<rect x="399.872" y="876.213" transform="matrix(0.0017 -1 1 0.0017 -475.9781 1293.9435)" fill="#A7D846" width="20.412" height="18.303"/>
			
				<rect x="436.896" y="876.695" transform="matrix(0.0017 -1 1 0.0017 -439.9177 1331.0297)" fill="#FFBB33" width="19.574" height="18.303"/>
			
				<rect x="473.892" y="877.149" transform="matrix(0.0017 -1 1 0.0017 -403.8294 1368.088)" fill="#A7D846" width="18.792" height="18.303"/>
			
				<rect x="511.429" y="878.146" transform="matrix(0.0017 -1 1 0.0017 -368.284 1405.6865)" fill="#A7D846" width="16.926" height="18.303"/>
			
				<rect x="548.294" y="878.47" transform="matrix(0.0017 -1 1 0.0017 -332.065 1442.6149)" fill="#A7D846" width="16.405" height="18.303"/>
			
				<rect x="585.098" y="878.732" transform="matrix(0.0017 -1 1 0.0017 -295.7838 1479.4813)" fill="#A7D846" width="16.007" height="18.303"/>
		</g>
		
	</g>
	<g>
		<rect x="875.463" y="130.301" fill="#FFFFFF" width="270.104" height="121.853"/>
		<rect x="888.859" y="223.074" fill="#FFBB33" width="21.722" height="13.162"/>
		<rect x="888.859" y="142.426" fill="#303B75" width="21.722" height="13.162"/>
		<rect x="888.859" y="162.588" fill="#4AA3BA" width="21.722" height="13.162"/>
		<rect x="888.859" y="182.75" fill="#A7D846" width="21.722" height="13.162"/>
		<rect x="888.859" y="202.912" fill="#DA5C53" width="21.722" height="13.162"/>
	</g>
	<line fill="none" x1="85.852" y1="806.978" x2="1285.852" y2="806.978"/>
	<g>
		<line fill="none" stroke="#848484" stroke-miterlimit="10" x1="718.852" y1="647.478" x2="718.852" y2="706.276"/>
		<g>
			<path fill="#848484" d="M714.052,699.442c0.232-0.148,0.542-0.08,0.69,0.153l4.109,6.453l4.109-6.453
				c0.148-0.233,0.458-0.302,0.69-0.153s0.3,0.459,0.153,0.69l-4.531,7.115c-0.092,0.144-0.251,0.231-0.422,0.231
				s-0.33-0.087-0.422-0.231l-4.531-7.115c-0.053-0.083-0.078-0.176-0.078-0.268C713.82,699.699,713.902,699.538,714.052,699.442z"
				/>
		</g>
	</g>
	<g>
		<line fill="none" stroke="#848484" stroke-miterlimit="10" x1="1076.852" y1="845.478" x2="1076.852" y2="874.276"/>
		<g>
			<path fill="#848484" d="M1072.052,867.442c0.232-0.148,0.542-0.08,0.69,0.153l4.109,6.453l4.109-6.453
				c0.148-0.233,0.458-0.302,0.69-0.153s0.3,0.459,0.153,0.69l-4.531,7.115c-0.092,0.144-0.251,0.231-0.422,0.231
				s-0.33-0.087-0.422-0.231l-4.531-7.115c-0.053-0.083-0.078-0.176-0.078-0.268C1071.82,867.699,1071.902,867.538,1072.052,867.442
				z"/>
		</g>
	</g>
	<g>
		<line fill="none" stroke="#848484" stroke-miterlimit="10" x1="1004.852" y1="794.478" x2="1004.852" y2="863.276"/>
		<g>
			<path fill="#848484" d="M1000.052,856.442c0.232-0.148,0.542-0.08,0.69,0.153l4.109,6.453l4.109-6.453
				c0.148-0.233,0.458-0.302,0.69-0.153s0.3,0.459,0.153,0.69l-4.531,7.115c-0.092,0.144-0.251,0.231-0.422,0.231
				s-0.33-0.087-0.422-0.231l-4.531-7.115c-0.053-0.083-0.078-0.176-0.078-0.268C999.82,856.699,999.902,856.538,1000.052,856.442z"
				/>
		</g>
	</g>
	<g>
		<line fill="none" stroke="#848484" stroke-miterlimit="10" x1="790.185" y1="683.478" x2="790.185" y2="822.276"/>
		<g>
			<path fill="#848484" d="M785.385,815.442c0.232-0.148,0.542-0.08,0.69,0.153l4.109,6.453l4.109-6.453
				c0.148-0.233,0.458-0.302,0.69-0.153s0.3,0.459,0.153,0.69l-4.531,7.115c-0.092,0.144-0.251,0.231-0.422,0.231
				s-0.33-0.087-0.422-0.231l-4.531-7.115c-0.053-0.083-0.078-0.176-0.078-0.268C785.154,815.699,785.236,815.538,785.385,815.442z"
				/>
		</g>
	</g>
	<g>
		<line fill="none" stroke="#848484" stroke-miterlimit="10" x1="896.852" y1="739.478" x2="896.852" y2="848.276"/>
		<g>
			<path fill="#848484" d="M892.052,841.442c0.232-0.148,0.542-0.08,0.69,0.153l4.109,6.453l4.109-6.453
				c0.148-0.233,0.458-0.302,0.69-0.153s0.3,0.459,0.153,0.69l-4.531,7.115c-0.092,0.144-0.251,0.231-0.422,0.231
				s-0.33-0.087-0.422-0.231l-4.531-7.115c-0.053-0.083-0.078-0.176-0.078-0.268C891.82,841.699,891.902,841.538,892.052,841.442z"
				/>
		</g>
	</g>
	<g>
		<rect x="305.614" y="426.842" fill="#FFFFFF" width="270.104" height="121.853"/>
		<rect x="319.01" y="519.615" fill="#FFBB33" width="21.722" height="13.162"/>
		<rect x="319.01" y="438.967" fill="#303B75" width="21.722" height="13.162"/>
		<rect x="319.01" y="459.129" fill="#4AA3BA" width="21.722" height="13.162"/>
		<rect x="319.01" y="479.291" fill="#A7D846" width="21.722" height="13.162"/>
		<rect x="319.01" y="499.453" fill="#DA5C53" width="21.722" height="13.162"/>
	</g>
	<g>
		<line fill="none" stroke="#848484" stroke-miterlimit="10" x1="153.185" y1="612.812" x2="153.185" y2="631.609"/>
		<g>
			<path fill="#848484" d="M148.385,624.775c0.232-0.148,0.542-0.08,0.69,0.153l4.109,6.453l4.109-6.453
				c0.148-0.233,0.458-0.302,0.69-0.153c0.232,0.148,0.3,0.459,0.153,0.69l-4.531,7.115c-0.092,0.144-0.251,0.231-0.422,0.231
				s-0.33-0.087-0.422-0.231l-4.531-7.115c-0.053-0.083-0.078-0.176-0.078-0.268C148.154,625.033,148.236,624.871,148.385,624.775z"
				/>
		</g>
	</g>
	<g>
		<line fill="none" stroke="#848484" stroke-miterlimit="10" x1="266.185" y1="737.145" x2="266.185" y2="825.943"/>
		<g>
			<path fill="#848484" d="M261.385,819.109c0.232-0.148,0.542-0.08,0.69,0.153l4.109,6.453l4.109-6.453
				c0.148-0.233,0.458-0.302,0.69-0.153c0.232,0.148,0.3,0.459,0.153,0.69l-4.531,7.115c-0.092,0.144-0.251,0.231-0.422,0.231
				s-0.33-0.087-0.422-0.231l-4.531-7.115c-0.053-0.083-0.078-0.176-0.078-0.268C261.154,819.366,261.236,819.204,261.385,819.109z"
				/>
		</g>
	</g>
	<g>
		<line fill="none" stroke="#848484" stroke-miterlimit="10" x1="305.852" y1="770.145" x2="305.852" y2="828.943"/>
		<g>
			<path fill="#848484" d="M301.052,822.109c0.232-0.148,0.542-0.08,0.69,0.153l4.109,6.453l4.109-6.453
				c0.148-0.233,0.458-0.302,0.69-0.153s0.3,0.459,0.153,0.69l-4.531,7.115c-0.092,0.144-0.251,0.231-0.422,0.231
				s-0.33-0.087-0.422-0.231l-4.531-7.115c-0.053-0.083-0.078-0.176-0.078-0.268C300.82,822.366,300.902,822.204,301.052,822.109z"
				/>
		</g>
	</g>
</g>
<style>
#g-committee-donations-done-desktop-img rect, #g-committee-donations-done-desktop-img circle, #g-committee-donations-done-desktop-img path, #g-committee-donations-done-desktop-img line, #g-committee-donations-done-desktop-img polyline { vector-effect: non-scaling-stroke; }
</style>
</svg>

