<?xml version="1.0" encoding="utf-8"?>
<!-- Generator: Adobe Illustrator 22.1.0, SVG Export Plug-In . SVG Version: 6.00 Build 0)  -->
<svg version="1.2" baseProfile="tiny" id="g-committee-donations-done-mobile-img" xmlns="http://www.w3.org/2000/svg" xmlns:xlink="http://www.w3.org/1999/xlink"
	 x="0px" y="0px" viewBox="0 0 300 1325.481" xml:space="preserve">
<g>
	<g>
		
			<line fill="none" stroke="#D9D9D9" stroke-width="0.75" stroke-miterlimit="10" x1="288.846" y1="355.654" x2="62.784" y2="355.654"/>
		
			<line fill="none" stroke="#D9D9D9" stroke-width="0.75" stroke-miterlimit="10" x1="288.846" y1="557.848" x2="62.784" y2="557.848"/>
		
			<line fill="none" stroke="#D9D9D9" stroke-width="0.75" stroke-miterlimit="10" x1="288.846" y1="507.299" x2="62.784" y2="507.299"/>
		
			<line fill="none" stroke="#D9D9D9" stroke-width="0.75" stroke-miterlimit="10" x1="288.846" y1="456.751" x2="62.784" y2="456.751"/>
		
			<line fill="none" stroke="#D9D9D9" stroke-width="0.75" stroke-miterlimit="10" x1="288.846" y1="406.203" x2="62.784" y2="406.203"/>
		<rect x="67.381" y="354.712" fill="#303B75" width="7.795" height="253.684"/>
		<rect x="82.643" y="439.293" fill="#4AA3BA" width="7.796" height="169.104"/>
		<rect x="97.906" y="479.583" fill="#4AA3BA" width="7.795" height="128.813"/>
		<rect x="113.168" y="487.708" fill="#4AA3BA" width="7.795" height="120.688"/>
		<rect x="128.43" y="573.143" fill="#D33C31" width="7.795" height="35.253"/>
		<rect x="143.692" y="576.125" fill="#4AA3BA" width="7.795" height="32.271"/>
		<rect x="158.954" y="577.025" fill="#4AA3BA" width="7.795" height="31.371"/>
		<rect x="174.216" y="590.729" fill="#A7D846" width="7.795" height="17.667"/>
		<rect x="189.477" y="595.607" fill="#4AA3BA" width="7.796" height="12.789"/>
		
		<rect x="204.74" y="598.001" fill="#A7D846" width="7.795" height="10.395"/>
		<rect x="220.003" y="598.428" fill="#FFBB33" width="7.795" height="9.968"/>
		<rect x="235.264" y="598.827" fill="#A7D846" width="7.795" height="9.569"/>
		<rect x="250.527" y="599.777" fill="#A7D846" width="7.795" height="8.619"/>
		<rect x="265.788" y="600.043" fill="#A7D846" width="7.795" height="8.354"/>
		<rect x="281.051" y="600.245" fill="#A7D846" width="7.795" height="8.151"/>
	</g>
	
		<line fill="none" stroke="#D9D9D9" stroke-width="0.75" stroke-miterlimit="10" x1="287.71" y1="1049.508" x2="62.784" y2="1049.508"/>
	
		<line fill="none" stroke="#D9D9D9" stroke-width="0.75" stroke-miterlimit="10" x1="287.71" y1="1015.398" x2="62.784" y2="1015.398"/>
	
		<line fill="none" stroke="#D9D9D9" stroke-width="0.75" stroke-miterlimit="10" x1="287.71" y1="981.288" x2="62.784" y2="981.288"/>
	
		<line fill="none" stroke="#D9D9D9" stroke-width="0.75" stroke-miterlimit="10" x1="288.99" y1="947.176" x2="62.784" y2="947.176"/>
	
		<line fill="none" stroke="#D9D9D9" stroke-width="0.75" stroke-miterlimit="10" x1="287.71" y1="913.066" x2="62.784" y2="913.066"/>
	
		<line fill="none" stroke="#D9D9D9" stroke-width="0.75" stroke-miterlimit="10" x1="287.71" y1="878.956" x2="62.784" y2="878.956"/>
	
		<line fill="none" stroke="#D9D9D9" stroke-width="0.75" stroke-miterlimit="10" x1="287.854" y1="844.845" x2="62.928" y2="844.845"/>
	<rect x="190.212" y="1070.3" fill="#FFBB33" width="7.953" height="13.318"/>
	<rect x="84.249" y="974.008" fill="#303B75" width="7.952" height="109.61"/>
	<rect x="250.762" y="1078.485" fill="#4AA3BA" width="7.953" height="5.134"/>
	<rect x="159.936" y="1066.563" fill="#303B75" width="7.953" height="17.056"/>
	
	<rect x="69.111" y="829.78" fill="#4AA3BA" width="7.952" height="253.839"/>
	<rect x="129.661" y="1060.704" fill="#4AA3BA" width="7.953" height="22.915"/>
	<rect x="175.073" y="1069.768" fill="#4AA3BA" width="7.953" height="13.851"/>
	<rect x="220.487" y="1077.034" fill="#4AA3BA" width="7.953" height="6.585"/>
	<rect x="235.625" y="1077.888" fill="#4AA3BA" width="7.953" height="5.73"/>
	<rect x="265.9" y="1078.519" fill="#A7D846" width="7.953" height="5.1"/>
	<rect x="99.385" y="1024.949" fill="#A7D846" width="7.953" height="58.67"/>
	
	<rect x="114.523" y="1059.412" fill="#DA5C53" width="7.953" height="24.207"/>
	<rect x="144.798" y="1062.17" fill="#DA5C53" width="7.953" height="21.448"/>
	<rect x="205.35" y="1076.188" fill="#DA5C53" width="7.953" height="7.431"/>
	<rect x="281.037" y="1078.616" fill="#DA5C53" width="7.953" height="5.003"/>
	<path style="opacity:0.3;" fill="#D9D9D9" d="M271.27,285.494H25.93c-5.54,0-10.073-4.533-10.073-10.073V58.682
		c0-5.54,4.533-10.073,10.073-10.073h245.34c5.54,0,10.073,4.533,10.073,10.073v216.738
		C281.343,280.961,276.81,285.494,271.27,285.494z"/>
	<g>
		<rect x="132.956" y="372.527" fill="#FFFFFF" width="149.866" height="77.696"/>
		<rect x="141.496" y="431.681" fill="#FFBB33" width="13.851" height="8.393"/>
		<rect x="141.496" y="380.257" fill="#303B75" width="13.851" height="8.393"/>
		<rect x="141.496" y="393.113" fill="#4AA3BA" width="13.851" height="8.392"/>
		<rect x="141.496" y="405.969" fill="#A7D846" width="13.851" height="8.393"/>
		<rect x="141.496" y="418.825" fill="#DA5C53" width="13.851" height="8.393"/>
	</g>
	<g>
		<rect x="134.956" y="856.163" fill="#FFFFFF" width="149.866" height="77.696"/>
		<rect x="143.498" y="915.317" fill="#FFBB33" width="13.85" height="8.393"/>
		<rect x="143.497" y="863.893" fill="#303B75" width="13.851" height="8.393"/>
		<rect x="143.498" y="876.75" fill="#4AA3BA" width="13.851" height="8.393"/>
		<rect x="143.498" y="889.605" fill="#A7D846" width="13.85" height="8.393"/>
		<rect x="143.498" y="902.46" fill="#DA5C53" width="13.85" height="8.393"/>
	</g>
</g>
<style>
#g-committee-donations-done-mobile-img rect, #g-committee-donations-done-mobile-img circle, #g-committee-donations-done-mobile-img path, #g-committee-donations-done-mobile-img line, #g-committee-donations-done-mobile-img polyline { vector-effect: non-scaling-stroke; }
</style>
</svg>

