<?xml version="1.0" encoding="utf-8"?>
<!-- Generator: Adobe Illustrator 22.1.0, SVG Export Plug-In . SVG Version: 6.00 Build 0)  -->
<svg version="1.2" baseProfile="tiny" id="g-committee-donations-done-tablet-img" xmlns="http://www.w3.org/2000/svg" xmlns:xlink="http://www.w3.org/1999/xlink"
	 x="0px" y="0px" viewBox="0 0 600 2175.496" xml:space="preserve">
<g>
	<g>
		<g>
			
				<line fill="none" stroke="#D9D9D9" stroke-width="0.75" stroke-miterlimit="10" x1="585.534" y1="1814.861" x2="65.408" y2="1814.861"/>
			
				<line fill="none" stroke="#D9D9D9" stroke-width="0.75" stroke-miterlimit="10" x1="585.534" y1="1715.314" x2="65.408" y2="1715.314"/>
			
				<line fill="none" stroke="#D9D9D9" stroke-width="0.75" stroke-miterlimit="10" x1="585.534" y1="1615.764" x2="65.408" y2="1615.764"/>
			
				<line fill="none" stroke="#D9D9D9" stroke-width="0.75" stroke-miterlimit="10" x1="588.493" y1="1516.217" x2="65.408" y2="1516.217"/>
			
				<line fill="none" stroke="#D9D9D9" stroke-width="0.75" stroke-miterlimit="10" x1="585.534" y1="1416.669" x2="65.408" y2="1416.669"/>
			
				<line fill="none" stroke="#D9D9D9" stroke-width="0.75" stroke-miterlimit="10" x1="585.534" y1="1317.122" x2="65.408" y2="1317.122"/>
			
				<line fill="none" stroke="#D9D9D9" stroke-width="0.75" stroke-miterlimit="10" x1="585.866" y1="1217.574" x2="65.74" y2="1217.574"/>
			<rect x="349.876" y="1875.542" fill="#FFBB33" width="17.337" height="38.867"/>
			<rect x="107.151" y="1594.523" fill="#303B75" width="17.337" height="319.886"/>
			<rect x="488.577" y="1899.427" fill="#4AA3BA" width="17.337" height="14.982"/>
			<rect x="280.526" y="1864.635" fill="#303B75" width="17.337" height="49.774"/>
			
			<rect x="73.162" y="1173.608" fill="#4AA3BA" width="17.337" height="740.802"/>
			<rect x="211.177" y="1847.534" fill="#4AA3BA" width="17.337" height="66.875"/>
			<rect x="315.201" y="1873.988" fill="#4AA3BA" width="17.337" height="40.421"/>
			<rect x="419.228" y="1895.192" fill="#4AA3BA" width="17.337" height="19.217"/>
			<rect x="453.902" y="1897.686" fill="#4AA3BA" width="17.337" height="16.723"/>
			<rect x="523.253" y="1899.526" fill="#A7D846" width="17.337" height="14.883"/>
			<rect x="141.826" y="1743.186" fill="#A7D846" width="17.337" height="171.223"/>
			
			<rect x="176.501" y="1843.764" fill="#DA5C53" width="17.337" height="70.645"/>
			<rect x="245.852" y="1851.814" fill="#DA5C53" width="17.337" height="62.595"/>
			<rect x="384.552" y="1892.725" fill="#DA5C53" width="17.337" height="21.684"/>
			<rect x="557.928" y="1899.809" fill="#DA5C53" width="17.337" height="14.6"/>
		</g>
		
			<line fill="none" stroke="#D9D9D9" stroke-width="0.75" stroke-miterlimit="10" x1="579.977" y1="1117.018" x2="59.852" y2="1117.018"/>
	</g>
	<g>
		<g>
			
				<line fill="none" stroke="#D9D9D9" stroke-width="0.75" stroke-miterlimit="10" x1="588.493" y1="382.038" x2="60.512" y2="381.109"/>
			
				<line fill="none" stroke="#D9D9D9" stroke-width="0.75" stroke-miterlimit="10" x1="587.832" y1="779.207" x2="59.852" y2="778.278"/>
			
				<line fill="none" stroke="#D9D9D9" stroke-width="0.75" stroke-miterlimit="10" x1="587.997" y1="679.915" x2="60.017" y2="678.986"/>
			
				<line fill="none" stroke="#D9D9D9" stroke-width="0.75" stroke-miterlimit="10" x1="588.162" y1="580.623" x2="60.182" y2="579.694"/>
			
				<line fill="none" stroke="#D9D9D9" stroke-width="0.75" stroke-miterlimit="10" x1="588.327" y1="481.331" x2="60.347" y2="480.401"/>
		</g>
		
			<rect x="-174.053" y="620.527" transform="matrix(0.0017 -1 1 0.0017 -554.7321 703.3942)" fill="#303B75" width="497.94" height="17.995"/>
		
			<rect x="-55.01" y="703.782" transform="matrix(0.0017 -1 1 0.0017 -602.1938 822.3626)" fill="#4AA3BA" width="331.558" height="17.995"/>
		
			<rect x="20.208" y="743.137" transform="matrix(0.0017 -1 1 0.0017 -605.6836 897.5779)" fill="#4AA3BA" width="252.973" height="17.995"/>
		
			<rect x="64.164" y="751.179" transform="matrix(0.0017 -1 1 0.0017 -577.8077 941.5839)" fill="#4AA3BA" width="237.016" height="17.995"/>
		
			<rect x="183.907" y="835.134" transform="matrix(0.0017 -1 1 0.0017 -625.9711 1061.2504)" fill="#DA5C53" width="69.233" height="17.995"/>
		
			<rect x="222.82" y="838.125" transform="matrix(0.0017 -1 1 0.0017 -593.0359 1100.2222)" fill="#4AA3BA" width="63.377" height="17.995"/>
		
			<rect x="259.695" y="839.073" transform="matrix(0.0017 -1 1 0.0017 -558.0546 1137.158)" fill="#4AA3BA" width="61.608" height="17.995"/>
		
			<rect x="309.119" y="852.593" transform="matrix(0.0017 -1 1 0.0017 -535.6657 1186.6234)" fill="#A7D846" width="34.695" height="17.995"/>
		
			<rect x="349.892" y="857.446" transform="matrix(0.0017 -1 1 0.0017 -504.5959 1227.4513)" fill="#4AA3BA" width="25.116" height="17.995"/>
		
			<rect x="388.23" y="859.861" transform="matrix(0.0017 -1 1 0.0017 -471.0839 1265.849)" fill="#A7D846" width="20.412" height="17.995"/>
		
			<rect x="424.64" y="860.343" transform="matrix(0.0017 -1 1 0.0017 -435.636 1302.3207)" fill="#FFBB33" width="19.574" height="17.995"/>
		
			<rect x="461.021" y="860.798" transform="matrix(0.0017 -1 1 0.0017 -400.1602 1338.7645)" fill="#A7D846" width="18.792" height="17.995"/>
		
			<rect x="497.943" y="861.794" transform="matrix(0.0017 -1 1 0.0017 -365.2273 1375.7485)" fill="#A7D846" width="16.926" height="17.995"/>
		
			<rect x="534.194" y="862.118" transform="matrix(0.0017 -1 1 0.0017 -329.6208 1412.0623)" fill="#A7D846" width="16.405" height="17.995"/>
		
			<rect x="570.383" y="862.38" transform="matrix(0.0017 -1 1 0.0017 -293.9521 1448.3141)" fill="#A7D846" width="16.007" height="17.995"/>
	</g>
	
	<g>
		<rect x="289.373" y="417.377" fill="#FFFFFF" width="254.533" height="121.853"/>
		<rect x="302.769" y="510.15" fill="#FFBB33" width="21.722" height="13.162"/>
		<rect x="302.769" y="429.502" fill="#303B75" width="21.722" height="13.162"/>
		<rect x="302.769" y="449.664" fill="#4AA3BA" width="21.722" height="13.162"/>
		<rect x="302.769" y="469.826" fill="#A7D846" width="21.722" height="13.162"/>
		<rect x="302.769" y="489.988" fill="#DA5C53" width="21.722" height="13.162"/>
	</g>
	<g>
		<rect x="297.963" y="1179.821" fill="#FFFFFF" width="270.104" height="121.853"/>
		<rect x="311.359" y="1272.594" fill="#FFBB33" width="21.722" height="13.162"/>
		<rect x="311.359" y="1191.946" fill="#303B75" width="21.722" height="13.162"/>
		<rect x="311.359" y="1212.108" fill="#4AA3BA" width="21.722" height="13.162"/>
		<rect x="311.359" y="1232.27" fill="#A7D846" width="21.722" height="13.162"/>
		<rect x="311.359" y="1252.432" fill="#DA5C53" width="21.722" height="13.162"/>
	</g>
	<g>
		<line fill="none" stroke="#848484" stroke-miterlimit="10" x1="151.852" y1="1662.496" x2="151.852" y2="1721.294"/>
		<g>
			<path fill="#848484" d="M147.052,1714.459c0.232-0.148,0.542-0.08,0.69,0.153l4.109,6.453l4.109-6.453
				c0.148-0.233,0.458-0.302,0.69-0.153s0.3,0.459,0.153,0.69l-4.531,7.115c-0.092,0.144-0.251,0.231-0.422,0.231
				s-0.33-0.087-0.422-0.231l-4.531-7.115c-0.053-0.083-0.078-0.176-0.078-0.268C146.82,1714.717,146.902,1714.555,147.052,1714.459
				z"/>
		</g>
	</g>
	<g>
		<line fill="none" stroke="#848484" stroke-miterlimit="10" x1="496.852" y1="1861.496" x2="496.852" y2="1890.294"/>
		<g>
			<path fill="#848484" d="M492.052,1883.459c0.232-0.148,0.542-0.08,0.69,0.153l4.109,6.453l4.109-6.453
				c0.148-0.233,0.458-0.302,0.69-0.153s0.3,0.459,0.153,0.69l-4.531,7.115c-0.092,0.144-0.251,0.231-0.422,0.231
				s-0.33-0.087-0.422-0.231l-4.531-7.115c-0.053-0.083-0.078-0.176-0.078-0.268C491.82,1883.717,491.902,1883.555,492.052,1883.459
				z"/>
		</g>
	</g>
	<g>
		<line fill="none" stroke="#848484" stroke-miterlimit="10" x1="428.852" y1="1814.496" x2="428.852" y2="1883.294"/>
		<g>
			<path fill="#848484" d="M424.052,1876.459c0.232-0.148,0.542-0.08,0.69,0.153l4.109,6.453l4.109-6.453
				c0.148-0.233,0.458-0.302,0.69-0.153s0.3,0.459,0.153,0.69l-4.531,7.115c-0.092,0.144-0.251,0.231-0.422,0.231
				s-0.33-0.087-0.422-0.231l-4.531-7.115c-0.053-0.083-0.078-0.176-0.078-0.268C423.82,1876.717,423.902,1876.555,424.052,1876.459
				z"/>
		</g>
	</g>
	<g>
		<line fill="none" stroke="#848484" stroke-miterlimit="10" x1="223.185" y1="1698.496" x2="223.185" y2="1837.294"/>
		<g>
			<path fill="#848484" d="M218.385,1830.459c0.232-0.148,0.542-0.08,0.69,0.153l4.109,6.453l4.109-6.453
				c0.148-0.233,0.458-0.302,0.69-0.153s0.3,0.459,0.153,0.69l-4.531,7.115c-0.092,0.144-0.251,0.231-0.422,0.231
				s-0.33-0.087-0.422-0.231l-4.531-7.115c-0.053-0.083-0.078-0.176-0.078-0.268
				C218.154,1830.717,218.236,1830.555,218.385,1830.459z"/>
		</g>
	</g>
	<g>
		<line fill="none" stroke="#848484" stroke-miterlimit="10" x1="321.852" y1="1754.496" x2="321.852" y2="1863.294"/>
		<g>
			<path fill="#848484" d="M317.052,1856.459c0.232-0.148,0.542-0.08,0.69,0.153l4.109,6.453l4.109-6.453
				c0.148-0.233,0.458-0.302,0.69-0.153s0.3,0.459,0.153,0.69l-4.531,7.115c-0.092,0.144-0.251,0.231-0.422,0.231
				s-0.33-0.087-0.422-0.231l-4.531-7.115c-0.053-0.083-0.078-0.176-0.078-0.268C316.82,1856.717,316.902,1856.555,317.052,1856.459
				z"/>
		</g>
	</g>
	<g>
		<line fill="none" stroke="#848484" stroke-miterlimit="10" x1="255.185" y1="710.308" x2="255.185" y2="799.106"/>
		<g>
			<path fill="#848484" d="M250.385,792.271c0.232-0.148,0.542-0.08,0.69,0.153l4.109,6.453l4.109-6.453
				c0.148-0.233,0.458-0.302,0.69-0.153s0.3,0.459,0.153,0.69l-4.531,7.115c-0.092,0.144-0.251,0.231-0.422,0.231
				s-0.33-0.087-0.422-0.231l-4.531-7.115c-0.053-0.083-0.078-0.176-0.078-0.268C250.154,792.529,250.236,792.367,250.385,792.271z"
				/>
		</g>
	</g>
	<g>
		<line fill="none" stroke="#848484" stroke-miterlimit="10" x1="147.185" y1="597.974" x2="147.185" y2="616.772"/>
		<g>
			<path fill="#848484" d="M142.385,609.938c0.232-0.148,0.542-0.08,0.69,0.153l4.109,6.453l4.109-6.453
				c0.148-0.233,0.458-0.302,0.69-0.153s0.3,0.459,0.153,0.69l-4.531,7.115c-0.092,0.144-0.251,0.231-0.422,0.231
				s-0.33-0.087-0.422-0.231l-4.531-7.115c-0.053-0.083-0.078-0.176-0.078-0.268C142.154,610.195,142.236,610.034,142.385,609.938z"
				/>
		</g>
	</g>
	<g>
		<line fill="none" stroke="#848484" stroke-miterlimit="10" x1="290.852" y1="747.308" x2="290.852" y2="806.106"/>
		<g>
			<path fill="#848484" d="M286.052,799.271c0.232-0.148,0.542-0.08,0.69,0.153l4.109,6.453l4.109-6.453
				c0.148-0.233,0.458-0.302,0.69-0.153s0.3,0.459,0.153,0.69l-4.531,7.115c-0.092,0.144-0.251,0.231-0.422,0.231
				s-0.33-0.087-0.422-0.231l-4.531-7.115c-0.053-0.083-0.078-0.176-0.078-0.268C285.82,799.529,285.902,799.367,286.052,799.271z"
				/>
		</g>
	</g>
	<path style="opacity:0.3;" fill="#D9D9D9" d="M525.927,282.106H65.409c-7.413,0-13.479-6.066-13.479-13.479V64.596
		c0-7.413,6.066-13.479,13.479-13.479h460.518c7.413,0,13.479,6.066,13.479,13.479v204.031
		C539.406,276.04,533.34,282.106,525.927,282.106z"/>
</g>
<style>
#g-committee-donations-done-tablet-img rect, #g-committee-donations-done-tablet-img circle, #g-committee-donations-done-tablet-img path, #g-committee-donations-done-tablet-img line, #g-committee-donations-done-tablet-img polyline { vector-effect: non-scaling-stroke; }
</style>
</svg>

