<?xml version="1.0" encoding="utf-8"?>
<!-- Generator: Adobe Illustrator 22.1.0, SVG Export Plug-In . SVG Version: 6.00 Build 0)  -->
<svg version="1.2" baseProfile="tiny" id="g-occupations-done-tablet-img" xmlns="http://www.w3.org/2000/svg" xmlns:xlink="http://www.w3.org/1999/xlink"
	 x="0px" y="0px" viewBox="0 0 600 1762" xml:space="preserve">
<g>
	<polygon style="opacity:0.5;" fill="#777777" points="278.969,138.467 274.08,130 283.857,130 	"/>
	<g>
		
		
	</g>
	<g>
		<path fill="#92AEF4" d="M126.031,375.4c16.262,0,31.862-6.314,43.361-17.554c11.501-11.237,17.961-26.482,17.961-42.376
			c0-15.893-6.46-31.138-17.961-42.378c-11.499-11.238-27.099-17.553-43.361-17.553c-16.264,0-31.862,6.314-43.361,17.553
			c-11.501,11.24-17.963,26.485-17.963,42.378c0,15.895,6.462,31.139,17.963,42.376C94.169,369.086,109.767,375.4,126.031,375.4"/>
	</g>
	<g>
		<path fill="#92AEF4" d="M126.031,827.128c20.149,0,39.476-7.824,53.725-21.748c14.248-13.924,22.253-32.813,22.253-52.505
			c0-19.693-8.005-38.58-22.253-52.505c-14.249-13.924-33.576-21.748-53.725-21.748c-20.149,0-39.477,7.824-53.725,21.748
			c-14.249,13.926-22.254,32.813-22.254,52.505c0,19.693,8.005,38.581,22.254,52.505
			C86.554,819.304,105.882,827.128,126.031,827.128"/>
	</g>
	<path fill="#92AEF4" d="M125.831,154.462c7.842,0,15.362-3.044,20.907-8.462c5.544-5.419,8.659-12.769,8.659-20.433
		c0-7.662-3.115-15.011-8.659-20.43c-5.544-5.419-13.065-8.463-20.907-8.463c-7.841,0-15.361,3.044-20.907,8.463
		c-5.544,5.419-8.659,12.769-8.659,20.43c0,7.665,3.115,15.014,8.659,20.433C110.47,151.418,117.99,154.462,125.831,154.462"/>
	<g>
		<path fill="#92AEF4" d="M126.03,1204.153c24.982,0,48.944-9.699,66.609-26.964c17.666-17.264,27.591-40.681,27.591-65.097
			c0-24.415-9.925-47.833-27.591-65.097c-17.665-17.263-41.627-26.964-66.609-26.964s-48.944,9.701-66.609,26.964
			c-17.665,17.264-27.59,40.682-27.59,65.097c0,24.416,9.925,47.833,27.59,65.097C77.086,1194.454,101.048,1204.153,126.03,1204.153
			"/>
	</g>
	<g>
		<path fill="#92AEF4" d="M126.031,1007.354c23.025,0,45.109-8.941,61.391-24.852s25.428-37.494,25.428-59.996
			c0-22.502-9.147-44.085-25.428-59.996c-16.282-15.911-38.366-24.85-61.391-24.85c-23.025,0-45.109,8.939-61.391,24.85
			c-16.282,15.911-25.428,37.494-25.428,59.996c0,22.502,9.147,44.085,25.428,59.996S103.005,1007.354,126.031,1007.354"/>
	</g>
	<g>
		<g>
			<path fill="#92AEF4" d="M126.031,668.529c19.116,0,37.451-7.422,50.968-20.631c13.517-13.21,21.113-31.131,21.113-49.811
				c0-18.683-7.596-36.602-21.113-49.811c-13.517-13.21-31.852-20.633-50.968-20.633s-37.451,7.422-50.968,20.633
				c-13.518,13.209-21.113,31.128-21.113,49.811c0,18.68,7.595,36.6,21.113,49.811C88.58,661.107,106.914,668.529,126.031,668.529"
				/>
			<g display="none">
				
					<text transform="matrix(0.9968 0 0 1 92.74 592.6437)" display="inline" fill="#FFFFFF" font-family="'Roboto-Medium'" font-size="19.2825px">Medical</text>
				
					<text transform="matrix(0.9968 0 0 1 92.74 615.7829)" display="inline" fill="#FFFFFF" font-family="'Roboto-Medium'" font-size="19.2825px">&amp; health</text>
			</g>
		</g>
	</g>
	<g>
		<g>
			<path fill="#92AEF4" d="M126.03,518.787c18.12,0,35.499-7.034,48.31-19.555c12.813-12.522,20.011-29.507,20.011-47.213
				c0-17.709-7.199-34.694-20.011-47.214c-12.811-12.52-30.19-19.556-48.31-19.556c-18.118,0-35.497,7.036-48.31,19.556
				c-12.811,12.52-20.01,29.505-20.01,47.214c0,17.706,7.199,34.691,20.01,47.213C90.533,511.753,107.911,518.787,126.03,518.787"/>
			<g display="none">
				
					<text transform="matrix(0.9968 0 0 1 85.7328 446.8469)" display="inline" fill="#FFFFFF" font-family="'Roboto-Medium'" font-size="18.406px">Academia</text>
				
					<text transform="matrix(0.9968 0 0 1 85.7328 468.9343)" display="inline" fill="#FFFFFF" font-family="'Roboto-Medium'" font-size="18.406px">&amp; research</text>
			</g>
			
				<text transform="matrix(0.9968 0 0 1 113.495 422.4035)" display="none" fill="#3F5EBA" font-family="'Roboto-Regular'" font-size="15.7766px">283</text>
		</g>
	</g>
	<g>
		<path fill="#92AEF4" d="M126.031,245.581c11.142,0,21.827-4.326,29.707-12.025c7.878-7.699,12.303-18.142,12.303-29.031
			c0-10.889-4.425-21.332-12.303-29.031c-7.879-7.699-18.565-12.025-29.707-12.025c-11.141,0-21.827,4.326-29.705,12.025
			c-7.878,7.699-12.304,18.142-12.304,29.031c0,10.889,4.427,21.332,12.304,29.031C104.203,241.255,114.89,245.581,126.031,245.581"
			/>
	</g>
	<g>
		<path fill="#3F5EBA" d="M428.291,1357.593c30.842,0,60.424-11.976,82.234-33.29c21.808-21.312,34.062-50.224,34.062-80.366
			c0-30.141-12.254-59.053-34.062-80.367c-21.81-21.312-51.392-33.288-82.234-33.288c-30.842,0-60.426,11.976-82.234,33.288
			c-21.81,21.314-34.062,50.226-34.062,80.367c0,30.142,12.252,59.053,34.062,80.366
			C367.865,1345.617,397.448,1357.593,428.291,1357.593"/>
	</g>
	<g>
		<path fill="#3F5EBA" d="M428.291,1661.551c38.232,0,74.903-14.845,101.937-41.266c27.035-26.421,42.224-62.258,42.224-99.621
			s-15.189-73.202-42.224-99.623c-27.034-26.419-63.705-41.266-101.937-41.266c-38.232,0-74.903,14.846-101.937,41.266
			c-27.035,26.421-42.224,62.26-42.224,99.623s15.189,73.201,42.224,99.621C353.387,1646.706,390.058,1661.551,428.291,1661.551"/>
	</g>
	<g>
		<path fill="#3F5EBA" d="M428.146,189.26c12.562,0,24.613-4.878,33.496-13.558c8.881-8.682,13.874-20.457,13.874-32.735
			c0-12.276-4.993-24.053-13.874-32.735c-8.883-8.681-20.934-13.558-33.496-13.558c-12.562,0-24.612,4.878-33.494,13.558
			c-8.883,8.682-13.874,20.459-13.874,32.735c0,12.278,4.991,24.053,13.874,32.735C403.534,184.382,415.583,189.26,428.146,189.26"
			/>
	</g>
	<g>
		<g>
			<path fill="#3F5EBA" d="M428.291,687.387c26.475,0,51.869-10.279,70.589-28.576c18.72-18.295,29.238-43.112,29.238-68.986
				c0-25.873-10.518-50.69-29.238-68.986c-18.72-18.295-44.114-28.574-70.589-28.574c-26.475,0-51.869,10.279-70.589,28.574
				c-18.72,18.296-29.24,43.112-29.24,68.986c0,25.873,10.519,50.691,29.24,68.986C376.422,677.108,401.816,687.387,428.291,687.387
				"/>
			<g display="none">
				
					<text transform="matrix(0.9968 0 0 1 376.4004 581.1665)" display="inline" fill="#FFFFFF" font-family="'Roboto-Medium'" font-size="29.743px">Medical</text>
				
					<text transform="matrix(0.9968 0 0 1 376.4004 616.8579)" display="inline" fill="#FFFFFF" font-family="'Roboto-Medium'" font-size="29.743px">&amp; health</text>
			</g>
			
				<text transform="matrix(0.9968 0 0 1 410.1543 538.5718)" display="none" fill="#B6C5F0" font-family="'Roboto-Regular'" font-size="22.3073px">644</text>
		</g>
	</g>
	<g>
		<g>
			<path fill="#3F5EBA" d="M428.291,1114.407c27.004,0,52.905-10.486,71.999-29.147c19.095-18.659,29.825-43.974,29.825-70.365
				c0-26.391-10.73-51.704-29.825-70.364c-19.094-18.661-44.995-29.147-71.999-29.147c-27.004,0-52.905,10.486-72.001,29.147
				c-19.094,18.661-29.824,43.974-29.824,70.364c0,26.391,10.73,51.705,29.824,70.365
				C375.385,1103.921,401.286,1114.407,428.291,1114.407"/>
			<g display="none">
				
					<text transform="matrix(0.9968 0 0 1 369.2322 1007.1527)" display="inline" fill="#FFFFFF" font-family="'Roboto-Medium'" font-size="26.7687px">Academia</text>
				
					<text transform="matrix(0.9968 0 0 1 369.2322 1039.2748)" display="inline" fill="#FFFFFF" font-family="'Roboto-Medium'" font-size="26.7687px">&amp; research</text>
			</g>
		</g>
	</g>
	<g>
		<path fill="#3F5EBA" d="M428.291,480.38c18.952,0,37.129-7.358,50.53-20.456c13.4-13.097,20.931-30.861,20.931-49.382
			c0-18.521-7.531-36.286-20.931-49.384c-13.401-13.096-31.579-20.454-50.53-20.454c-18.952,0-37.129,7.358-50.53,20.454
			c-13.4,13.097-20.931,30.863-20.931,49.384c0,18.521,7.531,36.285,20.931,49.382C391.161,473.022,409.339,480.38,428.291,480.38"
			/>
	</g>
	<path fill="#3F5EBA" d="M428.291,899.547c26.761,0,52.429-10.391,71.351-28.885c18.923-18.493,29.555-43.579,29.555-69.731
		c0-26.153-10.632-51.24-29.555-69.732c-18.922-18.493-44.59-28.883-71.351-28.883c-26.761,0-52.43,10.391-71.353,28.883
		c-18.922,18.493-29.554,43.579-29.554,69.732c0,26.152,10.632,51.238,29.554,69.731
		C375.861,889.156,401.529,899.547,428.291,899.547"/>
	<g>
		<path fill="#3F5EBA" d="M428.29,332.432c18.16,0,35.579-7.051,48.419-19.601c12.841-12.549,20.056-29.572,20.056-47.32
			c0-17.748-7.215-34.77-20.056-47.318c-12.841-12.55-30.26-19.602-48.419-19.602c-18.16,0-35.579,7.052-48.42,19.602
			c-12.841,12.549-20.054,29.57-20.054,47.318c0,17.748,7.214,34.771,20.054,47.32C392.711,325.382,410.13,332.432,428.29,332.432"
			/>
	</g>
</g>
<style>
#g-occupations-done-tablet-img rect, #g-occupations-done-tablet-img circle, #g-occupations-done-tablet-img path, #g-occupations-done-tablet-img line, #g-occupations-done-tablet-img polyline { vector-effect: non-scaling-stroke; }
</style>
</svg>

