<?xml version="1.0" encoding="utf-8"?>
<!-- Generator: Adobe Illustrator 22.1.0, SVG Export Plug-In . SVG Version: 6.00 Build 0)  -->
<svg version="1.2" baseProfile="tiny" id="g-occupations-done-desktop-img" xmlns="http://www.w3.org/2000/svg" xmlns:xlink="http://www.w3.org/1999/xlink"
	 x="0px" y="0px" viewBox="0 0 1200 1400" xml:space="preserve">
<g>
	
		<line style="opacity:0.7;" fill="none" stroke="#777777" stroke-miterlimit="10" x1="70.045" y1="891.617" x2="993.745" y2="301.305"/>
	<path style="opacity:0.5;" fill="none" stroke="#92AEF4" stroke-width="14" stroke-miterlimit="10" d="M578.846,456.754
		c0,71.809-58.023,130.017-129.605,130.017c-54.143,0-100.536-33.317-119.915-80.627c-20.934,28.125-54.37,46.338-92.054,46.338
		c-63.395,0-114.787-51.554-114.787-115.143c0-4.392,0.245-8.73,0.726-12.998c-47.294-12.244-82.216-55.315-82.216-106.571
		c0-35.445,16.706-66.971,42.645-87.104c-3.494-9.238-5.408-19.257-5.408-29.722c0-46.311,37.429-83.852,83.595-83.852
		c3.513,0,6.982,0.219,10.38,0.64c16.688-35.875,52.965-60.74,95.042-60.74c31.88,0,60.433,14.269,79.663,36.795
		c20.899-32.921,57.594-54.754,99.374-54.754c65.012,0,117.715,52.87,117.715,118.089c0,31.858-12.574,60.765-33.01,82.001
		c20.978,13.068,34.94,36.383,34.94,62.966c0,24.015-11.393,45.358-29.041,58.891C562.683,384.75,578.846,418.855,578.846,456.754z"
		/>
	<path style="opacity:0.5;" fill="none" stroke="#3F5EBA" stroke-width="17" stroke-miterlimit="10" d="M1160.562,1148.674
		c0,114.183-92.261,206.739-206.071,206.739c-82.996,0-154.53-49.213-187.177-120.139c-29.257,27.936-68.831,45.074-112.387,45.074
		c-90.029,0-163.022-73.226-163.022-163.542c0-3.474,0.108-6.911,0.314-10.324c-69.869-15.759-122.049-78.382-122.049-153.229
		c0-50.761,24.008-95.906,61.253-124.604c-6.962-15.807-10.81-33.297-10.81-51.693c0-70.891,57.296-128.369,127.975-128.369
		c10.871,0,21.427,1.356,31.514,3.933c27.52-49.538,80.268-83.041,140.811-83.041c72.62,0,134.019,48.196,154.131,114.45
		c16.626-7.723,35.158-12.019,54.678-12.019c72.053,0,130.471,58.594,130.471,130.887c0,18.723-3.921,36.527-10.991,52.636
		c35.037,17.865,59.035,54.369,59.035,96.488c0,17.102-3.958,33.285-11.016,47.665
		C1136.263,1037.19,1160.562,1090.084,1160.562,1148.674z"/>
	<g>
		<path fill="#92AEF4" d="M267.252,220.65c16.262,0,31.862-6.314,43.361-17.554c11.501-11.237,17.961-26.482,17.961-42.376
			c0-15.893-6.46-31.138-17.961-42.378c-11.499-11.238-27.099-17.553-43.361-17.553c-16.264,0-31.862,6.314-43.361,17.553
			c-11.501,11.24-17.963,26.485-17.963,42.378c0,15.895,6.462,31.139,17.963,42.376C235.39,214.335,250.988,220.65,267.252,220.65"
			/>
	</g>
	<g>
		<path fill="#92AEF4" d="M444.582,231.378c20.149,0,39.476-7.824,53.725-21.748c14.248-13.924,22.253-32.812,22.253-52.505
			s-8.005-38.58-22.253-52.505c-14.249-13.924-33.576-21.748-53.725-21.748c-20.149,0-39.477,7.824-53.725,21.748
			c-14.249,13.926-22.254,32.812-22.254,52.505s8.005,38.581,22.254,52.505C405.105,223.554,424.433,231.378,444.582,231.378"/>
	</g>
	<g>
		<path fill="#92AEF4" d="M492.949,330.538c7.842,0,15.362-3.044,20.907-8.462c5.544-5.419,8.659-12.769,8.659-20.433
			c0-7.662-3.115-15.011-8.659-20.43c-5.544-5.419-13.065-8.463-20.907-8.463c-7.841,0-15.361,3.044-20.907,8.463
			c-5.544,5.419-8.659,12.769-8.659,20.43c0,7.665,3.115,15.014,8.659,20.433C477.588,327.493,485.109,330.538,492.949,330.538"/>
	</g>
	<g>
		<path fill="#92AEF4" d="M345.3,394.153c24.982,0,48.944-9.699,66.609-26.963c17.666-17.264,27.591-40.681,27.591-65.097
			c0-24.415-9.925-47.833-27.591-65.097c-17.665-17.263-41.627-26.964-66.609-26.964s-48.944,9.701-66.609,26.964
			c-17.665,17.264-27.59,40.683-27.59,65.097c0,24.416,9.925,47.833,27.59,65.097S320.318,394.153,345.3,394.153"/>
	</g>
	<g>
		<path fill="#92AEF4" d="M449.244,541.604c23.025,0,45.109-8.941,61.391-24.852c16.282-15.911,25.428-37.494,25.428-59.996
			c0-22.502-9.147-44.085-25.428-59.996c-16.282-15.911-38.366-24.85-61.391-24.85c-23.025,0-45.109,8.939-61.391,24.85
			s-25.428,37.494-25.428,59.996c0,22.502,9.147,44.085,25.428,59.996S426.219,541.604,449.244,541.604"/>
	</g>
	<g>
		<g>
			<path fill="#92AEF4" d="M237.885,507.779c19.116,0,37.451-7.422,50.968-20.631c13.517-13.21,21.113-31.131,21.113-49.811
				c0-18.683-7.596-36.602-21.113-49.811c-13.517-13.21-31.852-20.633-50.968-20.633c-19.116,0-37.451,7.422-50.968,20.633
				c-13.518,13.209-21.113,31.128-21.113,49.811c0,18.68,7.595,36.6,21.113,49.811C200.435,500.356,218.769,507.779,237.885,507.779
				"/>
			<g display="none">
				
					<text transform="matrix(0.9968 0 0 1 204.595 431.8935)" display="inline" fill="#FFFFFF" font-family="'Roboto-Medium'" font-size="19.2825px">Medical</text>
				
					<text transform="matrix(0.9968 0 0 1 204.595 455.0326)" display="inline" fill="#FFFFFF" font-family="'Roboto-Medium'" font-size="19.2825px">&amp; health</text>
			</g>
		</g>
	</g>
	<g>
		<g>
			<path fill="#92AEF4" d="M153.429,384.537c18.12,0,35.499-7.034,48.31-19.555c12.813-12.522,20.011-29.507,20.011-47.213
				c0-17.709-7.199-34.694-20.011-47.214c-12.811-12.52-30.19-19.556-48.31-19.556c-18.118,0-35.497,7.036-48.31,19.556
				c-12.811,12.52-20.01,29.505-20.01,47.214c0,17.706,7.199,34.691,20.01,47.213C117.932,377.503,135.311,384.537,153.429,384.537"
				/>
			<g display="none">
				
					<text transform="matrix(0.9968 0 0 1 113.1321 312.5966)" display="inline" fill="#FFFFFF" font-family="'Roboto-Medium'" font-size="18.406px">Academia</text>
				
					<text transform="matrix(0.9968 0 0 1 113.1321 334.684)" display="inline" fill="#FFFFFF" font-family="'Roboto-Medium'" font-size="18.406px">&amp; research</text>
			</g>
			
				<text transform="matrix(0.9968 0 0 1 140.8943 288.1532)" display="none" fill="#3F5EBA" font-family="'Roboto-Regular'" font-size="15.7766px">283</text>
		</g>
	</g>
	<g>
		<path fill="#92AEF4" d="M163.169,243.831c11.142,0,21.827-4.326,29.707-12.025c7.878-7.699,12.303-18.142,12.303-29.031
			c0-10.889-4.425-21.332-12.303-29.031c-7.879-7.699-18.565-12.025-29.707-12.025c-11.141,0-21.827,4.326-29.705,12.025
			c-7.878,7.699-12.304,18.142-12.304,29.031c0,10.889,4.427,21.332,12.304,29.031C141.341,239.505,152.028,243.831,163.169,243.831
			"/>
	</g>
	<g>
		<path fill="#3F5EBA" d="M790.062,1055.601c30.842,0,60.424-11.976,82.234-33.29c21.808-21.312,34.062-50.224,34.062-80.366
			s-12.254-59.053-34.062-80.367c-21.81-21.312-51.392-33.288-82.234-33.288s-60.426,11.976-82.234,33.288
			c-21.81,21.314-34.062,50.226-34.062,80.367s12.252,59.053,34.062,80.366C729.636,1043.625,759.22,1055.601,790.062,1055.601"/>
	</g>
	<g>
		<path fill="#3F5EBA" d="M954.487,1294.562c38.232,0,74.903-14.845,101.937-41.266c27.035-26.421,42.224-62.258,42.224-99.621
			s-15.189-73.202-42.224-99.623c-27.034-26.419-63.705-41.265-101.937-41.265c-38.232,0-74.903,14.846-101.937,41.265
			c-27.035,26.421-42.224,62.26-42.224,99.623s15.189,73.201,42.224,99.621C879.584,1279.717,916.255,1294.562,954.487,1294.562"/>
	</g>
	<g>
		<path fill="#3F5EBA" d="M1001.183,998.212c12.562,0,24.613-4.878,33.496-13.558c8.881-8.682,13.874-20.457,13.874-32.735
			c0-12.276-4.993-24.053-13.874-32.735c-8.883-8.681-20.933-13.558-33.496-13.558c-12.562,0-24.612,4.878-33.494,13.558
			c-8.883,8.682-13.874,20.459-13.874,32.735c0,12.278,4.991,24.053,13.874,32.735C976.571,993.334,988.62,998.212,1001.183,998.212
			"/>
	</g>
	<g>
		<g>
			<path fill="#3F5EBA" d="M654.931,1220.854c26.475,0,51.869-10.279,70.589-28.576c18.72-18.295,29.238-43.113,29.238-68.986
				s-10.518-50.69-29.238-68.986c-18.72-18.295-44.115-28.574-70.589-28.574c-26.475,0-51.869,10.279-70.589,28.574
				c-18.72,18.296-29.24,43.113-29.24,68.986s10.519,50.691,29.24,68.986C603.061,1210.574,628.456,1220.854,654.931,1220.854"/>
			<g display="none">
				
					<text transform="matrix(0.9968 0 0 1 603.0397 1114.6328)" display="inline" fill="#FFFFFF" font-family="'Roboto-Medium'" font-size="29.743px">Medical</text>
				
					<text transform="matrix(0.9968 0 0 1 603.0397 1150.3242)" display="inline" fill="#FFFFFF" font-family="'Roboto-Medium'" font-size="29.743px">&amp; health</text>
			</g>
			
				<text transform="matrix(0.9968 0 0 1 636.7936 1072.0381)" display="none" fill="#B6C5F0" font-family="'Roboto-Regular'" font-size="22.3073px">644</text>
		</g>
	</g>
	<g>
		<g>
			<path fill="#3F5EBA" d="M533.619,1051.43c27.004,0,52.905-10.486,71.999-29.147c19.095-18.659,29.825-43.974,29.825-70.365
				c0-26.391-10.73-51.704-29.825-70.364c-19.094-18.661-44.995-29.147-71.999-29.147c-27.004,0-52.905,10.486-72.001,29.147
				c-19.094,18.661-29.824,43.974-29.824,70.364c0,26.391,10.73,51.705,29.824,70.365
				C480.714,1040.944,506.615,1051.43,533.619,1051.43"/>
			<g display="none">
				
					<text transform="matrix(0.9968 0 0 1 474.5612 944.1758)" display="inline" fill="#FFFFFF" font-family="'Roboto-Medium'" font-size="26.7687px">Academia</text>
				
					<text transform="matrix(0.9968 0 0 1 474.5612 976.2979)" display="inline" fill="#FFFFFF" font-family="'Roboto-Medium'" font-size="26.7687px">&amp; research</text>
			</g>
		</g>
	</g>
	<g>
		<path fill="#3F5EBA" d="M929.722,871.854c18.952,0,37.129-7.358,50.531-20.456c13.4-13.097,20.93-30.861,20.93-49.382
			c0-18.521-7.531-36.286-20.93-49.384c-13.401-13.096-31.579-20.454-50.531-20.454c-18.952,0-37.129,7.358-50.53,20.454
			c-13.4,13.097-20.931,30.863-20.931,49.384c0,18.521,7.531,36.285,20.931,49.382C892.593,864.495,910.77,871.854,929.722,871.854"
			/>
	</g>
	<g>
		<path fill="#3F5EBA" d="M720.911,827.043c26.761,0,52.429-10.391,71.351-28.885c18.923-18.493,29.555-43.579,29.555-69.731
			c0-26.153-10.632-51.24-29.555-69.732c-18.922-18.493-44.59-28.883-71.351-28.883c-26.761,0-52.43,10.391-71.353,28.883
			c-18.922,18.493-29.554,43.579-29.554,69.732c0,26.152,10.632,51.238,29.554,69.731
			C668.481,816.653,694.15,827.043,720.911,827.043"/>
	</g>
	<g>
		<path fill="#3F5EBA" d="M549.853,844.4c18.16,0,35.579-7.051,48.419-19.601c12.841-12.549,20.056-29.572,20.056-47.32
			c0-17.748-7.215-34.77-20.056-47.318c-12.841-12.55-30.26-19.602-48.419-19.602c-18.16,0-35.579,7.052-48.42,19.602
			c-12.841,12.549-20.054,29.57-20.054,47.318c0,17.748,7.214,34.771,20.054,47.32C514.275,837.349,531.693,844.4,549.853,844.4"/>
	</g>
</g>
<style>
#g-occupations-done-desktop-img rect, #g-occupations-done-desktop-img circle, #g-occupations-done-desktop-img path, #g-occupations-done-desktop-img line, #g-occupations-done-desktop-img polyline { vector-effect: non-scaling-stroke; }
</style>
</svg>

