<?xml version="1.0" encoding="utf-8"?>
<!-- Generator: Adobe Illustrator 22.1.0, SVG Export Plug-In . SVG Version: 6.00 Build 0)  -->
<svg version="1.2" baseProfile="tiny" id="g-occupations-done-mobile-img" xmlns="http://www.w3.org/2000/svg" xmlns:xlink="http://www.w3.org/1999/xlink"
	 x="0px" y="0px" viewBox="0 0 300 1270" xml:space="preserve">
<g>
	<polygon fill="#777777" points="141.967,125.914 138.573,120.034 145.362,120.034 	"/>
	<polygon fill="#777777" points="196.369,1212.133 192.975,1218.013 199.764,1218.013 	"/>
	<g>
		<g>
			<path fill="#92AEF4" d="M71.011,334.047c11.088,0,21.725-4.305,29.566-11.969c7.842-7.662,12.247-18.056,12.247-28.894
				c0-10.837-4.405-21.231-12.247-28.895c-7.841-7.663-18.477-11.968-29.566-11.968c-11.089,0-21.725,4.305-29.566,11.968
				c-7.842,7.664-12.248,18.058-12.248,28.895c0,10.838,4.406,21.232,12.248,28.894C49.286,329.742,59.921,334.047,71.011,334.047"
				/>
			<g display="none">
				
					<text transform="matrix(0.9968 0 0 1 47.2386 289.8402)" display="inline" fill="#FFFFFF" font-family="'Roboto-Medium'" font-size="11.9523px">G</text>
				
					<text transform="matrix(0.9968 0 0 1 55.2845 289.8402)" display="inline" fill="#FFFFFF" font-family="'Roboto-Medium'" font-size="11.9523px">r</text>
				
					<text transform="matrix(0.9968 0 0 1 59.2426 289.8402)" display="inline" fill="#FFFFFF" font-family="'Roboto-Medium'" font-size="11.9523px">a</text>
				
					<text transform="matrix(0.9968 0 0 1 65.723 289.8402)" display="inline" fill="#FFFFFF" font-family="'Roboto-Medium'" font-size="11.9523px">d</text>
				
					<text transform="matrix(0.9968 0 0 1 72.4711 289.8402)" display="inline" fill="#FFFFFF" font-family="'Roboto-Medium'" font-size="11.9523px">u</text>
				
					<text transform="matrix(0.9968 0 0 1 79.2201 289.8402)" display="inline" fill="#FFFFFF" font-family="'Roboto-Medium'" font-size="11.9523px">a</text>
				
					<text transform="matrix(0.9968 0 0 1 85.7006 289.8402)" display="inline" fill="#FFFFFF" font-family="'Roboto-Medium'" font-size="11.9523px">t</text>
				
					<text transform="matrix(0.9968 0 0 1 89.8431 289.8402)" display="inline" fill="#FFFFFF" font-family="'Roboto-Medium'" font-size="11.9523px">e</text>
				
					<text transform="matrix(0.9968 0 0 1 47.2386 304.183)" display="inline" fill="#FFFFFF" font-family="'Roboto-Medium'" font-size="11.9523px">s</text>
				
					<text transform="matrix(0.9968 0 0 1 53.434 304.183)" display="inline" fill="#FFFFFF" font-family="'Roboto-Medium'" font-size="11.9523px">t</text>
				
					<text transform="matrix(0.9968 0 0 1 57.5765 304.183)" display="inline" fill="#FFFFFF" font-family="'Roboto-Medium'" font-size="11.9523px">u</text>
				
					<text transform="matrix(0.9968 0 0 1 64.3246 304.183)" display="inline" fill="#FFFFFF" font-family="'Roboto-Medium'" font-size="11.9523px">d</text>
				
					<text transform="matrix(0.9968 0 0 1 71.0736 304.183)" display="inline" fill="#FFFFFF" font-family="'Roboto-Medium'" font-size="11.9523px">e</text>
				
					<text transform="matrix(0.9968 0 0 1 77.3793 304.183)" display="inline" fill="#FFFFFF" font-family="'Roboto-Medium'" font-size="11.9523px">n</text>
				
					<text transform="matrix(0.9968 0 0 1 84.1283 304.183)" display="inline" fill="#FFFFFF" font-family="'Roboto-Medium'" font-size="11.9523px">t</text>
				
					<text transform="matrix(0.9968 0 0 1 88.2699 304.183)" display="inline" fill="#FFFFFF" font-family="'Roboto-Medium'" font-size="11.9523px">s</text>
			</g>
			
				<text transform="matrix(0.9968 0 0 1 62.976 272.5375)" display="none" fill="#3F5EBA" font-family="'Roboto-Regular'" font-size="10.1595px">228</text>
			
				<text transform="matrix(0.9968 0 0 1 60.6664 319.1801)" display="none" fill="#FFFFFF" font-family="'Roboto-Regular'" font-size="10.1595px">9.8%</text>
		</g>
		<g>
			<path fill="#92AEF4" d="M71.011,642.055c13.739,0,26.916-5.335,36.632-14.829c9.715-9.494,15.173-22.373,15.173-35.8
				s-5.458-26.305-15.173-35.8c-9.716-9.494-22.893-14.829-36.632-14.829c-13.739,0-26.917,5.335-36.632,14.829
				c-9.716,9.495-15.174,22.373-15.174,35.8s5.458,26.306,15.174,35.8C44.093,636.72,57.272,642.055,71.011,642.055"/>
			<g display="none">
				
					<text transform="matrix(0.9968 0 0 1 26.683 595.4286)" display="inline" fill="#FFFFFF" font-family="'Roboto-Medium'" font-size="12.55px">U</text>
				
					<text transform="matrix(0.9968 0 0 1 35.2103 595.4286)" display="inline" fill="#FFFFFF" font-family="'Roboto-Medium'" font-size="12.55px">n</text>
				
					<text transform="matrix(0.9968 0 0 1 42.2963 595.4286)" display="inline" fill="#FFFFFF" font-family="'Roboto-Medium'" font-size="12.55px">d</text>
				
					<text transform="matrix(0.9968 0 0 1 49.3822 595.4286)" display="inline" fill="#FFFFFF" font-family="'Roboto-Medium'" font-size="12.55px">e</text>
				
					<text transform="matrix(0.9968 0 0 1 56.0033 595.4286)" display="inline" fill="#FFFFFF" font-family="'Roboto-Medium'" font-size="12.55px">r</text>
				
					<text transform="matrix(0.9968 0 0 1 60.3344 595.4286)" display="inline" fill="#FFFFFF" font-family="'Roboto-Medium'" font-size="12.55px">g</text>
				
					<text transform="matrix(0.9968 0 0 1 67.4203 595.4286)" display="inline" fill="#FFFFFF" font-family="'Roboto-Medium'" font-size="12.55px">r</text>
				
					<text transform="matrix(0.9968 0 0 1 71.5765 595.4286)" display="inline" fill="#FFFFFF" font-family="'Roboto-Medium'" font-size="12.55px">a</text>
				
					<text transform="matrix(0.9968 0 0 1 78.3812 595.4286)" display="inline" fill="#FFFFFF" font-family="'Roboto-Medium'" font-size="12.55px">d</text>
				
					<text transform="matrix(0.9968 0 0 1 85.4672 595.4286)" display="inline" fill="#FFFFFF" font-family="'Roboto-Medium'" font-size="12.55px">u</text>
				
					<text transform="matrix(0.9968 0 0 1 92.5531 595.4286)" display="inline" fill="#FFFFFF" font-family="'Roboto-Medium'" font-size="12.55px">a</text>
				
					<text transform="matrix(0.9968 0 0 1 99.3578 595.4286)" display="inline" fill="#FFFFFF" font-family="'Roboto-Medium'" font-size="12.55px">t</text>
				
					<text transform="matrix(0.9968 0 0 1 103.7074 595.4286)" display="inline" fill="#FFFFFF" font-family="'Roboto-Medium'" font-size="12.55px">e</text>
				
					<text transform="matrix(0.9968 0 0 1 110.3285 595.4286)" display="inline" fill="#FFFFFF" font-family="'Roboto-Medium'" font-size="12.55px">s</text>
			</g>
			
				<text transform="matrix(0.9968 0 0 1 62.976 574.4091)" display="none" fill="#3F5EBA" font-family="'Roboto-Regular'" font-size="10.1595px">350</text>
			
				<text transform="matrix(0.9968 0 0 1 62.1449 617.0282)" display="none" fill="#FFFFFF" font-family="'Roboto-Regular'" font-size="10.1595px">15%</text>
		</g>
		<path fill="#92AEF4" d="M70.874,183.402c5.347,0,10.475-2.076,14.255-5.77c3.78-3.695,5.904-8.706,5.904-13.932
			c0-5.224-2.124-10.235-5.904-13.93c-3.78-3.695-8.908-5.771-14.255-5.771c-5.346,0-10.474,2.076-14.255,5.771
			c-3.78,3.695-5.904,8.706-5.904,13.93c0,5.226,2.124,10.237,5.904,13.932C60.4,181.327,65.528,183.402,70.874,183.402"/>
		<g>
			<path fill="#92AEF4" d="M71.01,899.126c17.034,0,33.372-6.613,45.417-18.385c12.046-11.772,18.813-27.738,18.813-44.386
				c0-16.647-6.767-32.614-18.813-44.386c-12.045-11.771-28.383-18.385-45.417-18.385c-17.034,0-33.372,6.614-45.417,18.385
				c-12.045,11.772-18.812,27.739-18.812,44.386c0,16.648,6.767,32.614,18.812,44.386S53.976,899.126,71.01,899.126"/>
			<g display="none">
				
					<text transform="matrix(0.9968 0 0 1 43.7386 841.056)" display="inline" fill="#FFFFFF" font-family="'Roboto-Medium'" font-size="17.238px">F</text>
				
					<text transform="matrix(0.9968 0 0 1 53.431 841.056)" display="inline" fill="#FFFFFF" font-family="'Roboto-Medium'" font-size="17.238px">a</text>
				
					<text transform="matrix(0.9968 0 0 1 62.7787 841.056)" display="inline" fill="#FFFFFF" font-family="'Roboto-Medium'" font-size="17.238px">c</text>
				
					<text transform="matrix(0.9968 0 0 1 71.7982 841.056)" display="inline" fill="#FFFFFF" font-family="'Roboto-Medium'" font-size="17.238px">u</text>
				
					<text transform="matrix(0.9968 0 0 1 81.5306 841.056)" display="inline" fill="#FFFFFF" font-family="'Roboto-Medium'" font-size="17.238px">l</text>
				
					<text transform="matrix(0.9968 0 0 1 85.9857 841.056)" display="inline" fill="#FFFFFF" font-family="'Roboto-Medium'" font-size="17.238px">t</text>
				
					<text transform="matrix(0.9968 0 0 1 91.9594 841.056)" display="inline" fill="#FFFFFF" font-family="'Roboto-Medium'" font-size="17.238px">y</text>
			</g>
			
				<text transform="matrix(0.9968 0 0 1 58.6429 816.683)" display="none" fill="#3F5EBA" font-family="'Roboto-Regular'" font-size="15.21px">538</text>
			
				<text transform="matrix(0.9438 0 0 1 50.85 863.9867)" display="none" fill="#FFFFFF" font-family="'Roboto-Regular'" font-size="15.21px">23.1%</text>
		</g>
		<g>
			<path fill="#92AEF4" d="M71.01,764.941c15.7,0,30.757-6.096,41.859-16.945s17.338-25.565,17.338-40.908
				c0-15.343-6.237-30.059-17.338-40.908S86.71,649.236,71.01,649.236c-15.7,0-30.757,6.095-41.859,16.944
				s-17.338,25.565-17.338,40.908c0,15.343,6.237,30.059,17.338,40.908S55.311,764.941,71.01,764.941"/>
			
				<text transform="matrix(0.9968 0 0 1 48.0219 711.6146)" display="none" fill="#FFFFFF" font-family="'Roboto-Medium'" font-size="16.224px">Admin</text>
			
				<text transform="matrix(0.9968 0 0 1 60.3832 687.6058)" display="none" fill="#3F5EBA" font-family="'Roboto-Regular'" font-size="13.182px">457</text>
			
				<text transform="matrix(0.9968 0 0 1 53.6293 737.5287)" display="none" fill="#FFFFFF" font-family="'Roboto-Regular'" font-size="13.182px">19.6%</text>
		</g>
		<g>
			<g>
				<path fill="#92AEF4" d="M71.01,533.915c13.034,0,25.536-5.061,34.752-14.067c9.216-9.007,14.396-21.226,14.396-33.963
					c0-12.739-5.179-24.957-14.396-33.963c-9.216-9.007-21.718-14.068-34.752-14.068s-25.536,5.061-34.752,14.068
					c-9.217,9.006-14.396,21.224-14.396,33.963c0,12.737,5.178,24.956,14.396,33.963C45.475,528.854,57.976,533.915,71.01,533.915"
					/>
				<g display="none">
					
						<text transform="matrix(0.9968 0 0 1 48.3099 482.1727)" display="inline" fill="#FFFFFF" font-family="'Roboto-Medium'" font-size="13.1477px">Medical</text>
					
						<text transform="matrix(0.9968 0 0 1 48.3099 497.9501)" display="inline" fill="#FFFFFF" font-family="'Roboto-Medium'" font-size="13.1477px">&amp; health</text>
				</g>
			</g>
			
				<text transform="matrix(0.9968 0 0 1 61.9515 461.0511)" display="none" fill="#3F5EBA" font-family="'Roboto-Regular'" font-size="11.3548px">315</text>
			
				<text transform="matrix(0.9968 0 0 1.0306 56.5902 517.5878)" display="none" fill="#FFFFFF" font-family="'Roboto-Regular'" font-size="11.0181px">13.5%</text>
		</g>
		<g>
			<g>
				<path fill="#92AEF4" d="M71.01,431.815c12.355,0,24.204-4.796,32.94-13.333c8.736-8.538,13.645-20.119,13.645-32.192
					c0-12.075-4.908-23.656-13.645-32.193c-8.735-8.537-20.585-13.334-32.94-13.334c-12.354,0-24.203,4.797-32.94,13.334
					c-8.735,8.537-13.644,20.118-13.644,32.193c0,12.073,4.908,23.654,13.644,32.192C46.806,427.019,58.656,431.815,71.01,431.815"
					/>
				<g display="none">
					
						<text transform="matrix(0.9968 0 0 1 43.5306 382.7621)" display="inline" fill="#FFFFFF" font-family="'Roboto-Medium'" font-size="12.55px">Academia</text>
					
						<text transform="matrix(0.9968 0 0 1 43.5306 397.8221)" display="inline" fill="#FFFFFF" font-family="'Roboto-Medium'" font-size="12.55px">&amp; research</text>
				</g>
				
					<text transform="matrix(0.9968 0 0 1 62.4623 366.0956)" display="none" fill="#3F5EBA" font-family="'Roboto-Regular'" font-size="10.7571px">283</text>
			</g>
			
				<text transform="matrix(0.9968 0 0 1 56.9525 415.7826)" display="none" fill="#FFFFFF" font-family="'Roboto-Regular'" font-size="10.7571px">12.1%</text>
		</g>
		<g>
			<path fill="#92AEF4" d="M71.01,245.531c7.597,0,14.883-2.95,20.255-8.199c5.371-5.249,8.389-12.37,8.389-19.794
				c0-7.425-3.017-14.545-8.389-19.794c-5.372-5.249-12.658-8.199-20.255-8.199c-7.596,0-14.883,2.95-20.254,8.199
				c-5.371,5.249-8.39,12.37-8.39,19.794c0,7.425,3.018,14.545,8.39,19.794C56.127,242.581,63.414,245.531,71.01,245.531"/>
			<g display="none">
				
					<text transform="matrix(0.9968 0 0 1 53.9525 214.6142)" display="inline" fill="#FFFFFF" font-family="'Roboto-Medium'" font-size="8.3666px">Teaching</text>
				
					<text transform="matrix(0.9968 0 0 1 53.9525 224.6542)" display="inline" fill="#FFFFFF" font-family="'Roboto-Medium'" font-size="8.3666px">positions</text>
			</g>
			
				<text transform="matrix(0.9968 0 0 1 65.1986 203.2152)" display="none" fill="#3F5EBA" font-family="'Roboto-Regular'" font-size="7.1714px">107</text>
			
				<text transform="matrix(0.9968 0 0 1 63.5687 236.6049)" display="none" fill="#FFFFFF" font-family="'Roboto-Regular'" font-size="7.1714px">4.6%</text>
		</g>
	</g>
	<g>
		<path fill="#3F5EBA" d="M196.824,1000.748c21.03,0,41.2-8.166,56.071-22.698c14.87-14.532,23.225-34.245,23.225-54.797
			c0-20.552-8.355-40.265-23.225-54.798c-14.871-14.532-35.041-22.697-56.071-22.697c-21.03,0-41.201,8.166-56.071,22.697
			c-14.871,14.533-23.225,34.246-23.225,54.798c0,20.552,8.354,40.265,23.225,54.797
			C155.623,992.582,175.795,1000.748,196.824,1000.748"/>
	</g>
	<g>
		<path fill="#3F5EBA" d="M195.824,1201.999c26.068,0,51.072-10.122,69.505-28.136c18.434-18.015,28.79-42.45,28.79-67.926
			c0-25.476-10.357-49.912-28.79-67.927c-18.433-18.014-43.437-28.137-69.505-28.137c-26.068,0-51.072,10.123-69.505,28.137
			c-18.434,18.015-28.79,42.451-28.79,67.927c0,25.476,10.357,49.911,28.79,67.926
			C144.752,1191.878,169.756,1201.999,195.824,1201.999"/>
	</g>
	<g>
		<path fill="#3F5EBA" d="M196.725,207.129c8.565,0,16.782-3.326,22.839-9.245c6.056-5.92,9.46-13.949,9.46-22.32
			c0-8.371-3.404-16.4-9.46-22.32c-6.057-5.919-14.273-9.245-22.839-9.245c-8.566,0-16.781,3.326-22.838,9.245
			c-6.057,5.92-9.46,13.95-9.46,22.32c0,8.372,3.403,16.4,9.46,22.32C179.944,203.803,188.16,207.129,196.725,207.129"/>
	</g>
	<g>
		<g>
			<path fill="#3F5EBA" d="M196.825,546.773c18.052,0,35.367-7.009,48.131-19.484c12.764-12.474,19.936-29.396,19.936-47.038
				c0-17.642-7.172-34.562-19.936-47.038c-12.764-12.474-30.079-19.483-48.131-19.483c-18.052,0-35.367,7.009-48.131,19.483
				c-12.764,12.475-19.937,29.396-19.937,47.038c0,17.642,7.173,34.563,19.937,47.038
				C161.458,539.765,178.773,546.773,196.825,546.773"/>
			<g display="none">
				
					<text transform="matrix(0.9968 0 0 1 161.4427 474.3461)" display="inline" fill="#FFFFFF" font-family="'Roboto-Medium'" font-size="20.2801px">Medical</text>
				
					<text transform="matrix(0.9968 0 0 1 161.4427 498.682)" display="inline" fill="#FFFFFF" font-family="'Roboto-Medium'" font-size="20.2801px">&amp; health</text>
			</g>
			
				<text transform="matrix(0.9968 0 0 1 184.4574 445.3036)" display="none" fill="#B6C5F0" font-family="'Roboto-Regular'" font-size="15.21px">644</text>
		</g>
	</g>
	<g>
		<g>
			<path fill="#3F5EBA" d="M196.824,833.934c18.413,0,36.073-7.15,49.092-19.873c13.02-12.723,20.336-29.983,20.336-47.978
				c0-17.994-7.316-35.254-20.336-47.977c-13.019-12.724-30.68-19.873-49.092-19.873c-18.413,0-36.073,7.15-49.093,19.873
				c-13.019,12.724-20.335,29.983-20.335,47.977c0,17.995,7.316,35.255,20.335,47.978
				C160.751,826.784,178.412,833.934,196.824,833.934"/>
			<g display="none">
				
					<text transform="matrix(0.9968 0 0 1 156.5551 760.8031)" display="inline" fill="#FFFFFF" font-family="'Roboto-Medium'" font-size="18.252px">Academia</text>
				
					<text transform="matrix(0.9968 0 0 1 156.5551 782.7054)" display="inline" fill="#FFFFFF" font-family="'Roboto-Medium'" font-size="18.252px">&amp; research</text>
			</g>
		</g>
	</g>
	<g>
		<path fill="#3F5EBA" d="M196.824,405.627c12.922,0,25.316-5.017,34.454-13.948c9.137-8.93,14.271-21.043,14.271-33.671
			s-5.135-24.742-14.271-33.672c-9.138-8.929-21.532-13.947-34.454-13.947c-12.922,0-25.316,5.017-34.454,13.947
			c-9.137,8.93-14.271,21.044-14.271,33.672s5.135,24.741,14.271,33.671C171.508,400.61,183.902,405.627,196.824,405.627"/>
	</g>
	<g>
		<path fill="#3F5EBA" d="M196.824,304.75c12.382,0,24.259-4.807,33.014-13.365c8.755-8.556,13.675-20.163,13.675-32.265
			c0-12.101-4.92-23.707-13.675-32.264c-8.755-8.557-20.632-13.366-33.014-13.366c-12.382,0-24.259,4.808-33.015,13.366
			c-8.755,8.556-13.674,20.162-13.674,32.264c0,12.101,4.918,23.708,13.674,32.265C172.565,299.943,184.441,304.75,196.824,304.75"
			/>
	</g>
	<path fill="#3F5EBA" d="M198.226,689.372c18.247,0,35.749-7.085,48.65-19.695c12.903-12.609,20.152-29.714,20.152-47.546
		c0-17.832-7.249-34.937-20.152-47.547c-12.902-12.609-30.404-19.694-48.65-19.694c-18.247,0-35.749,7.085-48.651,19.694
		c-12.902,12.609-20.151,29.714-20.151,47.547c0,17.831,7.249,34.936,20.151,47.546
		C162.477,682.287,179.979,689.372,198.226,689.372"/>
</g>
<style>
#g-occupations-done-mobile-img rect, #g-occupations-done-mobile-img circle, #g-occupations-done-mobile-img path, #g-occupations-done-mobile-img line, #g-occupations-done-mobile-img polyline { vector-effect: non-scaling-stroke; }
</style>
</svg>

