<?xml version="1.0" encoding="utf-8"?>
<!-- Generator: Adobe Illustrator 23.1.1, SVG Export Plug-In . SVG Version: 6.00 Build 0)  -->
<svg version="1.2" baseProfile="tiny" id="g-republican-primaries-mobile-img" xmlns="http://www.w3.org/2000/svg" xmlns:xlink="http://www.w3.org/1999/xlink"
	 x="0px" y="0px" viewBox="0 0 300 690" xml:space="preserve">
<g>
	
		<line style="opacity:0.2;" fill="none" stroke="#777777" stroke-width="0.75" stroke-miterlimit="10" x1="296.561" y1="80.402" x2="50.203" y2="80.402"/>
	
		<line style="opacity:0.2;" fill="none" stroke="#777777" stroke-width="0.75" stroke-miterlimit="10" x1="296.672" y1="148.455" x2="50.314" y2="148.455"/>
	
		<line style="opacity:0.2;" fill="none" stroke="#777777" stroke-width="0.75" stroke-miterlimit="10" x1="296.672" y1="284.449" x2="50.314" y2="284.449"/>
	
		<line style="opacity:0.2;" fill="none" stroke="#777777" stroke-width="0.75" stroke-miterlimit="10" x1="296.561" y1="352.501" x2="50.203" y2="352.501"/>
	
		<line style="opacity:0.2;" fill="none" stroke="#777777" stroke-width="0.75" stroke-miterlimit="10" x1="296.672" y1="216.396" x2="50.314" y2="216.396"/>
	
		<line style="opacity:0.2;" fill="none" stroke="#777777" stroke-width="0.75" stroke-miterlimit="10" x1="296.782" y1="420.443" x2="50.314" y2="420.443"/>
	<rect style="opacity:0.2;" x="267.866" y="454.469" fill="#DA5C54" width="17.564" height="34.026"/>
	<rect style="opacity:0.2;" x="95.184" y="202.919" fill="#DA5C54" width="17.564" height="285.576"/>
	<rect x="234.277" y="442.537" fill="#C1272D" width="17.564" height="45.957"/>
	<rect style="opacity:0.2;" x="200.687" y="420.443" fill="#DA5C54" width="17.564" height="68.052"/>
	<rect style="opacity:0.2;" x="165.5" y="420.443" fill="#DA5C54" width="17.565" height="68.052"/>
	<rect style="opacity:0.2;" x="130.314" y="304.886" fill="#DA5C54" width="17.565" height="183.608"/>
	<rect style="opacity:0.2;" x="59.941" y="87.252" fill="#DA5C54" width="17.565" height="401.243"/>
	<path fill="#010101" d="M49.226,488.274h2.651H49.226z"/>
	<g>
		<g>
			<g>
				
					<text transform="matrix(0.5 -0.866 0.866 0.5 29.8283 577.0128)" display="none" font-family="'Roboto-Regular'" font-size="14px">Jeb 2016, Inc.</text>
			</g>
		</g>
		<g>
			<g>
				<g display="none">
					
						<text transform="matrix(0.5 -0.866 0.866 0.5 28.2091 641.2261)" display="inline" font-family="'Roboto-Regular'" font-size="14px">M</text>
					
						<text transform="matrix(0.5 -0.866 0.866 0.5 34.3206 630.6411)" display="inline" font-family="'Roboto-Regular'" font-size="14px">a</text>
					
						<text transform="matrix(0.5 -0.866 0.866 0.5 38.1283 624.0461)" display="inline" font-family="'Roboto-Regular'" font-size="14px">r</text>
					
						<text transform="matrix(0.5 -0.866 0.866 0.5 40.434 620.0527)" display="inline" font-family="'Roboto-Regular'" font-size="14px">c</text>
					
						<text transform="matrix(0.5 -0.866 0.866 0.5 44.0981 613.7064)" display="inline" font-family="'Roboto-Regular'" font-size="14px">o</text>
					
						<text transform="matrix(0.5 -0.866 0.866 0.5 48.0904 606.7917)" display="inline" font-family="'Roboto-Regular'" font-size="14px"> </text>
					
						<text transform="matrix(0.5 -0.866 0.866 0.5 49.8233 603.7902)" display="inline" font-family="'Roboto-Regular'" font-size="14px">R</text>
					
						<text transform="matrix(0.5 -0.866 0.866 0.5 54.1335 596.3251)" display="inline" font-family="'Roboto-Regular'" font-size="14px">u</text>
					
						<text transform="matrix(0.5 -0.866 0.866 0.5 57.9924 589.6413)" display="inline" font-family="'Roboto-Regular'" font-size="14px">b</text>
					
						<text transform="matrix(0.5 -0.866 0.866 0.5 61.9198 582.8392)" display="inline" font-family="'Roboto-Regular'" font-size="14px">i</text>
					
						<text transform="matrix(0.5 -0.866 0.866 0.5 63.6185 579.8969)" display="inline" font-family="'Roboto-Regular'" font-size="14px">o</text>
					
						<text transform="matrix(0.5 -0.866 0.866 0.5 67.6108 572.9822)" display="inline" font-family="'Roboto-Regular'" font-size="14px"> </text>
					
						<text transform="matrix(0.5 -0.866 0.866 0.5 69.3437 569.9808)" display="inline" font-family="'Roboto-Regular'" font-size="14px">f</text>
					
						<text transform="matrix(0.5 -0.866 0.866 0.5 71.774 565.7716)" display="inline" font-family="'Roboto-Regular'" font-size="14px">o</text>
					
						<text transform="matrix(0.5 -0.866 0.866 0.5 75.7662 558.857)" display="inline" font-family="'Roboto-Regular'" font-size="14px">r</text>
					
						<text transform="matrix(0.5 -0.866 0.866 0.5 78.1349 554.7544)" display="inline" font-family="'Roboto-Regular'" font-size="14px"> </text>
					
						<text transform="matrix(0.5 -0.866 0.866 0.5 79.8679 551.7529)" display="inline" font-family="'Roboto-Regular'" font-size="14px">P</text>
					
						<text transform="matrix(0.5 -0.866 0.866 0.5 84.284 544.1042)" display="inline" font-family="'Roboto-Regular'" font-size="14px">r</text>
					
						<text transform="matrix(0.5 -0.866 0.866 0.5 86.6527 540.0016)" display="inline" font-family="'Roboto-Regular'" font-size="14px">e</text>
					
						<text transform="matrix(0.5 -0.866 0.866 0.5 90.3613 533.5784)" display="inline" font-family="'Roboto-Regular'" font-size="14px">s</text>
					
						<text transform="matrix(0.5 -0.866 0.866 0.5 93.9707 527.3268)" display="inline" font-family="'Roboto-Regular'" font-size="14px">i</text>
					
						<text transform="matrix(0.5 -0.866 0.866 0.5 95.6695 524.3845)" display="inline" font-family="'Roboto-Regular'" font-size="14px">d</text>
					
						<text transform="matrix(0.5 -0.866 0.866 0.5 99.6173 517.5468)" display="inline" font-family="'Roboto-Regular'" font-size="14px">e</text>
					
						<text transform="matrix(0.5 -0.866 0.866 0.5 103.3259 511.1236)" display="inline" font-family="'Roboto-Regular'" font-size="14px">n</text>
					
						<text transform="matrix(0.5 -0.866 0.866 0.5 107.1882 504.4339)" display="inline" font-family="'Roboto-Regular'" font-size="14px">t</text>
				</g>
			</g>
		</g>
		<g>
			<g>
				
					<text transform="matrix(0.5 -0.866 0.866 0.5 49.9497 664.3515)" display="none" font-family="'Roboto-Regular'" font-size="14px">Chris Christie for President, Inc.</text>
			</g>
		</g>
		<g>
			<g>
				
					<text transform="matrix(0.5 -0.866 0.866 0.5 122.5324 599.5957)" display="none" font-family="'Roboto-Regular'" font-size="14px">Cruz for President</text>
			</g>
		</g>
		<g>
			<g>
				
					<text transform="matrix(0.5 -0.866 0.866 0.5 142.3873 624.5318)" display="none" font-family="'Roboto-Regular'" font-size="14px">Kasich for America, Inc.</text>
			</g>
		</g>
		<g>
			<g>
				<g display="none">
					
						<text transform="matrix(0.5 -0.866 0.866 0.5 142.4784 682.328)" display="inline" font-family="'Roboto-Regular'" font-size="14px">D</text>
					
						<text transform="matrix(0.5 -0.866 0.866 0.5 147.0688 674.3773)" display="inline" font-family="'Roboto-Regular'" font-size="14px">o</text>
					
						<text transform="matrix(0.5 -0.866 0.866 0.5 151.0611 667.4627)" display="inline" font-family="'Roboto-Regular'" font-size="14px">n</text>
					
						<text transform="matrix(0.5 -0.866 0.866 0.5 154.9235 660.7731)" display="inline" font-family="'Roboto-Regular'" font-size="14px">a</text>
					
						<text transform="matrix(0.5 -0.866 0.866 0.5 158.7312 654.1781)" display="inline" font-family="'Roboto-Regular'" font-size="14px">l</text>
					
						<text transform="matrix(0.5 -0.866 0.866 0.5 160.43 651.2358)" display="inline" font-family="'Roboto-Regular'" font-size="14px">d</text>
					
						<text transform="matrix(0.5 -0.866 0.866 0.5 164.3778 644.3982)" display="inline" font-family="'Roboto-Regular'" font-size="14px"> </text>
					
						<text transform="matrix(0.5 -0.866 0.866 0.5 166.1107 641.3967)" display="inline" font-family="'Roboto-Regular'" font-size="14px">J</text>
					
						<text transform="matrix(0.5 -0.866 0.866 0.5 169.9731 634.707)" display="inline" font-family="'Roboto-Regular'" font-size="14px">.</text>
					
						<text transform="matrix(0.5 -0.866 0.866 0.5 171.8154 631.5161)" display="inline" font-family="'Roboto-Regular'" font-size="14px"> </text>
					
						<text transform="matrix(0.5 -0.866 0.866 0.5 173.4084 628.7571)" display="inline" font-family="'Roboto-Regular'" font-size="14px">T</text>
					
						<text transform="matrix(0.5 -0.866 0.866 0.5 177.3333 621.9592)" display="inline" font-family="'Roboto-Regular'" font-size="14px">r</text>
					
						<text transform="matrix(0.5 -0.866 0.866 0.5 179.702 617.8566)" display="inline" font-family="'Roboto-Regular'" font-size="14px">u</text>
					
						<text transform="matrix(0.5 -0.866 0.866 0.5 183.5609 611.1729)" display="inline" font-family="'Roboto-Regular'" font-size="14px">m</text>
					
						<text transform="matrix(0.5 -0.866 0.866 0.5 189.6963 600.5464)" display="inline" font-family="'Roboto-Regular'" font-size="14px">p</text>
					
						<text transform="matrix(0.5 -0.866 0.866 0.5 193.6236 593.7443)" display="inline" font-family="'Roboto-Regular'" font-size="14px"> </text>
					
						<text transform="matrix(0.5 -0.866 0.866 0.5 195.3566 590.7428)" display="inline" font-family="'Roboto-Regular'" font-size="14px">f</text>
					
						<text transform="matrix(0.5 -0.866 0.866 0.5 197.7868 586.5336)" display="inline" font-family="'Roboto-Regular'" font-size="14px">o</text>
					
						<text transform="matrix(0.5 -0.866 0.866 0.5 201.7791 579.619)" display="inline" font-family="'Roboto-Regular'" font-size="14px">r</text>
					
						<text transform="matrix(0.5 -0.866 0.866 0.5 204.1478 575.5164)" display="inline" font-family="'Roboto-Regular'" font-size="14px"> </text>
					
						<text transform="matrix(0.5 -0.866 0.866 0.5 205.8807 572.5149)" display="inline" font-family="'Roboto-Regular'" font-size="14px">P</text>
					
						<text transform="matrix(0.5 -0.866 0.866 0.5 210.2968 564.8662)" display="inline" font-family="'Roboto-Regular'" font-size="14px">r</text>
					
						<text transform="matrix(0.5 -0.866 0.866 0.5 212.6655 560.7636)" display="inline" font-family="'Roboto-Regular'" font-size="14px">e</text>
					
						<text transform="matrix(0.5 -0.866 0.866 0.5 216.3741 554.3403)" display="inline" font-family="'Roboto-Regular'" font-size="14px">s</text>
					
						<text transform="matrix(0.5 -0.866 0.866 0.5 219.9835 548.0887)" display="inline" font-family="'Roboto-Regular'" font-size="14px">i</text>
					
						<text transform="matrix(0.5 -0.866 0.866 0.5 221.6823 545.1465)" display="inline" font-family="'Roboto-Regular'" font-size="14px">d</text>
					
						<text transform="matrix(0.5 -0.866 0.866 0.5 225.6301 538.3088)" display="inline" font-family="'Roboto-Regular'" font-size="14px">e</text>
					
						<text transform="matrix(0.5 -0.866 0.866 0.5 229.3387 531.8856)" display="inline" font-family="'Roboto-Regular'" font-size="14px">n</text>
					
						<text transform="matrix(0.5 -0.866 0.866 0.5 233.2011 525.1959)" display="inline" font-family="'Roboto-Regular'" font-size="14px">t</text>
					
						<text transform="matrix(0.5 -0.866 0.866 0.5 235.4877 521.2354)" display="inline" font-family="'Roboto-Regular'" font-size="14px">,</text>
					
						<text transform="matrix(0.5 -0.866 0.866 0.5 236.8618 518.8555)" display="inline" font-family="'Roboto-Regular'" font-size="14px"> </text>
					
						<text transform="matrix(0.5 -0.866 0.866 0.5 238.5947 515.854)" display="inline" font-family="'Roboto-Regular'" font-size="14px">I</text>
					
						<text transform="matrix(0.5 -0.866 0.866 0.5 240.4986 512.5566)" display="inline" font-family="'Roboto-Regular'" font-size="14px">n</text>
					
						<text transform="matrix(0.5 -0.866 0.866 0.5 244.361 505.8669)" display="inline" font-family="'Roboto-Regular'" font-size="14px">c</text>
					
						<text transform="matrix(0.5 -0.866 0.866 0.5 248.0251 499.5206)" display="inline" font-family="'Roboto-Regular'" font-size="14px">.</text>
				</g>
			</g>
		</g>
		<g>
			<g>
				<g display="none">
					
						<text transform="matrix(0.5 -0.866 0.866 0.5 207.5942 628.2706)" display="inline" font-family="'Roboto-Regular'" font-size="14px">P</text>
					
						<text transform="matrix(0.5 -0.866 0.866 0.5 211.9753 620.6826)" display="inline" font-family="'Roboto-Regular'" font-size="14px">a</text>
					
						<text transform="matrix(0.5 -0.866 0.866 0.5 215.783 614.0876)" display="inline" font-family="'Roboto-Regular'" font-size="14px">t</text>
					
						<text transform="matrix(0.5 -0.866 0.866 0.5 218.0696 610.1271)" display="inline" font-family="'Roboto-Regular'" font-size="14px">a</text>
					
						<text transform="matrix(0.5 -0.866 0.866 0.5 221.8773 603.5321)" display="inline" font-family="'Roboto-Regular'" font-size="14px">k</text>
					
						<text transform="matrix(0.5 -0.866 0.866 0.5 225.4253 597.3871)" display="inline" font-family="'Roboto-Regular'" font-size="14px">i</text>
					
						<text transform="matrix(0.5 -0.866 0.866 0.5 227.124 594.4448)" display="inline" font-family="'Roboto-Regular'" font-size="14px"> </text>
					
						<text transform="matrix(0.5 -0.866 0.866 0.5 228.857 591.4434)" display="inline" font-family="'Roboto-Regular'" font-size="14px">f</text>
					
						<text transform="matrix(0.5 -0.866 0.866 0.5 231.2872 587.2342)" display="inline" font-family="'Roboto-Regular'" font-size="14px">o</text>
					
						<text transform="matrix(0.5 -0.866 0.866 0.5 235.2794 580.3196)" display="inline" font-family="'Roboto-Regular'" font-size="14px">r</text>
					
						<text transform="matrix(0.5 -0.866 0.866 0.5 237.6482 576.217)" display="inline" font-family="'Roboto-Regular'" font-size="14px"> </text>
					
						<text transform="matrix(0.5 -0.866 0.866 0.5 239.3811 573.2155)" display="inline" font-family="'Roboto-Regular'" font-size="14px">P</text>
					
						<text transform="matrix(0.5 -0.866 0.866 0.5 243.7972 565.5668)" display="inline" font-family="'Roboto-Regular'" font-size="14px">r</text>
					
						<text transform="matrix(0.5 -0.866 0.866 0.5 246.1659 561.4642)" display="inline" font-family="'Roboto-Regular'" font-size="14px">e</text>
					
						<text transform="matrix(0.5 -0.866 0.866 0.5 249.8745 555.041)" display="inline" font-family="'Roboto-Regular'" font-size="14px">s</text>
					
						<text transform="matrix(0.5 -0.866 0.866 0.5 253.4839 548.7894)" display="inline" font-family="'Roboto-Regular'" font-size="14px">i</text>
					
						<text transform="matrix(0.5 -0.866 0.866 0.5 255.1827 545.8471)" display="inline" font-family="'Roboto-Regular'" font-size="14px">d</text>
					
						<text transform="matrix(0.5 -0.866 0.866 0.5 259.1305 539.0094)" display="inline" font-family="'Roboto-Regular'" font-size="14px">e</text>
					
						<text transform="matrix(0.5 -0.866 0.866 0.5 262.8391 532.5861)" display="inline" font-family="'Roboto-Regular'" font-size="14px">n</text>
					
						<text transform="matrix(0.5 -0.866 0.866 0.5 266.7015 525.8965)" display="inline" font-family="'Roboto-Regular'" font-size="14px">t</text>
					
						<text transform="matrix(0.5 -0.866 0.866 0.5 268.9881 521.936)" display="inline" font-family="'Roboto-Regular'" font-size="14px">,</text>
					
						<text transform="matrix(0.5 -0.866 0.866 0.5 270.3622 519.5561)" display="inline" font-family="'Roboto-Regular'" font-size="14px"> </text>
					
						<text transform="matrix(0.5 -0.866 0.866 0.5 272.0951 516.5546)" display="inline" font-family="'Roboto-Regular'" font-size="14px">I</text>
					
						<text transform="matrix(0.5 -0.866 0.866 0.5 273.999 513.2571)" display="inline" font-family="'Roboto-Regular'" font-size="14px">n</text>
					
						<text transform="matrix(0.5 -0.866 0.866 0.5 277.8614 506.5675)" display="inline" font-family="'Roboto-Regular'" font-size="14px">c</text>
					
						<text transform="matrix(0.5 -0.866 0.866 0.5 281.5255 500.2212)" display="inline" font-family="'Roboto-Regular'" font-size="14px">.</text>
				</g>
			</g>
		</g>
	</g>
</g>
<style>
#g-republican-primaries-mobile-img rect, #g-republican-primaries-mobile-img circle, #g-republican-primaries-mobile-img path, #g-republican-primaries-mobile-img line, #g-republican-primaries-mobile-img polyline { vector-effect: non-scaling-stroke; }
</style>
</svg>

