<?xml version="1.0" encoding="utf-8"?>
<!-- Generator: Adobe Illustrator 23.1.1, SVG Export Plug-In . SVG Version: 6.00 Build 0)  -->
<svg version="1.2" baseProfile="tiny" id="g-top-Artboard_1-img" xmlns="http://www.w3.org/2000/svg" xmlns:xlink="http://www.w3.org/1999/xlink"
	 x="0px" y="0px" viewBox="0 0 250 150" xml:space="preserve">
<g>
	<g id="Rtixi6_1_">
		<g>
			<path fill="#F1373D" d="M171.31,130.183c-0.623,3.526-3.264,5.37-7.153,5.298c-3.465-0.064-6.169-2.123-6.454-5.569
				c-0.313-3.783-0.347-7.637-0.002-11.414c0.348-3.809,3.323-5.82,7.392-5.626c3.615,0.172,6.23,2.741,6.436,6.425
				c0.091,1.632,0.015,3.274,0.015,4.911 M167.57,124.204c-0.093-1.732-0.094-3.517-0.31-5.276c-0.195-1.589-1.17-2.262-2.82-2.243
				c-1.579,0.018-2.624,0.715-2.683,2.263c-0.131,3.476-0.141,6.963-0.01,10.438c0.062,1.645,1.11,2.41,2.662,2.455
				c1.595,0.046,2.653-0.727,2.86-2.376C167.485,127.742,167.477,125.992,167.57,124.204z"/>
			<path fill="#F1373D" d="M140.844,118.771c1.542-6.035,7.136-6.936,10.922-5.02c2.209,1.118,3.211,3.805,2.672,6.716
				c-0.428,2.314-1.742,4.035-3.519,5.467c-1.132,0.912-2.307,1.776-3.397,2.735c-0.838,0.738-1.568,1.595-1.781,2.981
				c0.657,0,1.22,0,1.784,0c2.037,0,4.075,0.017,6.112-0.011c0.64-0.009,0.921,0.173,0.903,0.86
				c-0.088,3.213,0.469,2.604-2.508,2.645c-3.274,0.045-6.549-0.017-9.823,0.026c-0.947,0.012-1.238-0.308-1.275-1.255
				c-0.11-2.838,1.12-5.069,3.021-6.993c1.404-1.422,2.939-2.715,4.348-4.132c0.631-0.635,1.197-1.381,1.617-2.17
				c0.746-1.399,0.438-2.99-0.572-3.654c-1.239-0.814-3.168-0.519-4.169,0.674c-0.3,0.357-0.62,0.761-0.738,1.196
				c-0.272,1.003-0.831,1.002-1.622,0.659C142.19,119.224,141.534,119.021,140.844,118.771z"/>
			<path fill="#F1373D" d="M177.581,119.822c-0.967-0.319-1.985-0.655-2.993-0.987c0.806-4.376,4.531-6.47,8.242-5.888
				c5.317,0.834,7.272,6.472,3.751,10.944c-0.908,1.154-2.166,2.031-3.253,3.046c-1.112,1.037-2.241,2.057-3.3,3.146
				c-0.325,0.335-0.444,0.87-0.74,1.487c0.591,0.034,0.971,0.074,1.351,0.075c2.221,0.007,4.442,0.026,6.662-0.008
				c0.719-0.011,0.966,0.251,0.948,0.952c-0.074,2.884,0.438,2.545-2.423,2.561c-3.349,0.019-6.699-0.019-10.048,0.014
				c-0.839,0.008-1.085-0.252-1.141-1.113c-0.168-2.585,0.796-4.722,2.488-6.537c1.361-1.461,2.917-2.739,4.318-4.166
				c0.782-0.797,1.538-1.664,2.102-2.62c0.813-1.379,0.493-3.102-0.513-3.753c-1.297-0.84-3.238-0.533-4.236,0.751
				C178.336,118.317,178.032,119.029,177.581,119.822z"/>
			<path fill="#194BA0" d="M122.199,119.196c0,5.294,0,10.588,0,15.884c-0.25,0.064-0.386,0.12-0.525,0.131
				c-1.989,0.162-1.987,0.16-1.987-1.845c0-6.298-0.01-12.596,0.014-18.894c0.002-0.462-0.357-1.252,0.511-1.307
				c0.764-0.049,1.601-0.343,2.178,0.684c2.674,4.753,5.425,9.463,8.15,14.188c0.17,0.294,0.355,0.58,0.76,0.79
				c0.023-0.38,0.066-0.76,0.067-1.141c0.004-4.223,0.005-8.446,0.001-12.669c-0.002-2.087,0.072-2.148,2.375-1.747
				c0.018,0.394,0.053,0.815,0.053,1.237c0.003,6.48,0.011,12.96-0.019,19.44c-0.002,0.421-0.227,1.146-0.469,1.202
				c-0.658,0.151-1.418,0.288-1.896-0.573c-1.395-2.51-2.85-4.988-4.279-7.479c-1.357-2.366-2.709-4.734-4.067-7.099
				c-0.174-0.304-0.375-0.592-0.564-0.888C122.401,119.139,122.3,119.168,122.199,119.196z"/>
			<path fill="#194BA0" d="M115.274,124.187c-0.097,1.995-0.009,4.02-0.332,5.978c-0.529,3.201-2.887,5.151-6.153,5.295
				c-1.15,0.051-2.344-0.024-3.46-0.287c-2.868-0.676-4.589-2.722-4.78-6.151c-0.19-3.407-0.161-6.849,0.094-10.252
				c0.267-3.559,2.844-5.766,6.418-5.893c0.901-0.032,1.825,0.019,2.71,0.181c3.261,0.597,5.285,2.975,5.393,6.317
				c0.052,1.601,0.009,3.205,0.009,4.808C115.207,124.184,115.24,124.186,115.274,124.187z M103.362,124.115
				c-0.001,0-0.003,0-0.004,0c0,1.672-0.09,3.35,0.021,5.014c0.168,2.51,1.721,3.957,4.134,4.04
				c2.786,0.096,4.379-1.071,4.722-3.714c0.214-1.647,0.169-3.334,0.164-5.002c-0.006-1.886,0.057-3.792-0.188-5.653
				c-0.328-2.496-2.014-3.681-4.628-3.568c-2.485,0.107-4.029,1.502-4.199,3.978C103.271,120.838,103.362,122.48,103.362,124.115z"
				/>
			<path fill="#194BA0" d="M47.646,132.728c3.225,0,6.343,0,9.66,0c0,0.713,0.054,1.355-0.031,1.977
				c-0.027,0.199-0.424,0.494-0.654,0.496c-3.711,0.03-7.422,0.011-11.134,0.025c-0.877,0.003-0.749-0.587-0.75-1.127
				c-0.001-6.187-0.002-12.374-0.003-18.561c0-0.546-0.089-1.113,0.033-1.63c0.071-0.3,0.477-0.74,0.737-0.744
				c3.565-0.05,7.131-0.051,10.696-0.004c0.266,0.004,0.681,0.43,0.754,0.727c0.125,0.505,0.035,1.064,0.035,1.712
				c-3.172,0-6.209,0-9.316,0c0,2.386,0,4.661,0,7.043c2.404,0,4.789,0,7.218,0c0.055,0.34,0.12,0.582,0.129,0.825
				c0.055,1.479,0.051,1.481-1.47,1.482c-1.954,0.001-3.909,0-5.906,0C47.646,127.57,47.646,130.071,47.646,132.728z"/>
			<path fill="#194BA0" d="M25.754,132.703c0,0.894,0,1.61,0,2.422c-4.146,0-8.272,0-12.467,0c0-7.291,0-14.558,0-21.91
				c3.977,0,7.962,0,12.04,0c0,0.766,0,1.504,0,2.373c-3.067,0-6.105,0-9.221,0c0,2.404,0,4.678,0,7.086c2.432,0,4.812,0,7.267,0
				c0,0.768,0,1.406,0,2.278c-0.737,0-1.478,0-2.219,0c-1.42,0-2.842-0.03-4.26,0.028c-0.291,0.012-0.81,0.348-0.815,0.545
				c-0.057,2.358-0.037,4.717-0.037,7.179C19.315,132.703,22.465,132.703,25.754,132.703z"/>
			<path fill="#194BA0" d="M73.853,117.358c-0.802,0.321-1.397,0.56-1.763,0.707c-0.905-0.898-1.555-1.918-2.483-2.395
				c-2.997-1.54-6.001,0.403-6.175,4.019c-0.145,3.014-0.161,6.049,0.006,9.061c0.211,3.804,2.925,5.068,5.934,4.215
				c1.385-0.393,1.911-1.576,2.416-2.901c0.66,0.213,1.294,0.418,1.909,0.617c-0.141,2.599-2.441,4.622-5.369,4.802
				c-4.735,0.291-7.718-2.46-7.744-7.196c-0.017-3.093-0.056-6.191,0.075-9.28c0.123-2.894,2.002-5.163,4.59-5.875
				c3.002-0.827,5.967,0.081,7.617,2.38C73.237,116.028,73.475,116.641,73.853,117.358z"/>
			<path fill="#144DA6" d="M208.926,124.034c0-2.753,0-5.492,0-8.287c3.956,0,7.825,0,11.77,0c0,2.774,0,5.484,0,8.287
				C216.791,124.034,212.895,124.034,208.926,124.034z"/>
			<path fill="#194BA0" d="M81.228,115.617c-1.911,0-3.644,0-5.442,0c0-0.846,0-1.591,0-2.412c4.59,0,9.157,0,13.77,0
				c0,0.784,0,1.502,0,2.369c-1.748,0-3.51,0-5.387,0c-0.033,0.556-0.08,0.975-0.08,1.394c-0.006,5.68-0.056,11.361,0.029,17.039
				c0.022,1.482-0.847,1.146-1.671,1.232c-0.97,0.102-1.244-0.264-1.237-1.225c0.041-5.643,0.02-11.287,0.02-16.93
				C81.228,116.653,81.228,116.222,81.228,115.617z"/>
			<path fill="#194BA0" d="M41.086,132.735c0,0.893,0,1.609,0,2.405c-3.754,0-7.446,0-11.244,0
				c-0.026-0.384-0.071-0.731-0.071-1.078c-0.005-6.587,0.034-13.174-0.037-19.76c-0.014-1.288,0.654-1.142,1.482-1.191
				c0.953-0.056,1.333,0.17,1.322,1.243c-0.057,5.64-0.028,11.281-0.027,16.921c0,1.454,0.003,1.457,1.5,1.458
				C36.332,132.736,38.653,132.735,41.086,132.735z"/>
			<path fill="#194BA0" d="M96.101,135.144c-0.906,0-1.756,0-2.753,0c0-0.503,0-0.929,0-1.356c0-6.371,0-12.741,0.002-19.112
				c0.001-1.557,0.006-1.56,1.529-1.545c0.393,0.004,0.785,0.038,1.221,0.06C96.101,120.54,96.101,127.802,96.101,135.144z"/>
		</g>
	</g>
	<path fill="#F1373D" d="M204.713,130.204c-0.623,3.526-3.264,5.37-7.153,5.298c-3.465-0.064-6.169-2.123-6.454-5.569
		c-0.313-3.783-0.347-7.637-0.002-11.414c0.348-3.809,3.323-5.82,7.392-5.626c3.615,0.172,6.23,2.741,6.436,6.425
		c0.091,1.632,0.015,3.274,0.015,4.911 M200.973,124.225c-0.093-1.732-0.094-3.517-0.31-5.276c-0.195-1.589-1.17-2.262-2.82-2.243
		c-1.579,0.018-2.624,0.715-2.683,2.263c-0.131,3.476-0.141,6.963-0.01,10.438c0.062,1.645,1.11,2.41,2.662,2.455
		c1.595,0.046,2.653-0.727,2.86-2.376C200.888,127.763,200.88,126.013,200.973,124.225z"/>
	<rect x="208.926" y="127.335" fill="#F1373D" width="29.465" height="4.32"/>
	<rect x="223.991" y="121.575" fill="#F1373D" width="14.4" height="2.88"/>
	<rect x="223.991" y="115.746" fill="#F1373D" width="14.4" height="2.88"/>
</g>
<style>
#g-top-Artboard_1-img rect, #g-top-Artboard_1-img circle, #g-top-Artboard_1-img path, #g-top-Artboard_1-img line, #g-top-Artboard_1-img polyline { vector-effect: non-scaling-stroke; }
</style>
</svg>

