<?xml version="1.0" encoding="utf-8"?>
<!-- Generator: Adobe Illustrator 23.1.1, SVG Export Plug-In . SVG Version: 6.00 Build 0)  -->
<svg version="1.2" baseProfile="tiny" id="g-totals-mobile-img" xmlns="http://www.w3.org/2000/svg" xmlns:xlink="http://www.w3.org/1999/xlink"
	 x="0px" y="0px" viewBox="0 0 300 780" xml:space="preserve">
<g>
	
		<line style="opacity:0.2;" fill="none" stroke="#777777" stroke-width="0.75" stroke-miterlimit="10" x1="281.487" y1="263.561" x2="43.984" y2="263.562"/>
	
		<line style="opacity:0.2;" fill="none" stroke="#777777" stroke-width="0.75" stroke-miterlimit="10" x1="281.206" y1="392.009" x2="43.704" y2="392.009"/>
	
		<line style="opacity:0.2;" fill="none" stroke="#777777" stroke-width="0.75" stroke-miterlimit="10" x1="281.153" y1="516.655" x2="43.651" y2="516.655"/>
	
		<line style="opacity:0.2;" fill="none" stroke="#777777" stroke-width="0.75" stroke-miterlimit="10" x1="281.206" y1="642.659" x2="43.704" y2="642.66"/>
	
		<line style="opacity:0.5;" fill="none" stroke="#777777" stroke-miterlimit="10" x1="281.206" y1="765.657" x2="43.651" y2="765.658"/>
	<rect x="60.307" y="227.151" fill="#D8DEF0" width="49.861" height="68.99"/>
	<rect x="60.266" y="296.141" fill="#3F5EBA" width="49.861" height="469.515"/>
	<rect x="219.689" y="188.296" fill="#3F5EBA" width="49.419" height="577.36"/>
	<rect x="110.168" y="251.352" fill="#FFFFFF" width="68.108" height="20.7"/>
	
		<line style="opacity:0.2;" fill="none" stroke="#777777" stroke-width="0.75" stroke-miterlimit="10" x1="281.288" y1="140.54" x2="44.073" y2="140.541"/>
	<rect x="219.689" y="102.751" fill="#D8DEF0" width="49.419" height="85.545"/>
	<g style="opacity:0.05;">
		<path fill="#FFFFFF" d="M219.689,106.294c0-1.087,0-2.175,0-3.262c16.473,0,32.947,0,49.421,0c0,0.181,0,0.362,0,0.544
			c-0.514-0.699-1.206-0.397-1.957-0.455c0.639,0.694,1.189,1.295,1.746,1.89c0.052,0.055,0.14,0.071,0.211,0.105
			c0,0.574,0,1.148,0,1.722c-0.988-1.057-2.025-2.068-2.948-3.188c-0.59-0.716-1.243-0.48-1.92-0.466
			c1.547,1.738,3.114,3.428,4.684,5.115c0.043,0.046,0.122,0.054,0.184,0.08c0,0.574,0,1.148,0,1.722
			c-0.113-0.11-0.231-0.215-0.338-0.331c-1.961-2.121-3.92-4.243-5.883-6.362c-0.104-0.112-0.236-0.258-0.363-0.268
			c-0.424-0.034-0.852-0.013-1.356-0.013c0.13,0.165,0.202,0.269,0.286,0.36c2.4,2.596,4.8,5.193,7.205,7.784
			c0.132,0.142,0.299,0.247,0.449,0.37c0,0.574,0,1.148,0,1.722c-0.034-0.026-0.073-0.047-0.102-0.078
			c-2.951-3.192-5.927-6.359-8.832-9.6c-0.627-0.699-1.259-0.516-2.008-0.555c0.087,0.122,0.115,0.173,0.154,0.215
			c3.494,3.784,6.989,7.567,10.486,11.347c0.083,0.09,0.201,0.142,0.303,0.212c0,0.574,0,1.148,0,1.722
			c-0.062-0.06-0.127-0.118-0.186-0.181c-3.921-4.244-7.861-8.47-11.744-12.754c-0.627-0.692-1.256-0.537-2.026-0.552
			c0.149,0.175,0.229,0.277,0.317,0.371c4.435,4.803,8.87,9.605,13.308,14.404c0.094,0.102,0.221,0.169,0.332,0.253
			c0,0.574,0,1.148,0,1.722c-0.023-0.018-0.048-0.032-0.067-0.053c-4.974-5.384-9.962-10.754-14.904-16.172
			c-0.619-0.679-1.242-0.492-2.006-0.532c0.167,0.193,0.256,0.304,0.352,0.408c5.361,5.805,10.722,11.61,16.086,17.412
			c0.164,0.177,0.359,0.319,0.54,0.478c0,0.544,0,1.087,0,1.631c-0.067-0.042-0.147-0.07-0.2-0.127
			c-1.254-1.349-2.506-2.7-3.756-4.053c-4.763-5.157-9.525-10.316-14.29-15.471c-0.103-0.112-0.236-0.256-0.363-0.267
			c-0.423-0.034-0.849-0.013-1.366-0.013c0.155,0.189,0.239,0.301,0.332,0.403c6.407,6.934,12.814,13.868,19.224,20.799
			c0.125,0.135,0.278,0.241,0.418,0.361c0,0.544,0,1.087,0,1.631c-0.129-0.107-0.27-0.201-0.384-0.324
			c-6.888-7.453-13.783-14.899-20.646-22.38c-0.61-0.665-1.228-0.426-1.978-0.497c0.184,0.209,0.277,0.32,0.375,0.427
			c6.95,7.524,13.899,15.05,20.853,22.571c0.579,0.627,1.186,1.224,1.779,1.835c0,0.544,0,1.087,0,1.631
			c-0.126-0.109-0.264-0.206-0.378-0.329c-7.902-8.552-15.809-17.098-23.689-25.673c-0.599-0.652-1.21-0.382-1.935-0.456
			c0.165,0.196,0.245,0.299,0.333,0.394c2.115,2.288,4.232,4.573,6.345,6.862c5.84,6.324,11.678,12.65,17.52,18.971
			c0.587,0.635,1.202,1.242,1.803,1.862c0,0.544,0,1.087,0,1.631c-0.137-0.122-0.284-0.233-0.409-0.368
			c-3.361-3.634-6.719-7.271-10.078-10.907c-5.593-6.055-11.187-12.11-16.783-18.161c-0.104-0.112-0.235-0.259-0.362-0.269
			c-0.424-0.034-0.852-0.013-1.279-0.013c-0.035,0.053-0.07,0.107-0.105,0.16c0.145,0.109,0.309,0.198,0.432,0.331
			c9.411,10.181,18.819,20.366,28.229,30.548c0.107,0.116,0.236,0.207,0.354,0.31c0,0.544,0,1.087,0,1.631
			c-0.107-0.091-0.224-0.171-0.32-0.275c-1.845-1.993-3.687-3.989-5.53-5.984c-8.064-8.727-16.138-17.445-24.175-26.201
			c-0.627-0.683-1.247-0.455-2.005-0.53c0.169,0.197,0.252,0.299,0.34,0.394c10.023,10.847,20.045,21.695,30.07,32.539
			c0.53,0.573,1.08,1.126,1.621,1.688c0,0.544,0,1.087,0,1.631c-0.065-0.05-0.139-0.09-0.194-0.15
			c-3.356-3.63-6.712-7.261-10.067-10.892c-7.595-8.221-15.2-16.432-22.769-24.681c-0.622-0.678-1.241-0.468-2.002-0.517
			c0.128,0.148,0.173,0.203,0.221,0.255c4.802,5.199,9.604,10.397,14.406,15.596c6.064,6.564,12.127,13.13,18.193,19.692
			c0.728,0.787,1.475,1.553,2.213,2.329c0,0.544,0,1.087,0,1.631c-0.107-0.093-0.223-0.177-0.32-0.282
			c-3.777-4.086-7.552-8.174-11.328-12.262c-8.156-8.83-16.319-17.653-24.455-26.505c-0.6-0.653-1.208-0.386-1.867-0.374
			c0.088,0.167,0.222,0.256,0.329,0.372c6.085,6.584,12.168,13.171,18.252,19.756c6.33,6.852,12.66,13.705,18.994,20.553
			c0.109,0.118,0.262,0.189,0.395,0.281c0,0.574,0,1.148,0,1.722c-0.105-0.094-0.219-0.179-0.315-0.283
			c-2.365-2.557-4.727-5.115-7.09-7.674c-10.573-11.447-21.152-22.888-31.707-34.354c-0.6-0.652-1.208-0.386-1.938-0.453
			c0.547,0.595,1.007,1.097,1.469,1.597c6.074,6.575,12.148,13.149,18.222,19.724c6.218,6.731,12.435,13.464,18.655,20.194
			c0.894,0.968,1.803,1.92,2.704,2.88c0,0.544,0,1.087,0,1.631c-0.064-0.055-0.134-0.103-0.192-0.165
			c-4.919-5.321-9.836-10.643-14.755-15.965c-5.676-6.142-11.354-12.282-17.029-18.424c-3.463-3.748-6.923-7.499-10.387-11.246
			c-0.085-0.091-0.194-0.212-0.297-0.218c-0.435-0.024-0.871-0.01-1.389-0.01c0.153,0.181,0.232,0.283,0.319,0.377
			c7.315,7.916,14.632,15.831,21.947,23.748c7.121,7.707,14.239,15.416,21.362,23.121c0.12,0.13,0.28,0.216,0.421,0.323
			c0,0.574,0,1.148,0,1.722c-0.095-0.088-0.195-0.169-0.283-0.264c-1.263-1.365-2.524-2.732-3.786-4.098
			c-8.607-9.316-17.215-18.631-25.822-27.947c-5.146-5.57-10.291-11.142-15.44-16.71c-0.103-0.111-0.238-0.251-0.366-0.261
			c-0.424-0.033-0.851-0.012-1.363-0.012c0.166,0.191,0.266,0.311,0.37,0.424c2.851,3.085,5.702,6.17,8.553,9.255
			c12.571,13.608,25.141,27.216,37.715,40.821c0.121,0.131,0.281,0.222,0.423,0.331c0,0.574,0,1.148,0,1.722
			c-0.064-0.057-0.132-0.108-0.19-0.17c-5.693-6.157-11.386-12.313-17.076-18.472c-10.323-11.174-20.647-22.348-30.957-33.536
			c-0.354-0.384-0.694-0.418-1.115-0.347c-0.11,0.462-0.007,0.8,0.311,1.139c1.588,1.688,3.15,3.405,4.724,5.108
			c6.473,7.004,12.949,14.006,19.421,21.011c8.173,8.847,16.344,17.697,24.518,26.543c0.101,0.11,0.241,0.178,0.362,0.266
			c0,0.574,0,1.148,0,1.722c-0.064-0.058-0.131-0.111-0.19-0.175c-2.541-2.749-5.081-5.499-7.621-8.249
			c-13.452-14.563-26.904-29.126-40.357-43.688c-0.368-0.399-0.743-0.791-1.162-1.236
			C219.742,105.886,219.716,106.09,219.689,106.294z"/>
		<path fill="#FFFFFF" d="M269.11,173.531c0,0.544,0,1.087,0,1.631c-0.107-0.086-0.227-0.16-0.32-0.261
			c-4.696-5.077-9.392-10.154-14.084-15.234c-11.107-12.025-22.214-24.05-33.319-36.078c-0.516-0.559-1.008-1.145-1.512-1.719
			c-0.035,0.028-0.07,0.055-0.104,0.083c-0.027,0.218-0.054,0.435-0.081,0.653c0-1.963,0-3.927,0-5.89
			c0.119,0.181,0.216,0.384,0.359,0.539c4.314,4.68,8.632,9.357,12.952,14.031c11.906,12.885,23.812,25.769,35.721,38.652
			c0.116,0.125,0.259,0.222,0.389,0.331c0,0.574,0,1.148,0,1.722c-16.441-17.763-32.881-35.526-49.377-53.349
			c0,0.261,0.024,0.457-0.004,0.645c-0.096,0.644,0.159,1.082,0.58,1.529c2.146,2.28,4.259,4.597,6.385,6.899
			c6.773,7.333,13.546,14.666,20.32,21.998c7.038,7.618,14.077,15.235,21.118,22.849C268.444,172.9,268.783,173.209,269.11,173.531z
			"/>
		<path fill="#FFFFFF" d="M262.157,188.573c-0.782,0-1.564,0-2.345,0c0.145-0.027,0.29-0.055,0.416-0.078
			c-13.504-14.59-26.996-29.167-40.495-43.752c0,0.216,0.025,0.472-0.005,0.721c-0.062,0.512,0.127,0.864,0.464,1.222
			c1.722,1.827,3.419,3.683,5.124,5.529c10.97,11.874,21.943,23.746,32.902,35.632c0.418,0.453,0.824,0.774,1.427,0.727
			c-0.81,0-1.619,0-2.429,0c-0.053-0.124-0.081-0.274-0.164-0.367c-0.414-0.467-0.843-0.919-1.266-1.377
			c-11.802-12.775-23.604-25.551-35.402-38.33c-0.182-0.197-0.315-0.447-0.47-0.673c-0.049,0.044-0.098,0.087-0.147,0.131
			c-0.026,0.248-0.052,0.496-0.078,0.744c0-2.024,0-4.047,0-6.071c0.101,0.19,0.169,0.415,0.307,0.565
			c1.863,2.033,3.735,4.055,5.605,6.08c7.465,8.08,14.93,16.16,22.395,24.24c4.533,4.906,9.065,9.813,13.604,14.713
			C261.747,188.386,261.97,188.46,262.157,188.573z"/>
		<path fill="#FFFFFF" d="M219.689,164.741c0-1.963,0-3.927,0-5.89c0.128,0.237,0.216,0.518,0.389,0.706
			c5.43,5.894,10.868,11.779,16.306,17.665c3.372,3.651,6.743,7.303,10.124,10.944c0.172,0.186,0.435,0.273,0.656,0.406
			c-1.787,0-3.574,0-5.361,0c0.128-0.029,0.256-0.059,0.31-0.071c-7.46-8.059-14.925-16.123-22.361-24.156
			C219.74,164.419,219.715,164.58,219.689,164.741z M245.17,188.521c-8.501-9.186-16.968-18.336-25.438-27.488
			c0,0.179,0.025,0.406-0.005,0.624c-0.078,0.579,0.149,0.972,0.524,1.376c3.464,3.721,6.908,7.463,10.359,11.198
			c4.299,4.653,8.598,9.307,12.901,13.956c0.123,0.133,0.278,0.302,0.431,0.319C244.351,188.551,244.767,188.521,245.17,188.521z"/>
		<path d="M219.689,106.294c0.026-0.204,0.053-0.408,0.091-0.701c0.419,0.445,0.793,0.837,1.162,1.236
			c13.453,14.562,26.905,29.125,40.357,43.688c2.54,2.75,5.08,5.5,7.621,8.249c0.059,0.063,0.126,0.117,0.19,0.175
			c0,0.513,0,1.027,0,1.54c-0.151-0.126-0.316-0.236-0.45-0.38c-2.615-2.825-5.226-5.654-7.839-8.481
			c-7.916-8.566-15.833-17.131-23.749-25.697c-5.795-6.271-11.589-12.543-17.383-18.815
			C219.689,106.838,219.689,106.566,219.689,106.294z"/>
		<path d="M219.689,126.32c0-0.242,0-0.483,0-0.725c0.033-0.15,0.066-0.3,0.109-0.498c0.139,0.143,0.24,0.243,0.337,0.347
			c8.495,9.194,16.991,18.387,25.485,27.582c6.536,7.075,13.069,14.154,19.606,21.228c1.289,1.395,2.589,2.78,3.884,4.169
			c0,0.513,0,1.027,0,1.54c-0.122-0.092-0.26-0.166-0.363-0.278c-1.906-2.057-3.807-4.118-5.709-6.178
			c-6.458-6.99-12.917-13.98-19.375-20.971c-7.886-8.536-15.773-17.07-23.654-25.612
			C219.862,126.767,219.794,126.524,219.689,126.32z"/>
		<path fill="#FFFFFF" d="M219.689,135.835c0-0.936,0-1.873,0-2.809c0.093,0.13,0.175,0.273,0.282,0.388
			c6.434,6.968,12.87,13.933,19.306,20.898c9.814,10.621,19.628,21.241,29.444,31.859c0.114,0.123,0.258,0.212,0.388,0.317
			c0,0.544,0,1.087,0,1.631c-0.148-0.126-0.31-0.238-0.442-0.381c-5.247-5.674-10.492-11.352-15.737-17.029
			c-10.279-11.125-20.559-22.25-30.837-33.375c-0.754-0.816-1.501-1.641-2.317-2.534
			C219.741,135.222,219.715,135.528,219.689,135.835z"/>
		<path d="M269.11,173.531c-0.327-0.322-0.666-0.63-0.978-0.968c-7.041-7.615-14.08-15.232-21.118-22.849
			c-6.774-7.332-13.547-14.665-20.32-21.998c-2.126-2.302-4.239-4.619-6.385-6.899c-0.421-0.448-0.675-0.885-0.58-1.529
			c0.028-0.187,0.004-0.384,0.004-0.645c16.496,17.823,32.937,35.586,49.377,53.349C269.11,172.504,269.11,173.017,269.11,173.531z"
			/>
		<path fill="#FFFFFF" d="M219.689,107.11c5.794,6.272,11.588,12.544,17.383,18.815c7.916,8.566,15.833,17.131,23.749,25.697
			c2.613,2.827,5.224,5.656,7.839,8.481c0.134,0.144,0.299,0.254,0.45,0.38c0,0.574,0,1.148,0,1.722
			c-0.042-0.039-0.088-0.074-0.127-0.117c-6.423-6.95-12.845-13.901-19.267-20.851c-9.886-10.7-19.772-21.4-29.659-32.099
			c-0.08-0.086-0.17-0.161-0.283-0.266c-0.036,0.212-0.061,0.358-0.085,0.504C219.689,108.62,219.689,107.865,219.689,107.11z"/>
		<path fill="#FFFFFF" d="M219.689,126.32c0.104,0.204,0.172,0.447,0.319,0.605c7.88,8.542,15.767,17.077,23.654,25.612
			c6.458,6.99,12.917,13.98,19.375,20.971c1.903,2.06,3.804,4.121,5.709,6.178c0.104,0.112,0.241,0.186,0.363,0.278
			c0,0.574,0,1.148,0,1.722c-0.142-0.145-0.286-0.287-0.424-0.436c-7.724-8.358-15.447-16.717-23.169-25.076
			c-8.425-9.119-16.849-18.238-25.274-27.357c-0.14-0.151-0.283-0.299-0.463-0.49c-0.04,0.238-0.065,0.384-0.089,0.53
			C219.689,128.012,219.689,127.166,219.689,126.32z"/>
		<path fill="#FFFFFF" d="M269.11,178.424c-1.295-1.389-2.594-2.774-3.884-4.169c-6.537-7.075-13.07-14.153-19.606-21.228
			c-8.494-9.195-16.99-18.388-25.485-27.582c-0.096-0.104-0.198-0.204-0.337-0.347c-0.043,0.198-0.076,0.348-0.109,0.498
			c0-0.785,0-1.571,0-2.356c0.12,0.162,0.228,0.339,0.363,0.485c8.758,9.485,17.517,18.968,26.277,28.449
			c7.462,8.076,14.926,16.15,22.391,24.223c0.112,0.121,0.258,0.205,0.388,0.306C269.11,177.276,269.11,177.85,269.11,178.424z"/>
		<path fill="#FFFFFF" d="M269.11,163.744c0,0.574,0,1.148,0,1.722c-0.032-0.029-0.067-0.055-0.097-0.087
			c-6.462-6.997-12.922-13.995-19.385-20.991c-9.63-10.425-19.262-20.849-28.894-31.273c-0.297-0.322-0.604-0.634-0.962-1.01
			c-0.033,0.427-0.058,0.751-0.083,1.076c0-1.118,0-2.235,0-3.353c-0.02,0.518,0.268,0.84,0.585,1.174
			c1.008,1.063,1.996,2.149,2.991,3.226c6.896,7.466,13.79,14.934,20.687,22.399c8.195,8.87,16.392,17.739,24.59,26.606
			C268.715,163.421,268.92,163.575,269.11,163.744z"/>
		<path d="M219.689,113.181c0.025-0.324,0.05-0.649,0.083-1.076c0.358,0.376,0.664,0.688,0.962,1.01
			c9.632,10.424,19.264,20.848,28.894,31.273c6.462,6.996,12.923,13.994,19.385,20.991c0.029,0.032,0.064,0.058,0.097,0.087
			c0,0.513,0,1.027,0,1.54c-0.111-0.085-0.236-0.155-0.33-0.257c-7.217-7.808-14.431-15.618-21.645-23.428
			c-8.462-9.16-16.925-18.319-25.385-27.481c-0.697-0.755-1.374-1.531-2.06-2.297C219.689,113.423,219.689,113.302,219.689,113.181z
			"/>
		<path d="M269.11,186.489c-0.13-0.105-0.275-0.194-0.388-0.317c-9.816-10.618-19.63-21.238-29.444-31.859
			c-6.436-6.965-12.872-13.931-19.306-20.898c-0.107-0.116-0.188-0.258-0.282-0.388c0-0.242,0-0.483,0-0.725
			c0.03-0.211,0.06-0.423,0.099-0.699c0.101,0.103,0.15,0.15,0.196,0.2c2.53,2.737,5.059,5.474,7.588,8.211
			c11.07,11.979,22.139,23.958,33.21,35.937c2.774,3.002,5.552,5.999,8.328,8.999C269.11,185.462,269.11,185.975,269.11,186.489z"/>
		<path fill="#FFFFFF" d="M269.11,184.948c-2.776-3-5.554-5.997-8.328-8.999c-11.071-11.978-22.14-23.958-33.21-35.937
			c-2.529-2.737-5.059-5.474-7.588-8.211c-0.046-0.05-0.095-0.097-0.196-0.2c-0.039,0.276-0.069,0.487-0.099,0.699
			c0-0.846,0-1.691,0-2.537c0.103,0.141,0.195,0.294,0.311,0.42c6.041,6.542,12.086,13.08,18.128,19.62
			c9.999,10.824,19.997,21.649,29.998,32.47c0.311,0.336,0.655,0.636,0.983,0.953C269.11,183.801,269.11,184.375,269.11,184.948z"/>
		<path fill="#FFFFFF" d="M219.689,113.544c0.686,0.766,1.363,1.542,2.06,2.297c8.46,9.162,16.923,18.321,25.385,27.481
			c7.215,7.81,14.429,15.62,21.645,23.428c0.095,0.102,0.22,0.172,0.33,0.257c0,0.574,0,1.148,0,1.722
			c-4.16-4.498-8.323-8.994-12.48-13.494c-11.543-12.495-23.085-24.991-34.626-37.489c-0.724-0.784-1.433-1.585-2.217-2.453
			c-0.044,0.354-0.07,0.572-0.097,0.789C219.689,115.235,219.689,114.389,219.689,113.544z"/>
		<path d="M269.11,183.227c-0.328-0.317-0.672-0.617-0.983-0.953c-10.001-10.821-19.999-21.647-29.998-32.47
			c-6.042-6.541-12.087-13.079-18.128-19.62c-0.117-0.126-0.208-0.279-0.311-0.42c0-0.302,0-0.604,0-0.906
			c0.025-0.146,0.049-0.292,0.089-0.53c0.18,0.191,0.324,0.338,0.463,0.49c8.425,9.119,16.849,18.238,25.274,27.357
			c7.723,8.359,15.446,16.718,23.169,25.076c0.138,0.149,0.283,0.291,0.424,0.436C269.11,182.2,269.11,182.713,269.11,183.227z"/>
		<path d="M269.11,157.22c-0.122-0.088-0.261-0.156-0.362-0.266c-8.175-8.846-16.345-17.696-24.518-26.543
			c-6.472-7.005-12.948-14.007-19.421-21.011c-1.574-1.703-3.136-3.42-4.724-5.108c-0.318-0.338-0.421-0.677-0.311-1.139
			c0.421-0.071,0.761-0.037,1.115,0.347c10.31,11.188,20.634,22.362,30.957,33.536c5.69,6.159,11.383,12.316,17.076,18.472
			c0.058,0.063,0.126,0.114,0.19,0.17C269.11,156.193,269.11,156.707,269.11,157.22z"/>
		<path d="M219.689,116.081c0.027-0.218,0.053-0.435,0.097-0.789c0.784,0.868,1.493,1.669,2.217,2.453
			c11.541,12.498,23.083,24.994,34.626,37.489c4.158,4.501,8.32,8.996,12.48,13.494c0,0.513,0,1.027,0,1.54
			c-0.13-0.11-0.273-0.206-0.389-0.331c-11.908-12.882-23.815-25.766-35.721-38.652c-4.319-4.675-8.637-9.351-12.952-14.031
			c-0.143-0.155-0.24-0.358-0.359-0.539C219.689,116.504,219.689,116.292,219.689,116.081z"/>
		<path d="M269.11,163.744c-0.19-0.169-0.394-0.323-0.568-0.51c-8.198-8.867-16.395-17.735-24.59-26.606
			c-6.897-7.465-13.791-14.933-20.687-22.399c-0.995-1.077-1.983-2.163-2.991-3.226c-0.317-0.334-0.605-0.657-0.585-1.174
			c0-0.151,0-0.302,0-0.453c0.025-0.146,0.049-0.292,0.085-0.504c0.113,0.105,0.203,0.18,0.283,0.266
			c9.887,10.699,19.773,21.399,29.659,32.099c6.422,6.951,12.844,13.901,19.267,20.851c0.039,0.042,0.085,0.078,0.127,0.117
			C269.11,162.718,269.11,163.231,269.11,163.744z"/>
		<path d="M269.11,176.702c-0.13-0.101-0.276-0.185-0.388-0.306c-7.466-8.072-14.929-16.146-22.391-24.223
			c-8.761-9.481-17.52-18.964-26.277-28.449c-0.135-0.146-0.243-0.323-0.363-0.485c0-0.211,0-0.423,0-0.634
			c0.027-0.218,0.054-0.435,0.081-0.653c0.035-0.028,0.07-0.055,0.104-0.083c0.503,0.574,0.995,1.16,1.512,1.719
			c11.104,12.028,22.211,24.054,33.319,36.078c4.693,5.08,9.388,10.158,14.084,15.234c0.094,0.101,0.213,0.175,0.32,0.261
			C269.11,175.675,269.11,176.189,269.11,176.702z"/>
		<path d="M219.689,135.835c0.026-0.307,0.052-0.613,0.087-1.034c0.816,0.893,1.563,1.717,2.317,2.534
			c10.279,11.126,20.558,22.25,30.837,33.375c5.245,5.677,10.49,11.354,15.737,17.029c0.132,0.143,0.294,0.255,0.442,0.381
			c0,0.121,0,0.242,0,0.362c-0.718,0.141-1.289,0.012-1.863-0.615c-5.125-5.603-10.288-11.165-15.438-16.74
			c-10.558-11.428-21.114-22.857-31.677-34.279c-0.247-0.267-0.436-0.536-0.443-0.923
			C219.689,135.895,219.689,135.865,219.689,135.835z"/>
		<path fill="#FFFFFF" d="M219.689,135.926c0.007,0.387,0.195,0.655,0.443,0.923c10.562,11.423,21.119,22.852,31.677,34.279
			c5.151,5.575,10.314,11.137,15.438,16.74c0.574,0.627,1.144,0.756,1.863,0.615c-0.07,0.03-0.139,0.086-0.209,0.087
			c-1.131,0.005-2.262,0.004-3.392,0.004c0.248-0.031,0.495-0.062,0.796-0.1c-15.551-16.797-31.046-33.531-46.538-50.264
			c-0.019,0.087-0.048,0.216-0.076,0.344C219.689,137.677,219.689,136.802,219.689,135.926z"/>
		<path d="M269.11,153.958c-0.142-0.109-0.301-0.2-0.423-0.331c-12.573-13.605-25.144-27.213-37.715-40.821
			c-2.851-3.086-5.702-6.17-8.553-9.255c-0.105-0.114-0.204-0.233-0.37-0.424c0.513,0,0.94-0.02,1.363,0.012
			c0.128,0.01,0.263,0.149,0.366,0.261c5.149,5.568,10.294,11.14,15.44,16.71c8.607,9.316,17.215,18.631,25.822,27.947
			c1.262,1.366,2.523,2.733,3.786,4.098c0.088,0.095,0.189,0.176,0.283,0.264C269.11,152.931,269.11,153.445,269.11,153.958z"/>
		<path d="M219.689,138.553c0.029-0.128,0.057-0.257,0.076-0.344c15.492,16.733,30.986,33.468,46.538,50.264
			c-0.301,0.038-0.548,0.069-0.796,0.1c-0.195,0-0.391,0-0.586,0c-0.108-0.115-0.217-0.23-0.325-0.346
			c-5.813-6.294-11.626-12.59-17.44-18.883c-7.106-7.691-14.214-15.38-21.322-23.069c-2.046-2.213-4.097-4.423-6.145-6.634
			C219.689,139.278,219.689,138.916,219.689,138.553z"/>
		<path fill="#FFFFFF" d="M219.689,139.641c2.048,2.211,4.099,4.42,6.145,6.634c7.108,7.689,14.216,15.378,21.322,23.069
			c5.815,6.293,11.627,12.589,17.44,18.883c0.107,0.116,0.216,0.231,0.325,0.346c-0.782,0-1.564,0-2.345,0
			c0.225-0.028,0.45-0.057,0.706-0.089c-14.529-15.698-29.021-31.357-43.517-47.019c-0.023,0.188-0.05,0.405-0.076,0.623
			C219.689,141.272,219.689,140.456,219.689,139.641z"/>
		<path d="M269.11,150.696c-0.141-0.107-0.301-0.193-0.421-0.323c-7.123-7.705-14.241-15.414-21.362-23.121
			c-7.315-7.917-14.631-15.832-21.947-23.748c-0.087-0.094-0.166-0.196-0.319-0.377c0.518,0,0.954-0.014,1.389,0.01
			c0.103,0.006,0.212,0.126,0.297,0.218c3.464,3.747,6.924,7.498,10.387,11.246c5.676,6.142,11.353,12.283,17.029,18.424
			c4.918,5.322,9.836,10.644,14.755,15.965c0.057,0.062,0.127,0.111,0.192,0.165C269.11,149.669,269.11,150.182,269.11,150.696z"/>
		<path d="M219.689,142.087c0.027-0.218,0.053-0.435,0.076-0.623c14.495,15.662,28.988,31.321,43.517,47.019
			c-0.256,0.032-0.481,0.061-0.706,0.089c-0.14,0-0.279,0-0.419,0c-0.187-0.113-0.41-0.187-0.556-0.345
			c-4.539-4.899-9.071-9.806-13.604-14.713c-7.465-8.08-14.93-16.16-22.395-24.24c-1.87-2.025-3.743-4.047-5.605-6.08
			c-0.138-0.15-0.206-0.375-0.307-0.565C219.689,142.45,219.689,142.269,219.689,142.087z"/>
		<path d="M269.11,147.524c-0.902-0.96-1.81-1.912-2.704-2.88c-6.22-6.73-12.437-13.463-18.655-20.194
			c-6.074-6.575-12.148-13.149-18.222-19.724c-0.462-0.5-0.922-1.003-1.469-1.597c0.73,0.067,1.338-0.199,1.938,0.453
			c10.555,11.466,21.133,22.908,31.707,34.354c2.363,2.558,4.726,5.117,7.09,7.674c0.096,0.104,0.21,0.189,0.315,0.283
			C269.11,146.437,269.11,146.981,269.11,147.524z"/>
		<path d="M259.644,188.573c-0.602,0.047-1.009-0.274-1.427-0.727c-10.959-11.886-21.932-23.758-32.902-35.632
			c-1.705-1.846-3.402-3.702-5.124-5.529c-0.337-0.358-0.526-0.71-0.464-1.222c0.03-0.248,0.005-0.504,0.005-0.721
			c13.499,14.585,26.991,29.162,40.495,43.752c-0.126,0.024-0.271,0.051-0.416,0.078C259.756,188.573,259.7,188.573,259.644,188.573
			z"/>
		<path d="M269.11,144.172c-0.133-0.093-0.286-0.163-0.395-0.281c-6.334-6.849-12.664-13.701-18.994-20.553
			c-6.084-6.586-12.166-13.172-18.252-19.756c-0.108-0.117-0.241-0.206-0.329-0.372c0.659-0.011,1.267-0.279,1.867,0.374
			c8.136,8.852,16.299,17.675,24.455,26.505c3.776,4.088,7.551,8.176,11.328,12.262c0.097,0.105,0.213,0.188,0.32,0.282
			C269.11,143.145,269.11,143.658,269.11,144.172z"/>
		<path d="M219.689,148.702c0.026-0.248,0.052-0.496,0.078-0.744c0.049-0.044,0.098-0.087,0.147-0.131
			c0.156,0.225,0.288,0.475,0.47,0.673c11.798,12.779,23.6,25.555,35.402,38.33c0.423,0.458,0.852,0.91,1.266,1.377
			c0.083,0.093,0.11,0.243,0.164,0.367c-0.419,0-0.838,0-1.256,0c-0.138-0.124-0.286-0.238-0.412-0.375
			c-5.526-5.982-11.047-11.968-16.574-17.949c-6.323-6.844-12.651-13.682-18.972-20.529c-0.139-0.151-0.209-0.375-0.312-0.565
			C219.689,149.004,219.689,148.853,219.689,148.702z"/>
		<path fill="#FFFFFF" d="M219.689,149.155c0.102,0.19,0.173,0.415,0.312,0.565c6.32,6.847,12.648,13.685,18.972,20.529
			c5.526,5.981,11.048,11.967,16.574,17.949c0.126,0.137,0.274,0.25,0.412,0.375c-0.754,0-1.508,0-2.262,0
			c0.175-0.027,0.351-0.054,0.523-0.081c-11.502-12.421-22.994-24.83-34.466-37.219c-0.016,0.127-0.041,0.318-0.065,0.51
			C219.689,150.907,219.689,150.031,219.689,149.155z"/>
		<path d="M269.11,141c-0.738-0.776-1.485-1.542-2.213-2.329c-6.066-6.562-12.129-13.127-18.193-19.692
			c-4.802-5.198-9.604-10.397-14.406-15.596c-0.048-0.052-0.093-0.108-0.221-0.255c0.761,0.05,1.38-0.16,2.002,0.517
			c7.57,8.249,15.174,16.46,22.769,24.681c3.355,3.631,6.71,7.262,10.067,10.892c0.056,0.06,0.129,0.1,0.194,0.15
			C269.11,139.913,269.11,140.456,269.11,141z"/>
		<path d="M219.689,151.783c0.025-0.192,0.049-0.383,0.065-0.51c11.472,12.388,22.963,24.798,34.466,37.219
			c-0.172,0.027-0.347,0.054-0.523,0.081c-0.084,0-0.168,0-0.251,0c-0.384-0.01-0.696-0.129-0.99-0.449
			c-3.883-4.226-7.781-8.435-11.674-12.649c-6.866-7.432-13.731-14.865-20.602-22.292c-0.276-0.299-0.493-0.599-0.49-1.037
			C219.689,152.025,219.689,151.904,219.689,151.783z"/>
		<path fill="#FFFFFF" d="M219.689,152.146c-0.003,0.438,0.213,0.738,0.49,1.037c6.871,7.426,13.736,14.86,20.602,22.292
			c3.894,4.214,7.792,8.423,11.674,12.649c0.294,0.32,0.606,0.44,0.99,0.449c-0.754,0-1.508,0-2.262,0
			c-0.068-0.144-0.109-0.318-0.209-0.428c-3.21-3.484-6.427-6.96-9.641-10.44c-7.078-7.663-14.155-15.326-21.232-22.989
			c-0.092-0.1-0.189-0.194-0.33-0.338c-0.033,0.343-0.058,0.595-0.082,0.847C219.689,154.2,219.689,153.173,219.689,152.146z"/>
		<path d="M269.11,137.738c-0.541-0.562-1.091-1.114-1.621-1.688c-10.025-10.845-20.048-21.692-30.07-32.539
			c-0.088-0.095-0.171-0.197-0.34-0.394c0.759,0.075,1.378-0.152,2.005,0.53c8.038,8.756,16.111,17.474,24.175,26.201
			c1.843,1.995,3.685,3.991,5.53,5.984c0.096,0.104,0.213,0.184,0.32,0.275C269.11,136.651,269.11,137.194,269.11,137.738z"/>
		<path d="M219.689,155.227c0.024-0.252,0.049-0.504,0.082-0.847c0.141,0.144,0.238,0.238,0.33,0.338
			c7.078,7.663,14.155,15.327,21.232,22.989c3.214,3.479,6.431,6.956,9.641,10.44c0.101,0.109,0.141,0.284,0.209,0.428
			c-0.419,0-0.838,0-1.256,0c-0.136-0.127-0.28-0.246-0.407-0.383c-8.769-9.489-17.537-18.978-26.303-28.47
			c-1.182-1.28-2.353-2.572-3.529-3.859C219.689,155.65,219.689,155.438,219.689,155.227z"/>
		<path fill="#FFFFFF" d="M219.689,155.861c1.176,1.287,2.347,2.579,3.529,3.859c8.766,9.492,17.534,18.981,26.303,28.47
			c0.127,0.137,0.271,0.256,0.407,0.383c-0.81,0-1.619,0-2.429,0c0.236-0.03,0.471-0.06,0.657-0.083
			c-9.481-10.242-18.953-20.475-28.402-30.682c-0.014,0.087-0.039,0.248-0.064,0.41
			C219.689,157.432,219.689,156.646,219.689,155.861z"/>
		<path d="M269.11,134.476c-0.119-0.103-0.248-0.194-0.354-0.31c-9.41-10.183-18.818-20.367-28.229-30.548
			c-0.123-0.133-0.287-0.221-0.432-0.331c0.035-0.053,0.07-0.107,0.105-0.16c0.427,0,0.855-0.021,1.279,0.013
			c0.127,0.01,0.258,0.157,0.362,0.269c5.596,6.052,11.189,12.107,16.783,18.161c3.359,3.636,6.717,7.273,10.078,10.907
			c0.125,0.135,0.272,0.246,0.409,0.368C269.11,133.388,269.11,133.932,269.11,134.476z"/>
		<path d="M219.689,158.217c0.025-0.161,0.051-0.323,0.064-0.41c9.449,10.207,18.921,20.44,28.402,30.682
			c-0.185,0.024-0.421,0.054-0.657,0.083c-0.112,0-0.223,0-0.335,0c-0.221-0.133-0.483-0.221-0.656-0.406
			c-3.381-3.641-6.752-7.294-10.124-10.944c-5.437-5.886-10.876-11.771-16.306-17.665c-0.173-0.188-0.261-0.469-0.389-0.706
			C219.689,158.64,219.689,158.428,219.689,158.217z"/>
		<path d="M269.11,131.214c-0.602-0.62-1.216-1.226-1.803-1.862c-5.843-6.321-11.68-12.647-17.52-18.971
			c-2.114-2.289-4.231-4.574-6.345-6.862c-0.088-0.095-0.168-0.198-0.333-0.394c0.725,0.074,1.336-0.196,1.935,0.456
			c7.88,8.575,15.787,17.122,23.689,25.673c0.114,0.123,0.251,0.22,0.378,0.329C269.11,130.126,269.11,130.67,269.11,131.214z"/>
		<path d="M269.11,127.951c-0.594-0.611-1.2-1.208-1.779-1.835c-6.953-7.521-13.903-15.046-20.853-22.571
			c-0.098-0.106-0.191-0.217-0.375-0.427c0.75,0.071,1.368-0.168,1.978,0.497c6.863,7.481,13.757,14.927,20.646,22.38
			c0.114,0.123,0.255,0.217,0.384,0.324C269.11,126.864,269.11,127.408,269.11,127.951z"/>
		<path d="M219.689,164.741c0.026-0.161,0.051-0.322,0.063-0.395c7.436,8.033,14.901,16.096,22.361,24.156
			c-0.054,0.013-0.182,0.042-0.31,0.071c-0.307,0-0.614,0-0.921,0c-0.123-0.121-0.251-0.236-0.369-0.363
			c-6.842-7.405-13.684-14.811-20.52-22.222c-0.131-0.142-0.203-0.346-0.303-0.521C219.689,165.225,219.689,164.983,219.689,164.741
			z"/>
		<path fill="#FFFFFF" d="M219.689,165.466c0.1,0.175,0.172,0.38,0.303,0.521c6.837,7.411,13.678,14.817,20.52,22.222
			c0.117,0.127,0.246,0.243,0.369,0.363c-0.782,0-1.564,0-2.345,0c0.214-0.027,0.427-0.055,0.649-0.083
			c-6.488-7.007-12.952-13.988-19.418-20.972c-0.023,0.172-0.05,0.374-0.078,0.577C219.689,167.218,219.689,166.342,219.689,165.466
			z"/>
		<path fill="#FFFFFF" d="M231.835,188.573c-0.81,0-1.619,0-2.429,0c0.242-0.028,0.485-0.055,0.667-0.076
			c-3.437-3.717-6.884-7.445-10.344-11.187c0.091,0.625-0.179,1.277,0.4,1.89c2.799,2.961,5.555,5.97,8.316,8.972
			c0.232,0.252,0.469,0.405,0.793,0.402c-0.698,0-1.396,0-2.094,0c-0.067-0.134-0.109-0.295-0.204-0.398
			c-2.298-2.497-4.602-4.989-6.906-7.48c-0.071-0.076-0.157-0.137-0.264-0.229c-0.032,0.265-0.056,0.471-0.081,0.677
			c0-1.994,0-3.987,0-5.981c0.103,0.204,0.179,0.435,0.316,0.607c0.244,0.307,0.527,0.579,0.792,0.866
			C224.477,180.614,228.156,184.594,231.835,188.573z"/>
		<path d="M269.11,124.689c-0.14-0.12-0.292-0.225-0.418-0.361c-6.41-6.931-12.817-13.865-19.224-20.799
			c-0.094-0.102-0.177-0.214-0.332-0.403c0.516,0,0.943-0.021,1.366,0.013c0.127,0.01,0.259,0.155,0.363,0.267
			c4.765,5.155,9.527,10.314,14.29,15.471c1.25,1.353,2.502,2.704,3.756,4.053c0.053,0.057,0.133,0.086,0.2,0.127
			C269.11,123.602,269.11,124.146,269.11,124.689z"/>
		<path d="M219.689,168.094c0.027-0.202,0.055-0.405,0.078-0.577c6.467,6.984,12.931,13.966,19.418,20.972
			c-0.222,0.028-0.436,0.056-0.649,0.083c-0.112,0-0.223,0-0.335,0c-0.237-0.129-0.525-0.202-0.704-0.395
			c-5.811-6.27-11.612-12.551-17.405-18.84c-0.189-0.205-0.271-0.525-0.403-0.791C219.689,168.396,219.689,168.245,219.689,168.094z
			"/>
		<path fill="#FFFFFF" d="M219.689,168.547c0.132,0.266,0.215,0.586,0.403,0.791c5.793,6.29,11.594,12.57,17.405,18.84
			c0.178,0.193,0.467,0.266,0.704,0.395c-0.782,0-1.564,0-2.345,0c0.108-0.035,0.216-0.07,0.278-0.09
			c-5.472-5.913-10.931-11.81-16.377-17.695c-0.02,0.246-0.044,0.543-0.068,0.84C219.689,170.601,219.689,169.574,219.689,168.547z"
			/>
		<path d="M269.11,121.427c-0.181-0.158-0.376-0.301-0.54-0.478c-5.364-5.802-10.725-11.607-16.086-17.412
			c-0.096-0.104-0.186-0.215-0.352-0.408c0.764,0.04,1.386-0.147,2.006,0.532c4.942,5.418,9.93,10.788,14.904,16.172
			c0.019,0.021,0.045,0.036,0.067,0.053C269.11,120.4,269.11,120.914,269.11,121.427z"/>
		<path d="M219.689,171.628c0.024-0.297,0.048-0.594,0.068-0.84c5.446,5.884,10.905,11.782,16.377,17.695
			c-0.062,0.02-0.17,0.055-0.278,0.09c-0.279,0-0.558,0-0.838,0c-0.15-0.098-0.323-0.169-0.446-0.298
			c-0.572-0.598-1.13-1.211-1.692-1.819c-4.397-4.761-8.794-9.523-13.191-14.284C219.689,171.99,219.689,171.809,219.689,171.628z"
			/>
		<path fill="#FFFFFF" d="M219.689,172.172c4.397,4.761,8.794,9.523,13.191,14.284c0.562,0.609,1.12,1.222,1.692,1.819
			c0.123,0.128,0.296,0.2,0.446,0.298c-0.838,0-1.675,0-2.513,0c0.215-0.027,0.429-0.054,0.615-0.078
			c-4.461-4.819-8.918-9.634-13.366-14.438c-0.01,0.031-0.038,0.115-0.065,0.198C219.689,173.561,219.689,172.866,219.689,172.172z"
			/>
		<path d="M269.11,118.165c-0.111-0.084-0.238-0.151-0.332-0.253c-4.438-4.799-8.873-9.602-13.308-14.404
			c-0.087-0.094-0.167-0.196-0.317-0.371c0.771,0.016,1.399-0.14,2.026,0.552c3.884,4.285,7.823,8.51,11.744,12.754
			c0.059,0.064,0.124,0.121,0.186,0.181C269.11,117.138,269.11,117.652,269.11,118.165z"/>
		<path d="M219.689,174.256c0.027-0.084,0.055-0.167,0.065-0.198c4.447,4.804,8.904,9.619,13.366,14.438
			c-0.185,0.023-0.4,0.05-0.615,0.078c-0.223,0-0.447,0-0.67,0c-3.679-3.979-7.358-7.959-11.038-11.938
			c-0.266-0.287-0.548-0.559-0.792-0.866c-0.137-0.173-0.213-0.403-0.316-0.607C219.689,174.86,219.689,174.558,219.689,174.256z"/>
		<path d="M269.11,114.903c-0.102-0.07-0.22-0.122-0.303-0.212c-3.498-3.78-6.992-7.563-10.486-11.347
			c-0.038-0.041-0.067-0.092-0.154-0.215c0.749,0.039,1.382-0.144,2.008,0.555c2.905,3.24,5.881,6.407,8.832,9.6
			c0.029,0.031,0.068,0.052,0.102,0.078C269.11,113.876,269.11,114.389,269.11,114.903z"/>
		<path d="M229.238,188.573c-0.324,0.003-0.561-0.149-0.793-0.402c-2.761-3.003-5.517-6.011-8.316-8.972
			c-0.579-0.612-0.309-1.265-0.4-1.89c3.46,3.742,6.907,7.47,10.344,11.187c-0.182,0.021-0.425,0.049-0.667,0.076
			C229.35,188.573,229.294,188.573,229.238,188.573z"/>
		<path d="M269.11,111.641c-0.151-0.122-0.317-0.227-0.449-0.37c-2.404-2.592-4.805-5.188-7.205-7.784
			c-0.084-0.091-0.156-0.195-0.286-0.36c0.504,0,0.932-0.021,1.356,0.013c0.127,0.01,0.259,0.156,0.363,0.268
			c1.963,2.118,3.922,4.241,5.883,6.362c0.107,0.116,0.225,0.221,0.338,0.331C269.11,110.614,269.11,111.127,269.11,111.641z"/>
		<path d="M219.689,181.143c0.025-0.206,0.049-0.412,0.081-0.677c0.108,0.093,0.194,0.153,0.264,0.229
			c2.304,2.491,4.608,4.982,6.906,7.48c0.095,0.103,0.137,0.264,0.204,0.398c-0.447,0-0.893,0-1.34,0
			c-1.902-2.061-3.808-4.119-5.701-6.189c-0.176-0.192-0.277-0.464-0.413-0.698C219.689,181.505,219.689,181.324,219.689,181.143z"
			/>
		<path fill="#FFFFFF" d="M219.689,181.686c0.136,0.235,0.238,0.506,0.413,0.698c1.894,2.07,3.799,4.128,5.701,6.189
			c-0.698,0-1.396,0-2.094,0c0.145-0.027,0.289-0.054,0.357-0.066c-1.432-1.553-2.875-3.119-4.309-4.675
			c-0.018,0.102-0.044,0.247-0.069,0.392C219.689,183.378,219.689,182.532,219.689,181.686z"/>
		<path d="M269.11,108.379c-0.062-0.026-0.141-0.034-0.184-0.08c-1.57-1.687-3.137-3.377-4.684-5.115
			c0.677-0.014,1.33-0.25,1.92,0.466c0.923,1.12,1.959,2.131,2.948,3.188C269.11,107.352,269.11,107.865,269.11,108.379z"/>
		<path d="M219.689,184.224c0.026-0.145,0.051-0.29,0.069-0.392c1.434,1.556,2.877,3.122,4.309,4.675
			c-0.068,0.013-0.213,0.04-0.357,0.066c-0.195,0-0.391,0-0.586,0c-0.214-0.115-0.471-0.181-0.636-0.352
			c-0.761-0.789-1.488-1.615-2.243-2.409c-0.305-0.321-0.581-0.636-0.556-1.136C219.689,184.526,219.689,184.375,219.689,184.224z"
			/>
		<path fill="#FFFFFF" d="M219.689,184.677c-0.025,0.5,0.251,0.815,0.556,1.136c0.755,0.794,1.483,1.621,2.243,2.409
			c0.165,0.171,0.421,0.237,0.636,0.352c-0.81,0-1.619,0-2.429,0c0.147-0.028,0.294-0.055,0.442-0.083
			c-0.452-0.502-0.89-0.988-1.369-1.519c0,0.533,0,1.015,0,1.515c0.212,0.031,0.402,0.059,0.592,0.086c-0.223,0-0.447,0-0.67,0
			C219.689,187.274,219.689,185.975,219.689,184.677z"/>
		<path d="M269.11,105.116c-0.071-0.034-0.159-0.05-0.211-0.105c-0.556-0.595-1.106-1.196-1.746-1.89
			c0.751,0.058,1.443-0.244,1.957,0.455C269.11,104.089,269.11,104.603,269.11,105.116z"/>
		<path d="M220.359,188.573c-0.19-0.028-0.38-0.055-0.592-0.086c0-0.5,0-0.982,0-1.515c0.479,0.531,0.917,1.017,1.369,1.519
			c-0.148,0.028-0.295,0.055-0.442,0.083C220.583,188.573,220.471,188.573,220.359,188.573z"/>
		<path d="M245.17,188.521c-0.403,0-0.819,0.029-1.228-0.015c-0.153-0.017-0.308-0.186-0.431-0.319
			c-4.303-4.65-8.602-9.303-12.901-13.956c-3.451-3.735-6.895-7.478-10.359-11.198c-0.376-0.403-0.602-0.797-0.524-1.376
			c0.029-0.218,0.005-0.446,0.005-0.624C228.202,170.185,236.669,179.335,245.17,188.521z"/>
	</g>
</g>
<style>
#g-totals-mobile-img rect, #g-totals-mobile-img circle, #g-totals-mobile-img path, #g-totals-mobile-img line, #g-totals-mobile-img polyline { vector-effect: non-scaling-stroke; }
</style>
</svg>

