<?xml version="1.0" encoding="utf-8"?>
<!-- Generator: Adobe Illustrator 23.1.1, SVG Export Plug-In . SVG Version: 6.00 Build 0)  -->
<svg version="1.2" baseProfile="tiny" id="g-totals-tablet-img" xmlns="http://www.w3.org/2000/svg" xmlns:xlink="http://www.w3.org/1999/xlink"
	 x="0px" y="0px" viewBox="0 0 600 300" xml:space="preserve">
<g>
	
		<line style="opacity:0.5;" fill="none" stroke="#777777" stroke-width="0.75" stroke-miterlimit="10" x1="37.624" y1="264.178" x2="37.624" y2="187.723"/>
	
		<line style="opacity:0.2;" fill="none" stroke="#777777" stroke-width="0.75" stroke-miterlimit="10" x1="459.304" y1="276.67" x2="459.304" y2="107.57"/>
	
		<line style="opacity:0.2;" fill="none" stroke="#777777" stroke-width="0.75" stroke-miterlimit="10" x1="351.428" y1="276.47" x2="351.428" y2="107.37"/>
	
		<line style="opacity:0.2;" fill="none" stroke="#777777" stroke-width="0.75" stroke-miterlimit="10" x1="246.745" y1="276.432" x2="246.745" y2="107.333"/>
	
		<line style="opacity:0.2;" fill="none" stroke="#777777" stroke-width="0.75" stroke-miterlimit="10" x1="140.921" y1="276.47" x2="140.921" y2="107.37"/>
	
		<line style="opacity:0.5;" fill="none" stroke="#777777" stroke-width="0.75" stroke-miterlimit="10" x1="37.623" y1="173.809" x2="37.623" y2="107.333"/>
	
		<rect x="435.983" y="119.949" transform="matrix(2.526117e-06 1 -1 2.526117e-06 609.8318 -311.994)" fill="#D8DEF0" width="49.861" height="57.941"/>
	
		<rect x="209.853" y="-48.281" transform="matrix(2.526117e-06 1 -1 2.526117e-06 383.6613 -85.9054)" fill="#3F5EBA" width="49.861" height="394.319"/>
	
		<rect x="255.139" y="-3.196" transform="matrix(2.526087e-06 1 -1 2.526087e-06 519.3191 -40.8209)" fill="#3F5EBA" width="49.861" height="484.892"/>
	<rect x="38.124" y="173.81" fill="#FFFFFF" width="135.433" height="13.313"/>
	<rect x="38.124" y="264.182" fill="#FFFFFF" width="135.433" height="13.313"/>
	<rect x="431.943" y="173.85" fill="#FFFFFF" width="83.687" height="24.058"/>
	
		<line style="opacity:0.2;" fill="none" stroke="#777777" stroke-width="0.75" stroke-miterlimit="10" x1="562.627" y1="276.47" x2="562.627" y2="107.37"/>
	<rect x="521.364" y="264.18" fill="#FFFFFF" width="84.636" height="16.689"/>
	
		<rect x="533.508" y="203.328" transform="matrix(2.567813e-06 1 -1 2.567813e-06 797.6871 -319.189)" fill="#D8DEF0" width="49.861" height="71.845"/>
	<g style="opacity:0.1;">
		<path fill="#FFFFFF" d="M591.621,214.321c0.913,0,1.826,0,2.74,0c0,16.62,0,33.239,0,49.859c-0.152,0-0.304,0-0.457,0
			c0.587-0.519,0.333-1.217,0.382-1.974c-0.583,0.645-1.088,1.2-1.587,1.761c-0.047,0.052-0.06,0.141-0.088,0.213
			c-0.482,0-0.964,0-1.446,0c0.888-0.997,1.737-2.043,2.678-2.974c0.601-0.595,0.403-1.254,0.391-1.937
			c-1.46,1.561-2.879,3.142-4.296,4.725c-0.039,0.044-0.046,0.123-0.067,0.186c-0.482,0-0.964,0-1.446,0
			c0.093-0.114,0.181-0.233,0.278-0.341c1.781-1.978,3.564-3.955,5.343-5.936c0.094-0.105,0.217-0.238,0.225-0.366
			c0.028-0.428,0.011-0.86,0.011-1.369c-0.138,0.132-0.226,0.204-0.302,0.289c-2.181,2.421-4.361,4.843-6.538,7.269
			c-0.12,0.133-0.208,0.301-0.311,0.453c-0.482,0-0.964,0-1.446,0c0.022-0.035,0.039-0.074,0.066-0.103
			c2.681-2.977,5.341-5.979,8.062-8.911c0.587-0.632,0.433-1.27,0.466-2.026c-0.103,0.088-0.146,0.117-0.18,0.155
			c-3.178,3.525-6.355,7.051-9.53,10.58c-0.075,0.084-0.119,0.203-0.178,0.305c-0.482,0-0.964,0-1.446,0
			c0.051-0.063,0.099-0.128,0.152-0.188c3.565-3.956,7.113-7.931,10.712-11.849c0.581-0.633,0.451-1.267,0.464-2.044
			c-0.147,0.15-0.233,0.232-0.312,0.319c-4.033,4.474-8.067,8.949-12.097,13.426c-0.086,0.095-0.142,0.223-0.212,0.335
			c-0.482,0-0.964,0-1.446,0c0.015-0.023,0.027-0.048,0.045-0.068c4.522-5.018,9.031-10.051,13.582-15.037
			c0.57-0.625,0.413-1.253,0.447-2.023c-0.162,0.168-0.255,0.259-0.343,0.355c-4.875,5.408-9.751,10.817-14.623,16.228
			c-0.149,0.165-0.268,0.362-0.401,0.544c-0.457,0-0.913,0-1.37,0c0.035-0.068,0.059-0.148,0.107-0.202
			c1.133-1.265,2.267-2.528,3.404-3.789c4.331-4.805,8.664-9.61,12.994-14.417c0.094-0.104,0.215-0.238,0.224-0.366
			c0.028-0.427,0.011-0.857,0.011-1.378c-0.159,0.156-0.253,0.241-0.339,0.335c-5.824,6.464-11.647,12.928-17.468,19.395
			c-0.114,0.126-0.203,0.28-0.303,0.421c-0.457,0-0.913,0-1.37,0c0.09-0.13,0.169-0.272,0.272-0.387
			c6.259-6.949,12.513-13.905,18.796-20.829c0.558-0.615,0.358-1.239,0.417-1.996c-0.176,0.185-0.269,0.279-0.358,0.378
			c-6.319,7.012-12.639,14.023-18.956,21.038c-0.526,0.584-1.028,1.196-1.541,1.795c-0.457,0-0.913,0-1.37,0
			c0.091-0.128,0.173-0.267,0.276-0.381c7.182-7.972,14.36-15.949,21.562-23.899c0.548-0.604,0.321-1.22,0.383-1.952
			c-0.164,0.166-0.251,0.247-0.331,0.336c-1.921,2.133-3.841,4.269-5.763,6.402c-5.311,5.892-10.624,11.781-15.933,17.676
			c-0.534,0.592-1.043,1.212-1.563,1.819c-0.457,0-0.913,0-1.37,0c0.102-0.138,0.195-0.286,0.309-0.412
			c3.052-3.391,6.106-6.779,9.16-10.168c5.085-5.643,10.17-11.286,15.253-16.932c0.094-0.105,0.218-0.237,0.226-0.365
			c0.028-0.428,0.011-0.86,0.011-1.29c-0.045-0.035-0.09-0.071-0.135-0.106c-0.092,0.146-0.166,0.312-0.278,0.436
			c-8.551,9.495-17.104,18.986-25.656,28.48c-0.097,0.108-0.174,0.238-0.26,0.358c-0.457,0-0.913,0-1.37,0
			c0.076-0.108,0.144-0.227,0.231-0.323c1.674-1.861,3.35-3.72,5.025-5.579c7.33-8.136,14.651-16.281,22.005-24.39
			c0.573-0.632,0.382-1.258,0.445-2.023c-0.165,0.171-0.251,0.254-0.331,0.343c-9.11,10.112-18.22,20.223-27.328,30.337
			c-0.482,0.535-0.945,1.09-1.417,1.635c-0.457,0-0.913,0-1.37,0c0.042-0.066,0.076-0.14,0.126-0.196
			c3.048-3.386,6.098-6.771,9.148-10.156c6.904-7.663,13.801-15.335,20.728-22.971c0.569-0.628,0.393-1.252,0.435-2.02
			c-0.124,0.129-0.171,0.174-0.214,0.223c-4.366,4.844-8.732,9.689-13.098,14.534c-5.513,6.118-11.027,12.234-16.538,18.354
			c-0.661,0.734-1.304,1.488-1.956,2.233c-0.457,0-0.913,0-1.37,0c0.079-0.108,0.149-0.225,0.237-0.323
			c3.432-3.811,6.865-7.619,10.298-11.429c7.416-8.229,14.826-16.464,22.26-24.672c0.549-0.606,0.324-1.219,0.314-1.884
			c-0.14,0.089-0.215,0.223-0.313,0.332c-5.53,6.139-11.061,12.276-16.592,18.414c-5.755,6.386-11.51,12.773-17.261,19.163
			c-0.099,0.11-0.158,0.265-0.236,0.399c-0.482,0-0.964,0-1.446,0c0.079-0.106,0.151-0.221,0.238-0.318
			c2.147-2.386,4.296-4.769,6.445-7.153c9.613-10.667,19.222-21.339,28.852-31.988c0.547-0.605,0.324-1.219,0.38-1.955
			c-0.499,0.551-0.921,1.016-1.341,1.482c-5.522,6.128-11.043,12.256-16.565,18.384c-5.653,6.273-11.308,12.546-16.96,18.821
			c-0.813,0.902-1.613,1.819-2.419,2.728c-0.457,0-0.913,0-1.37,0c0.046-0.065,0.087-0.135,0.139-0.193
			c4.469-4.963,8.939-9.924,13.408-14.886c5.158-5.727,10.315-11.454,15.474-17.18c3.148-3.494,6.298-6.985,9.445-10.479
			c0.077-0.085,0.178-0.196,0.183-0.299c0.02-0.438,0.009-0.879,0.009-1.401c-0.152,0.154-0.237,0.234-0.316,0.321
			c-6.649,7.38-13.296,14.762-19.945,22.141c-6.473,7.184-12.947,14.366-19.418,21.551c-0.109,0.121-0.182,0.282-0.271,0.425
			c-0.482,0-0.964,0-1.446,0c0.073-0.096,0.142-0.197,0.221-0.286c1.146-1.274,2.295-2.547,3.442-3.82
			c7.824-8.684,15.647-17.368,23.471-26.051c4.678-5.192,9.358-10.383,14.034-15.577c0.093-0.104,0.211-0.24,0.219-0.369
			c0.028-0.427,0.01-0.858,0.01-1.375c-0.16,0.168-0.261,0.268-0.356,0.374c-2.591,2.876-5.182,5.753-7.773,8.629
			c-11.428,12.683-22.857,25.364-34.283,38.049c-0.11,0.122-0.186,0.284-0.278,0.427c-0.482,0-0.964,0-1.446,0
			c0.047-0.064,0.09-0.133,0.143-0.191c5.171-5.743,10.341-11.487,15.514-17.227c9.385-10.415,18.768-20.83,28.165-31.231
			c0.322-0.357,0.351-0.7,0.292-1.125c-0.388-0.111-0.672-0.007-0.956,0.314c-1.418,1.602-2.86,3.178-4.29,4.766
			c-5.882,6.531-11.762,13.064-17.646,19.593c-7.43,8.246-14.863,16.489-22.292,24.736c-0.092,0.102-0.15,0.243-0.223,0.365
			c-0.482,0-0.964,0-1.446,0c0.049-0.064,0.094-0.132,0.147-0.192c2.309-2.563,4.618-5.126,6.928-7.688
			c12.231-13.572,24.461-27.143,36.691-40.715c0.335-0.372,0.664-0.75,1.038-1.172C591.964,214.375,591.792,214.348,591.621,214.321
			z"/>
		<path fill="#FFFFFF" d="M535.153,264.181c-0.457,0-0.913,0-1.37,0c0.073-0.108,0.134-0.229,0.219-0.323
			c4.264-4.738,8.528-9.475,12.795-14.209c10.099-11.206,20.199-22.411,30.3-33.614c0.47-0.521,0.962-1.017,1.444-1.525
			c-0.023-0.035-0.046-0.07-0.069-0.105c-0.183-0.027-0.366-0.055-0.548-0.082c1.649,0,3.298,0,4.947,0
			c-0.152,0.12-0.323,0.218-0.453,0.362c-3.931,4.353-7.858,8.709-11.784,13.067c-10.821,12.012-21.642,24.024-32.461,36.038
			c-0.105,0.117-0.186,0.261-0.278,0.392c-0.482,0-0.964,0-1.446,0c14.918-16.587,29.836-33.173,44.804-49.815
			c-0.219,0-0.384,0.024-0.541-0.004c-0.541-0.096-0.908,0.16-1.284,0.585c-1.915,2.165-3.861,4.297-5.794,6.442
			c-6.159,6.833-12.317,13.666-18.475,20.5c-6.398,7.101-12.795,14.202-19.19,21.306
			C535.682,263.509,535.423,263.851,535.153,264.181z"/>
		<path fill="#FFFFFF" d="M522.52,257.166c0-0.789,0-1.577,0-2.366c0.023,0.146,0.046,0.292,0.066,0.419
			c12.253-13.624,24.496-27.235,36.745-40.854c-0.182,0-0.397,0.025-0.605-0.005c-0.43-0.062-0.726,0.128-1.026,0.468
			c-1.535,1.738-3.093,3.449-4.644,5.17c-9.972,11.068-19.943,22.138-29.925,33.194c-0.38,0.421-0.65,0.832-0.611,1.439
			c0-0.817,0-1.634,0-2.451c0.104-0.054,0.23-0.082,0.308-0.165c0.392-0.418,0.772-0.85,1.156-1.277
			c10.729-11.906,21.458-23.813,32.191-35.716c0.166-0.184,0.376-0.317,0.565-0.475c-0.037-0.049-0.073-0.099-0.11-0.148
			c-0.208-0.026-0.417-0.053-0.625-0.079c1.7,0,3.399,0,5.099,0c-0.16,0.102-0.349,0.17-0.475,0.309
			c-1.707,1.879-3.406,3.768-5.106,5.655c-6.786,7.531-13.572,15.063-20.357,22.594c-4.12,4.573-8.242,9.145-12.356,13.725
			C522.677,256.752,522.615,256.978,522.52,257.166z"/>
		<path fill="#FFFFFF" d="M542.535,214.321c1.649,0,3.298,0,4.947,0c-0.199,0.129-0.435,0.218-0.593,0.393
			c-4.95,5.478-9.893,10.965-14.836,16.45c-3.066,3.402-6.133,6.803-9.191,10.214c-0.156,0.174-0.229,0.439-0.341,0.661
			c0-1.803,0-3.606,0-5.408c0.025,0.129,0.049,0.258,0.06,0.313c6.768-7.527,13.541-15.058,20.287-22.559
			C542.806,214.373,542.67,214.347,542.535,214.321z M522.563,240.028c7.715-8.577,15.399-17.119,23.086-25.663
			c-0.15,0-0.341,0.025-0.524-0.005c-0.486-0.079-0.816,0.15-1.155,0.529c-3.125,3.495-6.268,6.969-9.405,10.451
			c-3.908,4.337-7.816,8.675-11.721,13.016c-0.112,0.124-0.254,0.281-0.268,0.435C522.539,239.202,522.563,239.622,522.563,240.028z
			"/>
		<path d="M591.621,214.321c0.171,0.027,0.343,0.053,0.588,0.092c-0.374,0.423-0.703,0.801-1.038,1.172
			c-12.23,13.572-24.461,27.144-36.691,40.715c-2.309,2.563-4.619,5.125-6.928,7.688c-0.053,0.059-0.098,0.128-0.147,0.192
			c-0.431,0-0.862,0-1.294,0c0.106-0.152,0.198-0.319,0.319-0.454c2.372-2.638,4.748-5.273,7.123-7.909
			c7.194-7.986,14.387-15.973,21.581-23.959c5.267-5.846,10.534-11.692,15.801-17.537
			C591.164,214.321,591.393,214.321,591.621,214.321z"/>
		<path d="M574.802,214.321c0.203,0,0.406,0,0.609,0c0.126,0.033,0.252,0.066,0.418,0.11c-0.12,0.14-0.204,0.242-0.292,0.34
			c-7.721,8.571-15.442,17.142-23.164,25.712c-5.942,6.594-11.887,13.185-17.828,19.78c-1.172,1.301-2.335,2.612-3.502,3.918
			c-0.431,0-0.862,0-1.294,0c0.077-0.123,0.14-0.262,0.234-0.367c1.727-1.922,3.459-3.84,5.188-5.76
			c5.871-6.516,11.741-13.032,17.612-19.547c7.169-7.956,14.336-15.913,21.51-23.864
			C574.427,214.495,574.631,214.427,574.802,214.321z"/>
		<path fill="#FFFFFF" d="M566.812,214.321c0.786,0,1.573,0,2.359,0c-0.109,0.094-0.229,0.177-0.326,0.284
			c-5.852,6.491-11.702,12.984-17.551,19.477c-8.92,9.901-17.839,19.802-26.756,29.706c-0.103,0.115-0.178,0.26-0.266,0.392
			c-0.457,0-0.913,0-1.37,0c0.106-0.149,0.2-0.313,0.32-0.446c4.766-5.294,9.534-10.585,14.301-15.877
			c9.343-10.37,18.686-20.741,28.03-31.111c0.686-0.761,1.378-1.514,2.128-2.337C567.327,214.373,567.069,214.347,566.812,214.321z"
			/>
		<path d="M535.153,264.181c0.271-0.33,0.53-0.672,0.813-0.987c6.395-7.104,12.792-14.205,19.19-21.306
			c6.158-6.834,12.316-13.667,18.475-20.5c1.933-2.145,3.879-4.277,5.794-6.442c0.376-0.425,0.743-0.681,1.284-0.585
			c0.157,0.028,0.322,0.004,0.541,0.004c-14.968,16.642-29.886,33.229-44.804,49.815
			C536.015,264.181,535.584,264.181,535.153,264.181z"/>
		<path fill="#FFFFFF" d="M590.936,214.321c-5.267,5.846-10.535,11.691-15.801,17.537c-7.194,7.986-14.387,15.973-21.581,23.959
			c-2.374,2.636-4.751,5.27-7.123,7.909c-0.121,0.135-0.213,0.302-0.319,0.454c-0.482,0-0.964,0-1.446,0
			c0.033-0.043,0.062-0.089,0.098-0.128c5.837-6.48,11.674-12.959,17.512-19.438c8.986-9.974,17.972-19.947,26.958-29.922
			c0.072-0.08,0.135-0.172,0.224-0.285c-0.178-0.036-0.301-0.061-0.423-0.086C589.668,214.321,590.302,214.321,590.936,214.321z"/>
		<path fill="#FFFFFF" d="M574.802,214.321c-0.171,0.105-0.375,0.174-0.508,0.321c-7.174,7.95-14.342,15.907-21.51,23.864
			c-5.871,6.516-11.741,13.032-17.612,19.547c-1.73,1.92-3.461,3.838-5.188,5.76c-0.094,0.104-0.156,0.244-0.234,0.367
			c-0.482,0-0.964,0-1.446,0c0.122-0.143,0.241-0.289,0.366-0.428c7.02-7.792,14.039-15.584,21.06-23.375
			c7.658-8.5,15.317-16.999,22.976-25.499c0.127-0.141,0.251-0.285,0.411-0.467c-0.2-0.04-0.322-0.065-0.445-0.09
			C573.382,214.321,574.092,214.321,574.802,214.321z"/>
		<path fill="#FFFFFF" d="M531.043,264.181c1.167-1.306,2.33-2.617,3.502-3.918c5.942-6.595,11.886-13.186,17.828-19.78
			c7.722-8.57,15.443-17.141,23.164-25.712c0.088-0.097,0.171-0.199,0.292-0.34c-0.166-0.044-0.292-0.077-0.418-0.11
			c0.66,0,1.319,0,1.979,0c-0.136,0.122-0.284,0.23-0.407,0.367c-7.966,8.835-15.93,17.672-23.893,26.511
			c-6.783,7.528-13.564,15.058-20.343,22.59c-0.102,0.113-0.172,0.26-0.257,0.392C532.007,264.181,531.525,264.181,531.043,264.181z
			"/>
		<path fill="#FFFFFF" d="M543.372,264.181c-0.482,0-0.964,0-1.446,0c0.024-0.033,0.046-0.068,0.073-0.097
			c5.876-6.519,11.753-13.037,17.629-19.557c8.756-9.716,17.51-19.433,26.265-29.151c0.27-0.3,0.533-0.609,0.848-0.97
			c-0.359-0.033-0.631-0.059-0.903-0.084c0.939,0,1.877,0,2.816,0c-0.435-0.02-0.706,0.271-0.986,0.59
			c-0.893,1.017-1.805,2.013-2.71,3.017c-6.271,6.957-12.542,13.913-18.812,20.871c-7.45,8.268-14.898,16.537-22.344,24.808
			C543.643,263.783,543.514,263.989,543.372,264.181z"/>
		<path d="M585.837,214.321c0.272,0.025,0.545,0.051,0.903,0.084c-0.315,0.361-0.578,0.67-0.848,0.97
			c-8.754,9.718-17.509,19.435-26.265,29.151c-5.875,6.52-11.753,13.038-17.629,19.557c-0.027,0.03-0.049,0.065-0.073,0.097
			c-0.431,0-0.862,0-1.294,0c0.071-0.112,0.13-0.238,0.216-0.333c6.557-7.281,13.117-14.559,19.676-21.838
			c7.693-8.537,15.385-17.075,23.08-25.61c0.634-0.703,1.286-1.386,1.929-2.078C585.634,214.321,585.736,214.321,585.837,214.321z"
			/>
		<path d="M524.27,264.181c0.088-0.131,0.163-0.277,0.266-0.392c8.917-9.903,17.837-19.805,26.756-29.706
			c5.85-6.493,11.7-12.986,17.551-19.477c0.097-0.108,0.217-0.19,0.326-0.284c0.203,0,0.406,0,0.609,0
			c0.177,0.03,0.355,0.06,0.587,0.099c-0.087,0.102-0.126,0.151-0.168,0.198c-2.298,2.552-4.597,5.104-6.896,7.656
			c-10.06,11.168-20.121,22.336-30.181,33.505c-2.521,2.799-5.039,5.601-7.558,8.402
			C525.133,264.181,524.701,264.181,524.27,264.181z"/>
		<path fill="#FFFFFF" d="M525.564,264.181c2.519-2.801,5.037-5.603,7.558-8.402c10.06-11.169,20.121-22.337,30.181-33.505
			c2.299-2.552,4.597-5.104,6.896-7.656c0.042-0.046,0.081-0.095,0.168-0.198c-0.232-0.039-0.409-0.069-0.587-0.099
			c0.71,0,1.421,0,2.131,0c-0.118,0.104-0.247,0.197-0.353,0.314c-5.494,6.095-10.985,12.193-16.478,18.289
			c-9.09,10.088-18.182,20.174-27.27,30.264c-0.282,0.313-0.534,0.66-0.8,0.992C526.528,264.181,526.046,264.181,525.564,264.181z"
			/>
		<path fill="#FFFFFF" d="M585.533,214.321c-0.643,0.692-1.295,1.375-1.929,2.078c-7.695,8.535-15.387,17.073-23.08,25.61
			c-6.559,7.279-13.118,14.557-19.676,21.838c-0.086,0.096-0.145,0.222-0.216,0.333c-0.482,0-0.964,0-1.446,0
			c3.778-4.197,7.553-8.396,11.333-12.591c10.494-11.646,20.989-23.29,31.485-34.933c0.659-0.731,1.331-1.446,2.06-2.237
			c-0.297-0.044-0.48-0.071-0.663-0.098C584.112,214.321,584.823,214.321,585.533,214.321z"/>
		<path d="M527.01,264.181c0.266-0.331,0.518-0.678,0.8-0.992c9.088-10.09,18.18-20.176,27.27-30.264
			c5.493-6.096,10.984-12.194,16.478-18.289c0.106-0.118,0.235-0.21,0.353-0.314c0.254,0,0.507,0,0.761,0
			c0.122,0.025,0.245,0.05,0.445,0.09c-0.16,0.182-0.284,0.326-0.411,0.467c-7.658,8.5-15.317,16.999-22.976,25.499
			c-7.02,7.791-14.04,15.583-21.06,23.375c-0.125,0.139-0.244,0.285-0.366,0.428C527.872,264.181,527.441,264.181,527.01,264.181z"
			/>
		<path d="M548.851,264.181c0.074-0.123,0.131-0.263,0.223-0.365c7.429-8.247,14.862-16.49,22.292-24.736
			c5.883-6.53,11.764-13.063,17.646-19.593c1.431-1.588,2.873-3.164,4.29-4.766c0.284-0.321,0.568-0.425,0.956-0.314
			c0.06,0.424,0.031,0.768-0.292,1.125c-9.396,10.401-18.78,20.817-28.165,31.231c-5.173,5.741-10.343,11.484-15.514,17.227
			c-0.053,0.058-0.096,0.127-0.143,0.191C549.714,264.181,549.283,264.181,548.851,264.181z"/>
		<path d="M583.402,214.321c0.183,0.027,0.365,0.054,0.663,0.098c-0.729,0.791-1.402,1.506-2.06,2.237
			c-10.496,11.643-20.991,23.288-31.485,34.933c-3.78,4.195-7.556,8.394-11.333,12.591c-0.431,0-0.862,0-1.294,0
			c0.092-0.131,0.173-0.275,0.278-0.392c10.819-12.014,21.64-24.026,32.461-36.038c3.926-4.358,7.854-8.714,11.784-13.067
			c0.13-0.144,0.301-0.242,0.453-0.362C583.047,214.321,583.224,214.321,583.402,214.321z"/>
		<path d="M543.372,264.181c0.142-0.192,0.271-0.398,0.429-0.573c7.447-8.271,14.895-16.541,22.344-24.808
			c6.27-6.958,12.541-13.914,18.812-20.871c0.905-1.004,1.817-2.001,2.71-3.017c0.281-0.32,0.552-0.61,0.986-0.59
			c0.127,0,0.254,0,0.38,0c0.123,0.025,0.245,0.05,0.423,0.086c-0.089,0.114-0.151,0.205-0.224,0.285
			c-8.985,9.974-17.972,19.948-26.958,29.922c-5.838,6.479-11.675,12.958-17.512,19.438c-0.036,0.039-0.065,0.085-0.098,0.128
			C544.234,264.181,543.803,264.181,543.372,264.181z"/>
		<path d="M532.489,264.181c0.085-0.131,0.156-0.279,0.257-0.392c6.779-7.532,13.56-15.062,20.343-22.59
			c7.963-8.838,15.927-17.675,23.893-26.511c0.123-0.136,0.271-0.245,0.407-0.367c0.178,0,0.355,0,0.533,0
			c0.183,0.027,0.366,0.055,0.548,0.082c0.023,0.035,0.046,0.07,0.069,0.105c-0.482,0.508-0.974,1.004-1.444,1.525
			c-10.102,11.203-20.201,22.408-30.3,33.614c-4.267,4.734-8.531,9.471-12.795,14.209c-0.085,0.094-0.147,0.215-0.219,0.323
			C533.352,264.181,532.921,264.181,532.489,264.181z"/>
		<path d="M566.812,214.321c0.258,0.026,0.515,0.052,0.869,0.088c-0.75,0.823-1.442,1.576-2.128,2.337
			c-9.344,10.37-18.687,20.741-28.03,31.111c-4.768,5.292-9.536,10.583-14.301,15.877c-0.12,0.134-0.214,0.297-0.32,0.446
			c-0.101,0-0.203,0-0.304,0c-0.118-0.725-0.01-1.301,0.516-1.879c4.706-5.17,9.377-10.379,14.059-15.576
			c9.597-10.652,19.196-21.302,28.789-31.958c0.225-0.249,0.45-0.44,0.775-0.447C566.761,214.321,566.786,214.321,566.812,214.321z"
			/>
		<path fill="#FFFFFF" d="M566.736,214.321c-0.325,0.007-0.55,0.197-0.775,0.447c-9.593,10.656-19.192,21.306-28.789,31.958
			c-4.682,5.196-9.353,10.405-14.059,15.576c-0.527,0.579-0.635,1.155-0.516,1.879c-0.025-0.07-0.073-0.141-0.073-0.211
			c-0.005-1.141-0.003-2.282-0.003-3.423c0.026,0.25,0.052,0.5,0.084,0.803c14.107-15.69,28.161-31.321,42.214-46.951
			c-0.073-0.02-0.181-0.048-0.289-0.077C565.264,214.321,566,214.321,566.736,214.321z"/>
		<path d="M551.591,264.181c0.092-0.143,0.168-0.304,0.278-0.427c11.426-12.685,22.855-25.367,34.283-38.049
			c2.591-2.876,5.182-5.753,7.773-8.629c0.095-0.106,0.196-0.206,0.356-0.374c0,0.517,0.017,0.948-0.01,1.375
			c-0.008,0.129-0.125,0.265-0.219,0.369c-4.676,5.194-9.355,10.385-14.034,15.577c-7.824,8.683-15.647,17.368-23.471,26.051
			c-1.147,1.273-2.296,2.546-3.442,3.82c-0.08,0.089-0.148,0.19-0.221,0.286C552.454,264.181,552.022,264.181,551.591,264.181z"/>
		<path d="M564.529,214.321c0.108,0.029,0.216,0.058,0.289,0.077c-14.053,15.63-28.107,31.262-42.214,46.951
			c-0.032-0.303-0.058-0.553-0.084-0.803c0-0.197,0-0.394,0-0.592c0.097-0.109,0.193-0.219,0.291-0.328
			c5.286-5.865,10.574-11.729,15.859-17.595c6.459-7.169,12.917-14.34,19.374-21.511c1.859-2.065,3.714-4.133,5.571-6.2
			C563.92,214.321,564.224,214.321,564.529,214.321z"/>
		<path fill="#FFFFFF" d="M563.615,214.321c-1.857,2.067-3.713,4.135-5.571,6.2c-6.457,7.171-12.915,14.342-19.374,21.511
			c-5.285,5.866-10.573,11.73-15.859,17.595c-0.098,0.108-0.194,0.218-0.291,0.328c0-0.789,0-1.577,0-2.366
			c0.024,0.227,0.048,0.454,0.075,0.713c13.184-14.658,26.335-29.279,39.489-43.903c-0.158-0.023-0.341-0.05-0.523-0.077
			C562.245,214.321,562.93,214.321,563.615,214.321z"/>
		<path d="M554.331,264.181c0.09-0.142,0.162-0.304,0.271-0.425c6.471-7.186,12.946-14.368,19.418-21.551
			c6.649-7.38,13.296-14.761,19.945-22.141c0.079-0.088,0.164-0.168,0.316-0.321c0,0.523,0.012,0.963-0.009,1.401
			c-0.005,0.104-0.106,0.214-0.183,0.299c-3.147,3.495-6.297,6.985-9.445,10.479c-5.159,5.726-10.316,11.454-15.474,17.18
			c-4.469,4.962-8.939,9.923-13.408,14.886c-0.052,0.058-0.093,0.129-0.139,0.193C555.193,264.181,554.762,264.181,554.331,264.181z
			"/>
		<path d="M561.561,214.321c0.183,0.027,0.365,0.054,0.523,0.077c-13.154,14.624-26.305,29.245-39.489,43.903
			c-0.027-0.258-0.051-0.486-0.075-0.713c0-0.141,0-0.282,0-0.423c0.095-0.189,0.157-0.414,0.289-0.561
			c4.115-4.58,8.236-9.152,12.356-13.725c6.786-7.531,13.572-15.063,20.357-22.594c1.7-1.887,3.399-3.776,5.106-5.655
			c0.126-0.139,0.315-0.208,0.475-0.309C561.256,214.321,561.408,214.321,561.561,214.321z"/>
		<path d="M556.994,264.181c0.806-0.91,1.606-1.826,2.419-2.728c5.652-6.275,11.306-12.547,16.96-18.821
			c5.522-6.128,11.043-12.256,16.565-18.384c0.42-0.466,0.842-0.93,1.341-1.482c-0.056,0.736,0.167,1.35-0.38,1.955
			c-9.63,10.649-19.239,21.321-28.852,31.988c-2.149,2.384-4.297,4.768-6.445,7.153c-0.087,0.097-0.159,0.211-0.238,0.318
			C557.908,264.181,557.451,264.181,556.994,264.181z"/>
		<path d="M522.52,254.631c-0.039-0.608,0.23-1.018,0.611-1.439c9.983-11.056,19.953-22.126,29.925-33.194
			c1.55-1.721,3.109-3.432,4.644-5.17c0.3-0.34,0.596-0.53,1.026-0.468c0.208,0.03,0.423,0.005,0.605,0.005
			c-12.249,13.619-24.492,27.23-36.745,40.854c-0.02-0.127-0.043-0.273-0.066-0.419C522.52,254.744,522.52,254.688,522.52,254.631z"
			/>
		<path d="M559.81,264.181c0.078-0.134,0.137-0.288,0.236-0.399c5.752-6.39,11.506-12.776,17.261-19.163
			c5.531-6.138,11.063-12.274,16.592-18.414c0.098-0.109,0.173-0.243,0.313-0.332c0.01,0.665,0.234,1.278-0.314,1.884
			c-7.434,8.208-14.844,16.443-22.26,24.672c-3.433,3.809-6.866,7.618-10.298,11.429c-0.088,0.098-0.158,0.215-0.237,0.323
			C560.673,264.181,560.241,264.181,559.81,264.181z"/>
		<path d="M556.005,214.321c0.208,0.026,0.417,0.053,0.625,0.079c0.037,0.049,0.073,0.099,0.11,0.148
			c-0.189,0.157-0.399,0.291-0.565,0.475c-10.733,11.903-21.462,23.809-32.191,35.716c-0.385,0.427-0.764,0.859-1.156,1.277
			c-0.078,0.083-0.204,0.111-0.308,0.165c0-0.423,0-0.845,0-1.268c0.104-0.139,0.2-0.289,0.315-0.416
			c5.024-5.575,10.051-11.145,15.074-16.721c5.747-6.379,11.491-12.764,17.241-19.14c0.126-0.14,0.315-0.211,0.475-0.315
			C555.751,214.321,555.878,214.321,556.005,214.321z"/>
		<path fill="#FFFFFF" d="M555.625,214.321c-0.16,0.103-0.348,0.174-0.475,0.315c-5.75,6.376-11.493,12.761-17.241,19.14
			c-5.023,5.575-10.051,11.146-15.074,16.721c-0.115,0.128-0.21,0.277-0.315,0.416c0-0.761,0-1.521,0-2.282
			c0.023,0.177,0.046,0.354,0.068,0.528c10.432-11.604,20.854-23.198,31.258-34.771c-0.107-0.016-0.267-0.041-0.428-0.066
			C554.153,214.321,554.889,214.321,555.625,214.321z"/>
		<path d="M562.474,264.181c0.652-0.745,1.295-1.498,1.956-2.233c5.511-6.12,11.025-12.237,16.538-18.354
			c4.366-4.845,8.732-9.689,13.098-14.534c0.044-0.049,0.09-0.094,0.214-0.223c-0.042,0.768,0.135,1.393-0.435,2.02
			c-6.928,7.637-13.824,15.309-20.728,22.971c-3.05,3.385-6.099,6.77-9.148,10.156c-0.05,0.056-0.084,0.13-0.126,0.196
			C563.387,264.181,562.93,264.181,562.474,264.181z"/>
		<path d="M553.418,214.321c0.161,0.025,0.322,0.05,0.428,0.066c-10.404,11.574-20.826,23.167-31.258,34.771
			c-0.022-0.174-0.045-0.351-0.068-0.528c0-0.085,0-0.169,0-0.254c0.008-0.388,0.108-0.702,0.377-0.999
			c3.549-3.917,7.084-7.85,10.623-11.778c6.242-6.927,12.485-13.853,18.722-20.785c0.251-0.279,0.503-0.497,0.871-0.494
			C553.215,214.321,553.316,214.321,553.418,214.321z"/>
		<path fill="#FFFFFF" d="M553.113,214.321c-0.368-0.003-0.62,0.215-0.871,0.494c-6.237,6.932-12.48,13.858-18.722,20.785
			c-3.539,3.928-7.074,7.861-10.623,11.778c-0.269,0.297-0.369,0.611-0.377,0.999c0-0.761,0-1.521,0-2.282
			c0.121-0.069,0.267-0.11,0.359-0.211c2.926-3.239,5.845-6.484,8.768-9.726c6.435-7.141,12.872-14.28,19.307-21.421
			c0.084-0.093,0.163-0.191,0.284-0.333c-0.288-0.034-0.5-0.058-0.712-0.083C551.388,214.321,552.251,214.321,553.113,214.321z"/>
		<path d="M565.213,264.181c0.472-0.546,0.936-1.1,1.417-1.635c9.108-10.114,18.218-20.226,27.328-30.337
			c0.08-0.089,0.166-0.172,0.331-0.343c-0.063,0.765,0.128,1.391-0.445,2.023c-7.354,8.109-14.675,16.254-22.005,24.39
			c-1.675,1.86-3.352,3.718-5.025,5.579c-0.087,0.097-0.154,0.215-0.231,0.323C566.127,264.181,565.67,264.181,565.213,264.181z"/>
		<path d="M550.526,214.321c0.212,0.025,0.423,0.049,0.712,0.083c-0.121,0.142-0.2,0.24-0.284,0.333
			c-6.436,7.141-12.872,14.28-19.307,21.421c-2.922,3.243-5.842,6.488-8.768,9.726c-0.092,0.102-0.238,0.142-0.359,0.211
			c0-0.423,0-0.845,0-1.268c0.107-0.137,0.206-0.282,0.322-0.41c7.969-8.847,15.939-17.692,23.911-26.536
			c1.075-1.193,2.16-2.374,3.241-3.56C550.171,214.321,550.348,214.321,550.526,214.321z"/>
		<path fill="#FFFFFF" d="M549.993,214.321c-1.081,1.187-2.166,2.368-3.241,3.56c-7.972,8.844-15.941,17.69-23.911,26.536
			c-0.115,0.128-0.215,0.273-0.322,0.41c0-0.817,0-1.634,0-2.451c0.025,0.238,0.05,0.476,0.07,0.662
			c8.602-9.565,17.196-19.121,25.768-28.654c-0.073-0.014-0.209-0.039-0.344-0.065C548.674,214.321,549.333,214.321,549.993,214.321
			z"/>
		<path d="M567.953,264.181c0.086-0.12,0.163-0.25,0.26-0.358c8.552-9.493,17.105-18.985,25.656-28.48
			c0.112-0.124,0.186-0.29,0.278-0.436c0.045,0.035,0.09,0.071,0.135,0.106c0,0.43,0.018,0.862-0.011,1.29
			c-0.008,0.128-0.132,0.26-0.226,0.365c-5.083,5.646-10.168,11.289-15.253,16.932c-3.054,3.389-6.108,6.777-9.16,10.168
			c-0.113,0.126-0.206,0.274-0.309,0.412C568.866,264.181,568.41,264.181,567.953,264.181z"/>
		<path d="M548.014,214.321c0.135,0.026,0.271,0.051,0.344,0.065c-8.573,9.533-17.167,19.089-25.768,28.654
			c-0.02-0.187-0.045-0.425-0.07-0.662c0-0.113,0-0.225,0-0.338c0.112-0.223,0.185-0.488,0.341-0.661
			c3.058-3.411,6.125-6.812,9.191-10.214c4.943-5.486,9.886-10.972,14.836-16.45c0.158-0.175,0.394-0.264,0.593-0.393
			C547.659,214.321,547.837,214.321,548.014,214.321z"/>
		<path d="M570.693,264.181c0.521-0.607,1.03-1.227,1.563-1.819c5.309-5.894,10.622-11.784,15.933-17.676
			c1.922-2.132,3.841-4.268,5.763-6.402c0.08-0.089,0.167-0.17,0.331-0.336c-0.062,0.732,0.165,1.348-0.383,1.952
			c-7.202,7.95-14.379,15.927-21.562,23.899c-0.103,0.115-0.184,0.254-0.276,0.381C571.606,264.181,571.149,264.181,570.693,264.181
			z"/>
		<path d="M573.433,264.181c0.513-0.599,1.015-1.211,1.541-1.795c6.316-7.015,12.636-14.026,18.956-21.038
			c0.089-0.099,0.183-0.193,0.358-0.378c-0.059,0.757,0.141,1.38-0.417,1.996c-6.283,6.924-12.536,13.879-18.796,20.829
			c-0.103,0.115-0.182,0.257-0.272,0.387C574.346,264.181,573.889,264.181,573.433,264.181z"/>
		<path d="M542.535,214.321c0.135,0.026,0.271,0.052,0.332,0.063c-6.746,7.502-13.518,15.033-20.287,22.559
			c-0.01-0.055-0.035-0.184-0.06-0.313c0-0.31,0-0.62,0-0.93c0.102-0.124,0.198-0.253,0.305-0.372
			c6.219-6.903,12.439-13.805,18.663-20.703c0.119-0.132,0.291-0.205,0.438-0.306C542.129,214.321,542.332,214.321,542.535,214.321z
			"/>
		<path fill="#FFFFFF" d="M541.926,214.321c-0.147,0.101-0.319,0.174-0.438,0.306c-6.224,6.897-12.444,13.8-18.663,20.703
			c-0.107,0.118-0.204,0.248-0.305,0.372c0-0.789,0-1.577,0-2.366c0.023,0.215,0.046,0.431,0.07,0.655
			c5.885-6.545,11.748-13.067,17.614-19.591c-0.144-0.023-0.314-0.051-0.484-0.078C540.455,214.321,541.19,214.321,541.926,214.321z
			"/>
		<path fill="#FFFFFF" d="M522.52,226.575c0-0.817,0-1.634,0-2.451c0.023,0.245,0.047,0.489,0.064,0.673
			c3.122-3.467,6.253-6.945,9.396-10.436c-0.525,0.092-1.073-0.18-1.587,0.404c-2.487,2.824-5.014,5.604-7.535,8.39
			c-0.212,0.234-0.34,0.473-0.337,0.8c0-0.704,0-1.408,0-2.113c0.113-0.067,0.248-0.11,0.334-0.206
			c2.097-2.319,4.19-4.643,6.282-6.967c0.064-0.071,0.115-0.158,0.193-0.267c-0.222-0.032-0.395-0.057-0.568-0.081
			c1.674,0,3.349,0,5.023,0c-0.172,0.104-0.365,0.18-0.51,0.319c-0.258,0.246-0.486,0.531-0.727,0.799
			C529.204,219.151,525.862,222.863,522.52,226.575z"/>
		<path d="M576.172,264.181c0.1-0.141,0.189-0.295,0.303-0.421c5.821-6.467,11.644-12.931,17.468-19.395
			c0.085-0.095,0.18-0.179,0.339-0.335c0,0.521,0.018,0.951-0.011,1.378c-0.008,0.128-0.13,0.262-0.224,0.366
			c-4.33,4.807-8.662,9.612-12.994,14.417c-1.137,1.261-2.271,2.524-3.404,3.789c-0.048,0.054-0.072,0.134-0.107,0.202
			C577.085,264.181,576.629,264.181,576.172,264.181z"/>
		<path d="M539.719,214.321c0.17,0.028,0.34,0.055,0.484,0.078c-5.866,6.524-11.729,13.045-17.614,19.591
			c-0.024-0.224-0.047-0.439-0.07-0.655c0-0.113,0-0.225,0-0.338c0.108-0.239,0.17-0.53,0.332-0.71
			c5.266-5.862,10.541-11.715,15.823-17.559c0.172-0.19,0.441-0.274,0.664-0.407C539.465,214.321,539.592,214.321,539.719,214.321z"
			/>
		<path fill="#FFFFFF" d="M539.339,214.321c-0.224,0.133-0.492,0.216-0.664,0.407c-5.282,5.844-10.557,11.697-15.823,17.559
			c-0.162,0.18-0.223,0.471-0.332,0.71c0-0.789,0-1.577,0-2.366c0.029,0.109,0.059,0.218,0.076,0.281
			c4.966-5.521,9.919-11.028,14.861-16.522c-0.207-0.02-0.456-0.044-0.706-0.068C537.614,214.321,538.476,214.321,539.339,214.321z"
			/>
		<path d="M578.912,264.181c0.133-0.182,0.253-0.379,0.401-0.544c4.873-5.411,9.748-10.82,14.623-16.228
			c0.087-0.097,0.18-0.187,0.343-0.355c-0.034,0.771,0.123,1.399-0.447,2.023c-4.55,4.986-9.06,10.018-13.582,15.037
			c-0.018,0.02-0.03,0.045-0.045,0.068C579.774,264.181,579.343,264.181,578.912,264.181z"/>
		<path d="M536.751,214.321c0.249,0.024,0.499,0.048,0.706,0.068c-4.942,5.494-9.895,11.001-14.861,16.522
			c-0.017-0.063-0.046-0.172-0.076-0.281c0-0.282,0-0.563,0-0.845c0.082-0.151,0.142-0.326,0.25-0.45
			c0.502-0.577,1.017-1.14,1.528-1.707c3.999-4.436,7.998-8.872,11.997-13.308C536.447,214.321,536.599,214.321,536.751,214.321z"/>
		<path fill="#FFFFFF" d="M536.294,214.321c-3.999,4.436-7.998,8.872-11.997,13.308c-0.511,0.567-1.026,1.13-1.528,1.707
			c-0.108,0.124-0.168,0.299-0.25,0.45c0-0.845,0-1.69,0-2.535c0.023,0.217,0.045,0.433,0.065,0.62
			c4.047-4.501,8.091-8.998,12.126-13.484c-0.026-0.01-0.096-0.038-0.167-0.066C535.128,214.321,535.711,214.321,536.294,214.321z"
			/>
		<path d="M581.652,264.181c0.07-0.112,0.127-0.24,0.212-0.335c4.031-4.477,8.064-8.952,12.097-13.426
			c0.079-0.088,0.164-0.169,0.312-0.319c-0.013,0.778,0.117,1.411-0.464,2.044c-3.598,3.918-7.147,7.893-10.712,11.849
			c-0.054,0.059-0.102,0.125-0.152,0.188C582.514,264.181,582.083,264.181,581.652,264.181z"/>
		<path d="M534.544,214.321c0.07,0.028,0.14,0.055,0.167,0.066c-4.035,4.487-8.078,8.983-12.126,13.484
			c-0.02-0.187-0.042-0.404-0.065-0.62c0-0.225,0-0.451,0-0.676c3.342-3.712,6.684-7.424,10.026-11.136
			c0.241-0.268,0.469-0.553,0.727-0.799c0.145-0.139,0.339-0.215,0.51-0.319C534.037,214.321,534.29,214.321,534.544,214.321z"/>
		<path d="M584.391,264.181c0.059-0.103,0.102-0.222,0.178-0.305c3.175-3.529,6.352-7.054,9.53-10.58
			c0.035-0.038,0.078-0.067,0.18-0.155c-0.033,0.756,0.121,1.394-0.466,2.026c-2.721,2.931-5.381,5.933-8.062,8.911
			c-0.026,0.029-0.044,0.068-0.066,0.103C585.254,264.181,584.823,264.181,584.391,264.181z"/>
		<path d="M522.52,223.955c-0.003-0.327,0.125-0.566,0.337-0.8c2.522-2.786,5.048-5.566,7.535-8.39
			c0.514-0.584,1.062-0.312,1.587-0.404c-3.143,3.491-6.274,6.969-9.396,10.436c-0.018-0.184-0.041-0.429-0.064-0.673
			C522.52,224.068,522.52,224.011,522.52,223.955z"/>
		<path d="M587.131,264.181c0.103-0.152,0.191-0.32,0.311-0.453c2.177-2.426,4.357-4.847,6.538-7.269
			c0.076-0.085,0.164-0.157,0.302-0.289c0,0.509,0.018,0.94-0.011,1.369c-0.008,0.128-0.131,0.261-0.225,0.366
			c-1.779,1.981-3.562,3.957-5.343,5.936c-0.098,0.108-0.186,0.227-0.278,0.341C587.994,264.181,587.562,264.181,587.131,264.181z"
			/>
		<path d="M528.76,214.321c0.173,0.025,0.346,0.05,0.568,0.081c-0.078,0.109-0.128,0.195-0.193,0.267
			c-2.092,2.325-4.184,4.649-6.282,6.967c-0.087,0.096-0.222,0.139-0.334,0.206c0-0.451,0-0.901,0-1.352
			c1.731-1.919,3.459-3.841,5.197-5.752c0.161-0.177,0.389-0.28,0.586-0.417C528.456,214.321,528.608,214.321,528.76,214.321z"/>
		<path fill="#FFFFFF" d="M528.304,214.321c-0.197,0.137-0.425,0.24-0.586,0.417c-1.739,1.911-3.467,3.833-5.197,5.752
			c0-0.704,0-1.408,0-2.113c0.023,0.146,0.045,0.292,0.056,0.361c1.305-1.444,2.62-2.9,3.926-4.347
			c-0.086-0.018-0.207-0.044-0.329-0.07C526.883,214.321,527.593,214.321,528.304,214.321z"/>
		<path d="M589.871,264.181c0.022-0.063,0.028-0.142,0.067-0.186c1.417-1.584,2.836-3.164,4.296-4.725
			c0.012,0.683,0.21,1.342-0.391,1.937c-0.941,0.931-1.79,1.977-2.678,2.974C590.733,264.181,590.302,264.181,589.871,264.181z"/>
		<path d="M526.173,214.321c0.122,0.026,0.243,0.052,0.329,0.07c-1.307,1.447-2.622,2.903-3.926,4.347
			c-0.011-0.069-0.033-0.215-0.056-0.361c0-0.197,0-0.394,0-0.592c0.096-0.216,0.152-0.475,0.295-0.641
			c0.662-0.767,1.356-1.501,2.023-2.263c0.269-0.308,0.534-0.586,0.954-0.56C525.919,214.321,526.046,214.321,526.173,214.321z"/>
		<path fill="#FFFFFF" d="M525.792,214.321c-0.42-0.026-0.684,0.253-0.954,0.56c-0.667,0.762-1.361,1.496-2.023,2.263
			c-0.143,0.166-0.199,0.425-0.295,0.641c0-0.817,0-1.634,0-2.451c0.023,0.148,0.046,0.296,0.07,0.446
			c0.421-0.456,0.829-0.898,1.275-1.382c-0.448,0-0.853,0-1.273,0c-0.026,0.214-0.049,0.406-0.072,0.598c0-0.225,0-0.451,0-0.676
			C523.611,214.321,524.701,214.321,525.792,214.321z"/>
		<path d="M592.61,264.181c0.029-0.072,0.042-0.161,0.088-0.213c0.5-0.561,1.004-1.116,1.587-1.761
			c-0.049,0.758,0.205,1.456-0.382,1.974C593.473,264.181,593.042,264.181,592.61,264.181z"/>
		<path d="M522.52,214.997c0.023-0.192,0.046-0.383,0.072-0.598c0.42,0,0.825,0,1.273,0c-0.446,0.483-0.854,0.925-1.275,1.382
			c-0.023-0.15-0.047-0.298-0.07-0.446C522.52,215.223,522.52,215.11,522.52,214.997z"/>
		<path d="M522.563,240.028c0-0.407-0.025-0.826,0.013-1.238c0.014-0.154,0.156-0.31,0.268-0.435
			c3.905-4.341,7.813-8.678,11.721-13.016c3.137-3.481,6.28-6.956,9.405-10.451c0.339-0.379,0.669-0.608,1.155-0.529
			c0.183,0.03,0.374,0.005,0.524,0.005C537.963,222.91,530.278,231.452,522.563,240.028z"/>
	</g>
</g>
<style>
#g-totals-tablet-img rect, #g-totals-tablet-img circle, #g-totals-tablet-img path, #g-totals-tablet-img line, #g-totals-tablet-img polyline { vector-effect: non-scaling-stroke; }
</style>
</svg>

