<?xml version="1.0" encoding="utf-8"?>
<!-- Generator: Adobe Illustrator 23.1.1, SVG Export Plug-In . SVG Version: 6.00 Build 0)  -->
<svg version="1.2" baseProfile="tiny" id="g-totals-desktop-img" xmlns="http://www.w3.org/2000/svg" xmlns:xlink="http://www.w3.org/1999/xlink"
	 x="0px" y="0px" viewBox="0 0 1200 400" xml:space="preserve">
<g>
	
		<line style="opacity:0.5;" fill="none" stroke="#777777" stroke-width="0.75" stroke-miterlimit="10" x1="67.584" y1="359.539" x2="67.583" y2="248.876"/>
	
		<line style="opacity:0.2;" fill="none" stroke="#777777" stroke-width="0.75" stroke-miterlimit="10" x1="1118.438" y1="396.612" x2="1118.437" y2="115.11"/>
	
		<line style="opacity:0.2;" fill="none" stroke="#777777" stroke-width="0.75" stroke-miterlimit="10" x1="911.625" y1="396.944" x2="911.624" y2="115.442"/>
	
		<line style="opacity:0.2;" fill="none" stroke="#777777" stroke-width="0.75" stroke-miterlimit="10" x1="695.699" y1="396.612" x2="695.698" y2="115.11"/>
	
		<line style="opacity:0.2;" fill="none" stroke="#777777" stroke-width="0.75" stroke-miterlimit="10" x1="486.164" y1="396.549" x2="486.163" y2="115.047"/>
	
		<line style="opacity:0.2;" fill="none" stroke="#777777" stroke-width="0.75" stroke-miterlimit="10" x1="274.345" y1="396.612" x2="274.345" y2="115.11"/>
	
		<line style="opacity:0.5;" fill="none" stroke="#777777" stroke-width="0.75" stroke-miterlimit="10" x1="67.583" y1="225.71" x2="67.582" y2="115.047"/>
	
		<rect x="873.344" y="126.29" transform="matrix(3.037352e-06 1 -1 3.037352e-06 1099.1202 -730.5695)" fill="#D8DEF0" width="83.004" height="115.975"/>
	
		<rect x="420.719" y="-210.429" transform="matrix(3.037352e-06 1 -1 3.037352e-06 646.4282 -278.0133)" fill="#3F5EBA" width="83.004" height="789.275"/>
	
		<rect x="511.366" y="-167.28" transform="matrix(3.037352e-06 1 -1 3.037352e-06 870.8688 -234.8656)" fill="#3F5EBA" width="83.004" height="970.567"/>
	
		<rect x="1068.552" y="246.002" transform="matrix(3.087487e-06 1 -1 3.087487e-06 1427.9545 -792.15)" fill="#D8DEF0" width="83.004" height="143.805"/>
	<rect x="68.584" y="225.713" fill="#FFFFFF" width="271.084" height="22.163"/>
	<rect x="68.584" y="359.508" fill="#FFFFFF" width="271.084" height="22.163"/>
	<rect x="856.859" y="225.779" fill="#FFFFFF" width="167.509" height="40.049"/>
	<rect x="1037.744" y="359.995" fill="#FFFFFF" width="167.509" height="40.049"/>
	<g style="opacity:0.1;">
		<path fill="#FFFFFF" d="M1176.472,276.405c1.828,0,3.656,0,5.484,0c0,27.667,0,55.334,0,83.001c-0.305,0-0.609,0-0.914,0
			c1.174-0.863,0.667-2.025,0.764-3.286c-1.167,1.073-2.177,1.998-3.177,2.932c-0.093,0.087-0.119,0.235-0.177,0.354
			c-0.965,0-1.929,0-2.894,0c1.777-1.66,3.476-3.401,5.36-4.951c1.203-0.99,0.807-2.088,0.783-3.225
			c-2.922,2.599-5.763,5.23-8.598,7.867c-0.078,0.073-0.091,0.205-0.135,0.309c-0.965,0-1.93,0-2.894,0
			c0.185-0.19,0.362-0.388,0.557-0.568c3.565-3.294,7.133-6.584,10.694-9.881c0.188-0.174,0.433-0.396,0.45-0.609
			c0.057-0.713,0.021-1.431,0.021-2.278c-0.277,0.219-0.452,0.34-0.605,0.481c-4.365,4.031-8.729,8.062-13.086,12.1
			c-0.24,0.222-0.416,0.502-0.622,0.755c-0.965,0-1.929,0-2.894,0c0.043-0.057,0.078-0.123,0.131-0.171
			c5.366-4.957,10.69-9.954,16.137-14.834c1.175-1.053,0.867-2.115,0.933-3.373c-0.205,0.146-0.291,0.194-0.361,0.258
			c-6.36,5.868-12.72,11.738-19.075,17.612c-0.151,0.14-0.239,0.338-0.356,0.509c-0.965,0-1.929,0-2.894,0
			c0.101-0.104,0.198-0.214,0.305-0.313c7.135-6.586,14.238-13.202,21.44-19.725c1.163-1.053,0.902-2.109,0.928-3.403
			c-0.295,0.25-0.465,0.385-0.624,0.532c-8.073,7.448-16.146,14.897-24.214,22.351c-0.172,0.158-0.285,0.371-0.425,0.558
			c-0.965,0-1.93,0-2.894,0c0.03-0.038,0.054-0.08,0.089-0.113c9.051-8.354,18.077-16.731,27.185-25.032
			c1.141-1.04,0.827-2.086,0.895-3.368c-0.325,0.28-0.511,0.43-0.686,0.592c-9.759,9.003-19.517,18.007-29.271,27.015
			c-0.297,0.275-0.537,0.603-0.803,0.906c-0.914,0-1.828,0-2.742,0c0.07-0.113,0.118-0.246,0.214-0.336
			c2.268-2.106,4.539-4.209,6.814-6.308c8.67-8,17.342-15.997,26.008-24c0.188-0.174,0.431-0.396,0.448-0.609
			c0.056-0.71,0.021-1.427,0.021-2.294c-0.317,0.26-0.507,0.401-0.678,0.558c-11.656,10.76-23.312,21.522-34.963,32.287
			c-0.228,0.21-0.405,0.467-0.606,0.701c-0.914,0-1.828,0-2.742,0c0.18-0.216,0.337-0.453,0.545-0.644
			c12.529-11.569,25.047-23.148,37.622-34.674c1.118-1.024,0.717-2.062,0.835-3.322c-0.352,0.308-0.539,0.465-0.717,0.63
			c-12.649,11.673-25.299,23.344-37.942,35.022c-1.053,0.973-2.058,1.991-3.085,2.988c-0.914,0-1.828,0-2.742,0
			c0.183-0.212,0.346-0.444,0.552-0.635c14.376-13.271,28.743-26.551,43.158-39.785c1.096-1.006,0.642-2.032,0.766-3.25
			c-0.329,0.277-0.503,0.412-0.663,0.56c-3.846,3.552-7.688,7.107-11.535,10.657c-10.63,9.808-21.266,19.613-31.891,29.425
			c-1.068,0.986-2.087,2.018-3.129,3.028c-0.914,0-1.828,0-2.742,0c0.205-0.23,0.391-0.477,0.618-0.686
			c6.109-5.644,12.223-11.285,18.335-16.926c10.178-9.394,20.357-18.788,30.53-28.186c0.188-0.174,0.436-0.395,0.453-0.607
			c0.057-0.713,0.022-1.432,0.022-2.148c-0.09-0.059-0.18-0.118-0.269-0.177c-0.184,0.243-0.332,0.519-0.556,0.726
			c-17.115,15.806-34.236,31.606-51.353,47.41c-0.194,0.179-0.348,0.396-0.521,0.595c-0.914,0-1.828,0-2.742,0
			c0.153-0.18,0.288-0.377,0.462-0.538c3.35-3.098,6.706-6.192,10.059-9.288c14.671-13.544,29.326-27.103,44.045-40.602
			c1.148-1.053,0.765-2.094,0.892-3.368c-0.331,0.285-0.502,0.423-0.663,0.571c-18.235,16.833-36.469,33.666-54.7,50.503
			c-0.964,0.89-1.892,1.814-2.837,2.722c-0.914,0-1.828,0-2.742,0c0.083-0.109,0.151-0.233,0.252-0.326
			c6.102-5.637,12.206-11.272,18.31-16.907c13.82-12.756,27.624-25.528,41.49-38.241c1.14-1.045,0.786-2.085,0.87-3.363
			c-0.248,0.214-0.341,0.29-0.429,0.371c-8.739,8.065-17.478,16.129-26.217,24.194c-11.035,10.184-22.072,20.366-33.103,30.555
			c-1.323,1.222-2.611,2.477-3.915,3.716c-0.914,0-1.828,0-2.742,0c0.157-0.18,0.298-0.375,0.474-0.537
			c6.869-6.344,13.741-12.684,20.612-19.025c14.844-13.698,29.675-27.408,44.556-41.072c1.098-1.008,0.648-2.029,0.629-3.136
			c-0.28,0.148-0.43,0.372-0.626,0.553c-11.068,10.22-22.14,20.436-33.211,30.653c-11.519,10.631-23.038,21.263-34.551,31.9
			c-0.198,0.183-0.317,0.441-0.473,0.664c-0.965,0-1.93,0-2.894,0c0.158-0.177,0.302-0.367,0.476-0.529
			c4.298-3.971,8.599-7.94,12.9-11.908c19.242-17.758,38.476-35.524,57.751-53.251c1.095-1.007,0.649-2.029,0.761-3.255
			c-1,0.918-1.844,1.691-2.685,2.467c-11.053,10.201-22.105,20.402-33.157,30.603c-11.316,10.443-22.634,20.885-33.947,31.331
			c-1.627,1.502-3.228,3.027-4.841,4.542c-0.914,0-1.828,0-2.742,0c0.092-0.108,0.174-0.225,0.278-0.322
			c8.945-8.261,17.892-16.52,26.838-24.78c10.324-9.533,20.647-19.068,30.972-28.6c6.3-5.816,12.606-11.627,18.905-17.445
			c0.154-0.142,0.356-0.326,0.366-0.498c0.041-0.73,0.017-1.463,0.017-2.333c-0.304,0.256-0.475,0.389-0.633,0.535
			c-13.308,12.286-26.613,24.574-39.922,36.859c-12.956,11.959-25.915,23.914-38.868,35.877c-0.218,0.201-0.363,0.47-0.542,0.707
			c-0.965,0-1.93,0-2.894,0c0.147-0.159,0.283-0.328,0.443-0.476c2.295-2.121,4.593-4.239,6.889-6.359
			c15.66-14.456,31.319-28.912,46.979-43.368c9.364-8.643,18.73-17.284,28.09-25.931c0.187-0.173,0.421-0.4,0.438-0.614
			c0.055-0.711,0.021-1.429,0.021-2.29c-0.321,0.279-0.522,0.446-0.713,0.622c-5.187,4.788-10.372,9.577-15.559,14.365
			c-22.875,21.113-45.751,42.224-68.622,63.341c-0.221,0.204-0.372,0.472-0.556,0.71c-0.965,0-1.929,0-2.894,0
			c0.095-0.107,0.181-0.221,0.286-0.319c10.35-9.561,20.699-19.122,31.053-28.678c18.784-17.337,37.567-34.676,56.375-51.991
			c0.645-0.594,0.703-1.166,0.584-1.872c-0.776-0.184-1.346-0.011-1.914,0.523c-2.838,2.667-5.724,5.29-8.587,7.934
			c-11.774,10.872-23.544,21.748-35.32,32.617c-14.872,13.727-29.749,27.449-44.619,41.178c-0.184,0.17-0.3,0.404-0.447,0.608
			c-0.965,0-1.929,0-2.894,0c0.098-0.107,0.187-0.221,0.294-0.319c4.621-4.267,9.244-8.533,13.867-12.799
			c24.481-22.593,48.962-45.185,73.442-67.779c0.67-0.619,1.329-1.248,2.078-1.951
			C1177.158,276.494,1176.815,276.45,1176.472,276.405z"/>
		<path fill="#FFFFFF" d="M1063.445,359.406c-0.914,0-1.828,0-2.742,0c0.145-0.18,0.268-0.381,0.439-0.538
			c8.534-7.887,17.069-15.773,25.61-23.654c20.214-18.655,40.43-37.308,60.649-55.958c0.94-0.867,1.925-1.693,2.89-2.539
			c-0.046-0.058-0.093-0.117-0.139-0.175c-0.366-0.046-0.732-0.091-1.098-0.137c3.3,0,6.601,0,9.901,0
			c-0.304,0.199-0.646,0.363-0.907,0.603c-7.867,7.246-15.729,14.498-23.587,21.752c-21.66,19.996-43.319,39.993-64.975,59.992
			c-0.211,0.195-0.372,0.434-0.557,0.653c-0.965,0-1.93,0-2.894,0c29.86-27.612,59.72-55.223,89.681-82.928
			c-0.439,0-0.769,0.04-1.084-0.007c-1.083-0.16-1.818,0.266-2.57,0.974c-3.833,3.604-7.728,7.153-11.598,10.724
			c-12.328,11.375-24.655,22.75-36.98,34.127c-12.806,11.82-25.611,23.642-38.411,35.467
			C1064.505,358.288,1063.986,358.858,1063.445,359.406z"/>
		<path fill="#FFFFFF" d="M1038.159,347.73c0-1.313,0-2.626,0-3.939c0.046,0.243,0.092,0.487,0.131,0.698
			c24.527-22.68,49.032-45.339,73.55-68.01c-0.364,0-0.794,0.042-1.211-0.009c-0.861-0.104-1.453,0.213-2.054,0.779
			c-3.072,2.892-6.192,5.742-9.295,8.606c-19.961,18.425-39.917,36.853-59.899,55.259c-0.761,0.701-1.301,1.385-1.222,2.396
			c0-1.36,0-2.72,0-4.08c0.208-0.089,0.46-0.136,0.617-0.275c0.785-0.695,1.545-1.416,2.314-2.126
			c21.476-19.821,42.952-39.642,64.434-59.456c0.331-0.305,0.752-0.528,1.131-0.79c-0.073-0.082-0.147-0.164-0.22-0.246
			c-0.417-0.044-0.834-0.087-1.251-0.131c3.402,0,6.804,0,10.206,0c-0.32,0.169-0.698,0.284-0.95,0.515
			c-3.417,3.129-6.817,6.273-10.22,9.414c-13.583,12.537-27.165,25.075-40.748,37.613c-8.247,7.613-16.497,15.224-24.732,22.848
			C1038.473,347.041,1038.349,347.415,1038.159,347.73z"/>
		<path fill="#FFFFFF" d="M1078.221,276.405c3.3,0,6.601,0,9.901,0c-0.399,0.215-0.871,0.362-1.187,0.654
			c-9.908,9.12-19.801,18.253-29.696,27.385c-6.137,5.664-12.277,11.325-18.398,17.003c-0.312,0.289-0.459,0.731-0.683,1.101
			c0-3.001,0-6.002,0-9.003c0.049,0.215,0.099,0.429,0.12,0.521c13.548-12.53,27.103-25.067,40.607-37.555
			C1078.763,276.491,1078.492,276.448,1078.221,276.405z M1038.245,319.2c15.443-14.277,30.823-28.497,46.209-42.722
			c-0.301,0-0.682,0.042-1.05-0.008c-0.973-0.131-1.634,0.25-2.312,0.881c-6.255,5.818-12.546,11.602-18.825,17.397
			c-7.823,7.22-15.645,14.441-23.461,21.667c-0.224,0.207-0.508,0.467-0.536,0.723
			C1038.196,317.825,1038.245,318.523,1038.245,319.2z"/>
		<path d="M1176.472,276.405c0.343,0.044,0.686,0.089,1.178,0.153c-0.748,0.703-1.407,1.333-2.078,1.951
			c-24.48,22.594-48.961,45.186-73.442,67.779c-4.623,4.266-9.245,8.532-13.867,12.799c-0.107,0.098-0.196,0.212-0.294,0.319
			c-0.863,0-1.726,0-2.59,0c0.212-0.253,0.396-0.531,0.639-0.755c4.748-4.392,9.504-8.777,14.257-13.166
			c14.399-13.295,28.797-26.591,43.197-39.885c10.542-9.732,21.085-19.463,31.628-29.195
			C1175.558,276.405,1176.015,276.405,1176.472,276.405z"/>
		<path d="M1142.808,276.405c0.406,0,0.812,0,1.219,0c0.252,0.055,0.504,0.11,0.837,0.183c-0.241,0.234-0.408,0.403-0.584,0.565
			c-15.455,14.268-30.909,28.536-46.366,42.802c-11.894,10.977-23.793,21.95-35.685,32.928c-2.346,2.165-4.673,4.348-7.009,6.523
			c-0.863,0-1.726,0-2.59,0c0.155-0.205,0.28-0.436,0.468-0.61c3.457-3.2,6.923-6.393,10.385-9.589
			c11.751-10.847,23.502-21.694,35.252-32.541c14.349-13.245,28.696-26.491,43.056-39.726
			C1142.057,276.695,1142.465,276.581,1142.808,276.405z"/>
		<path fill="#FFFFFF" d="M1126.813,276.405c1.574,0,3.148,0,4.722,0c-0.219,0.157-0.458,0.294-0.653,0.473
			c-11.713,10.806-23.422,21.615-35.131,32.424c-17.854,16.482-35.707,32.965-53.556,49.451c-0.207,0.191-0.357,0.434-0.533,0.652
			c-0.914,0-1.828,0-2.742,0c0.212-0.249,0.4-0.52,0.641-0.743c9.539-8.813,19.083-17.621,28.626-26.43
			c18.702-17.264,37.403-34.528,56.106-51.791c1.373-1.267,2.759-2.521,4.26-3.891
			C1127.844,276.492,1127.329,276.449,1126.813,276.405z"/>
		<path d="M1063.445,359.406c0.541-0.549,1.06-1.118,1.628-1.643c12.8-11.826,25.605-23.647,38.411-35.467
			c12.325-11.377,24.653-22.752,36.98-34.127c3.87-3.571,7.765-7.12,11.598-10.724c0.752-0.707,1.488-1.134,2.57-0.974
			c0.315,0.047,0.645,0.007,1.084,0.007c-29.961,27.705-59.821,55.316-89.681,82.928
			C1065.171,359.406,1064.308,359.406,1063.445,359.406z"/>
		<path fill="#FFFFFF" d="M1175.101,276.405c-10.543,9.732-21.086,19.462-31.628,29.195c-14.4,13.294-28.798,26.59-43.197,39.885
			c-4.753,4.388-9.509,8.773-14.257,13.166c-0.243,0.224-0.427,0.502-0.639,0.755c-0.965,0-1.93,0-2.894,0
			c0.065-0.071,0.125-0.148,0.196-0.213c11.683-10.787,23.368-21.573,35.052-32.359c17.987-16.603,35.974-33.206,53.959-49.811
			c0.145-0.134,0.27-0.286,0.448-0.475c-0.356-0.06-0.602-0.102-0.848-0.143C1172.563,276.405,1173.832,276.405,1175.101,276.405z"
			/>
		<path fill="#FFFFFF" d="M1142.808,276.405c-0.342,0.175-0.751,0.289-1.018,0.535c-14.359,13.235-28.707,26.481-43.056,39.726
			c-11.751,10.847-23.501,21.694-35.252,32.541c-3.462,3.196-6.928,6.388-10.385,9.589c-0.188,0.174-0.313,0.406-0.468,0.61
			c-0.965,0-1.929,0-2.894,0c0.244-0.238,0.482-0.481,0.732-0.712c14.05-12.971,28.102-25.942,42.153-38.913
			c15.329-14.149,30.659-28.298,45.989-42.448c0.254-0.235,0.503-0.475,0.823-0.778c-0.4-0.067-0.645-0.109-0.89-0.15
			C1139.964,276.405,1141.386,276.405,1142.808,276.405z"/>
		<path fill="#FFFFFF" d="M1055.219,359.406c2.336-2.175,4.663-4.357,7.009-6.523c11.893-10.978,23.792-21.951,35.685-32.928
			c15.457-14.266,30.911-28.534,46.366-42.802c0.176-0.162,0.343-0.332,0.584-0.565c-0.332-0.072-0.584-0.128-0.837-0.183
			c1.32,0,2.64,0,3.961,0c-0.273,0.202-0.569,0.383-0.815,0.61c-15.944,14.708-31.885,29.419-47.824,44.132
			c-13.576,12.532-27.149,25.068-40.719,37.606c-0.203,0.188-0.345,0.434-0.515,0.652
			C1057.149,359.406,1056.184,359.406,1055.219,359.406z"/>
		<path fill="#FFFFFF" d="M1079.896,359.406c-0.965,0-1.929,0-2.894,0c0.048-0.054,0.092-0.113,0.146-0.162
			c11.762-10.852,23.526-21.702,35.286-32.556c17.526-16.174,35.049-32.351,52.572-48.527c0.541-0.5,1.066-1.014,1.698-1.616
			c-0.718-0.055-1.263-0.098-1.808-0.14c1.879,0,3.757,0,5.636,0c-0.87-0.034-1.412,0.45-1.974,0.982
			c-1.787,1.693-3.612,3.352-5.423,5.023c-12.551,11.581-25.105,23.161-37.654,34.744c-14.911,13.763-29.82,27.529-44.725,41.298
			C1080.439,358.744,1080.181,359.087,1079.896,359.406z"/>
		<path d="M1164.896,276.405c0.545,0.042,1.09,0.084,1.808,0.14c-0.631,0.602-1.157,1.116-1.698,1.616
			c-17.523,16.177-35.046,32.353-52.572,48.527c-11.76,10.854-23.525,21.704-35.286,32.556c-0.054,0.049-0.097,0.108-0.146,0.162
			c-0.863,0-1.726,0-2.59,0c0.143-0.186,0.26-0.396,0.433-0.555c13.125-12.12,26.254-24.236,39.383-36.353
			c15.398-14.212,30.795-28.425,46.197-42.633c1.269-1.17,2.573-2.307,3.861-3.46
			C1164.489,276.405,1164.692,276.405,1164.896,276.405z"/>
		<path d="M1041.662,359.406c0.177-0.219,0.327-0.461,0.533-0.652c17.849-16.486,35.703-32.969,53.556-49.451
			c11.709-10.809,23.418-21.618,35.131-32.424c0.194-0.179,0.434-0.316,0.653-0.473c0.406,0,0.812,0,1.219,0
			c0.355,0.05,0.71,0.1,1.175,0.165c-0.174,0.17-0.253,0.252-0.336,0.329c-4.601,4.248-9.201,8.496-13.802,12.744
			c-20.137,18.592-40.275,37.183-60.411,55.775c-5.046,4.659-10.085,9.324-15.128,13.987
			C1043.388,359.406,1042.525,359.406,1041.662,359.406z"/>
		<path fill="#FFFFFF" d="M1044.252,359.406c5.042-4.662,10.082-9.328,15.128-13.987c20.136-18.593,40.274-37.184,60.411-55.775
			c4.601-4.248,9.202-8.496,13.802-12.744c0.084-0.077,0.163-0.159,0.336-0.329c-0.464-0.065-0.819-0.115-1.175-0.165
			c1.422,0,2.843,0,4.265,0c-0.236,0.173-0.494,0.327-0.706,0.523c-10.997,10.147-21.988,20.298-32.983,30.446
			c-18.195,16.793-36.392,33.584-54.583,50.381c-0.565,0.522-1.069,1.099-1.601,1.651
			C1046.181,359.406,1045.216,359.406,1044.252,359.406z"/>
		<path fill="#FFFFFF" d="M1164.286,276.405c-1.288,1.152-2.593,2.289-3.861,3.46c-15.402,14.208-30.799,28.422-46.197,42.633
			c-13.129,12.117-26.258,24.233-39.383,36.353c-0.172,0.159-0.29,0.369-0.433,0.555c-0.965,0-1.929,0-2.894,0
			c7.561-6.987,15.119-13.978,22.685-20.961c21.004-19.387,42.011-38.771,63.02-58.154c1.318-1.216,2.665-2.407,4.124-3.724
			c-0.595-0.073-0.961-0.118-1.326-0.163C1161.443,276.405,1162.864,276.405,1164.286,276.405z"/>
		<path d="M1047.146,359.406c0.532-0.552,1.036-1.129,1.601-1.651c18.191-16.797,36.389-33.587,54.583-50.381
			c10.995-10.148,21.986-20.299,32.983-30.446c0.212-0.196,0.469-0.35,0.706-0.523c0.508,0,1.016,0,1.523,0
			c0.245,0.041,0.49,0.082,0.89,0.15c-0.32,0.303-0.569,0.543-0.823,0.778c-15.329,14.15-30.659,28.298-45.989,42.448
			c-14.052,12.97-28.103,25.941-42.153,38.913c-0.251,0.231-0.489,0.475-0.732,0.712
			C1048.872,359.406,1048.009,359.406,1047.146,359.406z"/>
		<path d="M1090.864,359.406c0.147-0.204,0.263-0.438,0.447-0.608c14.87-13.729,29.747-27.451,44.619-41.178
			c11.776-10.87,23.546-21.746,35.32-32.617c2.863-2.644,5.75-5.267,8.587-7.934c0.568-0.534,1.138-0.707,1.914-0.523
			c0.12,0.706,0.062,1.278-0.584,1.872c-18.808,17.315-37.591,34.654-56.375,51.991c-10.354,9.557-20.703,19.118-31.053,28.678
			c-0.105,0.097-0.191,0.212-0.286,0.319C1092.59,359.406,1091.727,359.406,1090.864,359.406z"/>
		<path d="M1160.021,276.405c0.366,0.045,0.731,0.09,1.326,0.163c-1.46,1.317-2.806,2.507-4.124,3.724
			c-21.009,19.382-42.016,38.767-63.02,58.154c-7.566,6.983-15.123,13.974-22.685,20.961c-0.863,0-1.726,0-2.589,0
			c0.185-0.219,0.346-0.459,0.557-0.653c21.656-20,43.315-39.997,64.975-59.992c7.858-7.254,15.72-14.506,23.587-21.752
			c0.26-0.24,0.603-0.404,0.907-0.603C1159.31,276.405,1159.666,276.405,1160.021,276.405z"/>
		<path d="M1079.896,359.406c0.285-0.319,0.543-0.662,0.858-0.953c14.905-13.769,29.814-27.535,44.725-41.298
			c12.549-11.583,25.103-23.162,37.654-34.744c1.811-1.671,3.636-3.33,5.423-5.023c0.562-0.532,1.104-1.016,1.974-0.982
			c0.254,0,0.508,0,0.762,0c0.246,0.042,0.491,0.083,0.848,0.143c-0.177,0.189-0.303,0.341-0.448,0.475
			c-17.985,16.604-35.972,33.208-53.959,49.811c-11.684,10.786-23.369,21.572-35.052,32.359c-0.071,0.066-0.131,0.142-0.196,0.213
			C1081.623,359.406,1080.76,359.406,1079.896,359.406z"/>
		<path d="M1058.114,359.406c0.17-0.219,0.311-0.464,0.515-0.652c13.57-12.538,27.143-25.074,40.719-37.606
			c15.939-14.713,31.88-29.424,47.824-44.132c0.246-0.227,0.542-0.408,0.815-0.61c0.355,0,0.711,0,1.066,0
			c0.366,0.046,0.732,0.091,1.098,0.137c0.046,0.058,0.093,0.117,0.139,0.175c-0.964,0.845-1.949,1.671-2.89,2.539
			c-20.219,18.65-40.435,37.303-60.649,55.958c-8.54,7.881-17.076,15.767-25.61,23.654c-0.17,0.157-0.293,0.358-0.439,0.538
			C1059.84,359.406,1058.977,359.406,1058.114,359.406z"/>
		<path d="M1126.813,276.405c0.515,0.043,1.031,0.087,1.739,0.146c-1.501,1.37-2.887,2.624-4.26,3.891
			c-18.703,17.263-37.404,34.527-56.106,51.791c-9.543,8.809-19.087,17.617-28.626,26.43c-0.241,0.223-0.428,0.494-0.641,0.743
			c-0.203,0-0.406,0-0.609,0c-0.237-1.207-0.021-2.165,1.034-3.129c9.419-8.607,18.768-17.278,28.14-25.929
			c19.21-17.732,38.423-35.461,57.625-53.2c0.449-0.415,0.901-0.732,1.551-0.743
			C1126.712,276.405,1126.763,276.405,1126.813,276.405z"/>
		<path fill="#FFFFFF" d="M1126.661,276.405c-0.651,0.012-1.102,0.328-1.551,0.743c-19.202,17.739-38.415,35.469-57.625,53.2
			c-9.372,8.651-18.721,17.322-28.14,25.929c-1.054,0.963-1.27,1.922-1.034,3.129c-0.051-0.117-0.145-0.234-0.146-0.352
			c-0.009-1.899-0.006-3.798-0.006-5.697c0.052,0.416,0.104,0.832,0.167,1.336c28.236-26.118,56.368-52.141,84.496-78.16
			c-0.147-0.033-0.363-0.08-0.578-0.128C1123.716,276.405,1125.189,276.405,1126.661,276.405z"/>
		<path d="M1096.348,359.406c0.184-0.238,0.335-0.506,0.556-0.71c22.871-21.117,45.747-42.229,68.622-63.341
			c5.187-4.787,10.372-9.577,15.559-14.365c0.191-0.176,0.392-0.343,0.713-0.622c0,0.861,0.034,1.578-0.021,2.29
			c-0.017,0.215-0.251,0.441-0.438,0.614c-9.36,8.647-18.726,17.288-28.09,25.931c-15.661,14.455-31.32,28.912-46.979,43.368
			c-2.296,2.12-4.595,4.238-6.889,6.359c-0.16,0.148-0.296,0.317-0.443,0.476C1098.074,359.406,1097.211,359.406,1096.348,359.406z"
			/>
		<path d="M1122.244,276.405c0.216,0.048,0.432,0.096,0.578,0.128c-28.128,26.019-56.26,52.041-84.496,78.16
			c-0.063-0.505-0.115-0.921-0.167-1.336c0-0.328,0-0.657,0-0.985c0.194-0.182,0.386-0.365,0.582-0.545
			c10.581-9.764,21.165-19.525,31.744-29.291c12.929-11.935,25.854-23.872,38.779-35.81c3.721-3.437,7.435-6.88,11.152-10.321
			C1121.025,276.405,1121.634,276.405,1122.244,276.405z"/>
		<path fill="#FFFFFF" d="M1120.416,276.405c-3.717,3.44-7.431,6.884-11.152,10.321c-12.925,11.938-25.851,23.875-38.779,35.81
			c-10.579,9.766-21.163,19.527-31.744,29.291c-0.196,0.18-0.388,0.363-0.582,0.545c0-1.313,0-2.626,0-3.939
			c0.048,0.378,0.096,0.756,0.15,1.186c26.39-24.401,52.713-48.741,79.042-73.086c-0.316-0.039-0.682-0.084-1.047-0.128
			C1117.674,276.405,1119.045,276.405,1120.416,276.405z"/>
		<path d="M1101.832,359.406c0.179-0.237,0.324-0.506,0.542-0.707c12.952-11.962,25.912-23.918,38.868-35.877
			c13.309-12.285,26.614-24.573,39.922-36.859c0.158-0.146,0.329-0.279,0.633-0.535c0,0.87,0.024,1.603-0.017,2.333
			c-0.01,0.172-0.212,0.356-0.366,0.498c-6.299,5.817-12.604,11.629-18.905,17.445c-10.326,9.532-20.648,19.067-30.972,28.6
			c-8.946,8.26-17.893,16.519-26.838,24.78c-0.104,0.096-0.186,0.214-0.278,0.322
			C1103.558,359.406,1102.695,359.406,1101.832,359.406z"/>
		<path d="M1116.303,276.405c0.366,0.045,0.731,0.09,1.047,0.128c-26.329,24.345-52.652,48.685-79.042,73.086
			c-0.054-0.43-0.102-0.808-0.15-1.186c0-0.234,0-0.469,0-0.703c0.19-0.314,0.314-0.689,0.579-0.935
			c8.236-7.624,16.485-15.235,24.732-22.848c13.583-12.538,27.165-25.075,40.748-37.613c3.403-3.141,6.803-6.286,10.22-9.414
			c0.253-0.231,0.631-0.346,0.95-0.515C1115.693,276.405,1115.998,276.405,1116.303,276.405z"/>
		<path d="M1107.163,359.406c1.613-1.515,3.214-3.04,4.841-4.542c11.313-10.446,22.631-20.887,33.947-31.331
			c11.053-10.201,22.105-20.402,33.157-30.603c0.841-0.776,1.685-1.549,2.685-2.467c-0.112,1.226,0.334,2.248-0.761,3.255
			c-19.276,17.727-38.509,35.493-57.751,53.251c-4.301,3.969-8.602,7.937-12.9,11.908c-0.175,0.162-0.318,0.352-0.476,0.529
			C1108.991,359.406,1108.077,359.406,1107.163,359.406z"/>
		<path d="M1038.159,343.509c-0.078-1.012,0.461-1.695,1.222-2.396c19.981-18.405,39.938-36.834,59.899-55.259
			c3.103-2.864,6.223-5.713,9.295-8.606c0.601-0.566,1.193-0.883,2.054-0.779c0.417,0.05,0.848,0.009,1.211,0.009
			c-24.518,22.671-49.023,45.331-73.55,68.01c-0.04-0.211-0.086-0.455-0.131-0.698
			C1038.159,343.697,1038.159,343.603,1038.159,343.509z"/>
		<path d="M1112.799,359.406c0.156-0.223,0.274-0.48,0.473-0.664c11.513-10.637,23.031-21.269,34.551-31.9
			c11.071-10.217,22.143-20.433,33.211-30.653c0.196-0.181,0.346-0.405,0.626-0.553c0.019,1.107,0.469,2.128-0.629,3.136
			c-14.881,13.664-29.712,27.373-44.556,41.072c-6.871,6.341-13.743,12.682-20.612,19.025c-0.176,0.162-0.317,0.357-0.474,0.537
			C1114.526,359.406,1113.662,359.406,1112.799,359.406z"/>
		<path d="M1105.183,276.405c0.417,0.044,0.834,0.087,1.251,0.131c0.073,0.082,0.147,0.164,0.22,0.246
			c-0.379,0.261-0.799,0.484-1.131,0.79c-21.483,19.815-42.958,39.636-64.434,59.456c-0.77,0.71-1.529,1.43-2.314,2.126
			c-0.157,0.139-0.409,0.185-0.617,0.275c0-0.703,0-1.407,0-2.11c0.209-0.232,0.4-0.48,0.63-0.693
			c10.056-9.28,20.119-18.554,30.173-27.835c11.504-10.62,23-21.248,34.51-31.863c0.253-0.233,0.631-0.352,0.95-0.524
			C1104.675,276.405,1104.929,276.405,1105.183,276.405z"/>
		<path fill="#FFFFFF" d="M1104.421,276.405c-0.319,0.172-0.697,0.29-0.95,0.524c-11.51,10.615-23.005,21.243-34.51,31.863
			c-10.054,9.281-20.117,18.555-30.173,27.835c-0.23,0.212-0.421,0.461-0.63,0.693c0-1.266,0-2.532,0-3.798
			c0.046,0.295,0.091,0.589,0.136,0.878c20.88-19.318,41.741-38.617,62.566-57.884c-0.213-0.027-0.535-0.069-0.857-0.11
			C1101.476,276.405,1102.949,276.405,1104.421,276.405z"/>
		<path d="M1118.131,359.406c1.304-1.24,2.592-2.494,3.915-3.716c11.031-10.188,22.068-20.371,33.103-30.555
			c8.739-8.065,17.478-16.13,26.217-24.194c0.088-0.081,0.181-0.157,0.429-0.371c-0.083,1.278,0.27,2.318-0.87,3.363
			c-13.866,12.713-27.67,25.484-41.49,38.241c-6.104,5.635-12.208,11.269-18.31,16.907c-0.101,0.093-0.169,0.217-0.252,0.326
			C1119.959,359.406,1119.045,359.406,1118.131,359.406z"/>
		<path d="M1100.004,276.405c0.322,0.041,0.644,0.083,0.857,0.11c-20.825,19.267-41.686,38.566-62.566,57.884
			c-0.045-0.289-0.091-0.584-0.136-0.878c0-0.141,0-0.281,0-0.422c0.016-0.646,0.217-1.169,0.755-1.663
			c7.104-6.521,14.18-13.068,21.264-19.607c12.493-11.532,24.99-23.061,37.474-34.601c0.502-0.464,1.007-0.827,1.743-0.823
			C1099.598,276.405,1099.801,276.405,1100.004,276.405z"/>
		<path fill="#FFFFFF" d="M1099.394,276.405c-0.736-0.005-1.241,0.358-1.743,0.823c-12.484,11.54-24.98,23.069-37.474,34.601
			c-7.084,6.539-14.16,13.086-21.264,19.607c-0.538,0.494-0.739,1.018-0.755,1.663c0-1.266,0-2.532,0-3.798
			c0.242-0.115,0.535-0.183,0.719-0.352c5.856-5.391,11.7-10.794,17.549-16.192c12.881-11.887,25.764-23.773,38.646-35.66
			c0.168-0.155,0.326-0.318,0.568-0.554c-0.577-0.056-1.001-0.097-1.425-0.138C1095.942,276.405,1097.668,276.405,1099.394,276.405z
			"/>
		<path d="M1123.615,359.406c0.945-0.908,1.873-1.832,2.837-2.722c18.23-16.837,36.465-33.67,54.7-50.503
			c0.16-0.148,0.332-0.286,0.663-0.571c-0.127,1.274,0.256,2.315-0.892,3.368c-14.719,13.499-29.374,27.058-44.045,40.602
			c-3.353,3.096-6.709,6.189-10.059,9.288c-0.174,0.161-0.309,0.358-0.462,0.538
			C1125.443,359.406,1124.529,359.406,1123.615,359.406z"/>
		<path d="M1094.215,276.405c0.424,0.041,0.848,0.082,1.425,0.138c-0.241,0.236-0.4,0.4-0.568,0.554
			c-12.881,11.887-25.765,23.772-38.646,35.66c-5.849,5.398-11.693,10.8-17.549,16.192c-0.184,0.169-0.477,0.237-0.719,0.352
			c0-0.703,0-1.407,0-2.11c0.214-0.228,0.413-0.47,0.644-0.683c15.951-14.727,31.903-29.453,47.86-44.175
			c2.152-1.985,4.324-3.952,6.487-5.927C1093.504,276.405,1093.86,276.405,1094.215,276.405z"/>
		<path fill="#FFFFFF" d="M1093.149,276.405c-2.163,1.975-4.335,3.942-6.487,5.927c-15.956,14.722-31.909,29.448-47.86,44.175
			c-0.231,0.213-0.43,0.455-0.644,0.683c0-1.36,0-2.72,0-4.08c0.05,0.396,0.101,0.792,0.14,1.103
			c17.218-15.923,34.419-31.831,51.578-47.7c-0.146-0.023-0.418-0.065-0.689-0.108
			C1090.509,276.405,1091.829,276.405,1093.149,276.405z"/>
		<path d="M1129.098,359.406c0.173-0.199,0.327-0.416,0.521-0.595c17.117-15.804,34.238-31.604,51.353-47.41
			c0.224-0.207,0.372-0.482,0.556-0.726c0.09,0.059,0.18,0.118,0.269,0.177c0,0.716,0.035,1.435-0.022,2.148
			c-0.017,0.213-0.264,0.433-0.453,0.607c-10.173,9.398-20.352,18.792-30.53,28.186c-6.112,5.641-12.226,11.282-18.335,16.926
			c-0.227,0.21-0.413,0.457-0.618,0.686C1130.926,359.406,1130.012,359.406,1129.098,359.406z"/>
		<path d="M1089.188,276.405c0.271,0.042,0.542,0.085,0.689,0.108c-17.159,15.869-34.361,31.777-51.578,47.7
			c-0.04-0.311-0.09-0.707-0.14-1.103c0-0.188,0-0.375,0-0.563c0.224-0.371,0.371-0.812,0.683-1.101
			c6.121-5.678,12.261-11.339,18.398-17.003c9.895-9.132,19.788-18.265,29.696-27.385c0.317-0.291,0.788-0.439,1.187-0.654
			C1088.478,276.405,1088.833,276.405,1089.188,276.405z"/>
		<path d="M1134.582,359.406c1.042-1.011,2.061-2.042,3.129-3.028c10.626-9.812,21.261-19.617,31.891-29.425
			c3.847-3.55,7.689-7.105,11.535-10.657c0.16-0.148,0.333-0.282,0.663-0.56c-0.124,1.218,0.33,2.244-0.766,3.25
			c-14.415,13.235-28.782,26.514-43.158,39.785c-0.207,0.191-0.369,0.422-0.552,0.635
			C1136.41,359.406,1135.496,359.406,1134.582,359.406z"/>
		<path d="M1140.066,359.406c1.027-0.997,2.031-2.016,3.085-2.988c12.643-11.678,25.293-23.349,37.942-35.022
			c0.178-0.165,0.365-0.322,0.717-0.63c-0.119,1.26,0.282,2.298-0.835,3.322c-12.575,11.526-25.093,23.105-37.622,34.674
			c-0.207,0.191-0.364,0.429-0.545,0.644C1141.894,359.406,1140.98,359.406,1140.066,359.406z"/>
		<path d="M1078.221,276.405c0.271,0.043,0.542,0.086,0.664,0.105c-13.503,12.488-27.059,25.025-40.607,37.555
			c-0.021-0.091-0.07-0.306-0.12-0.521c0-0.516,0-1.032,0-1.547c0.203-0.207,0.397-0.422,0.611-0.619
			c12.449-11.491,24.898-22.981,37.356-34.464c0.238-0.22,0.582-0.342,0.877-0.509
			C1077.408,276.405,1077.815,276.405,1078.221,276.405z"/>
		<path fill="#FFFFFF" d="M1077.002,276.405c-0.295,0.168-0.638,0.289-0.877,0.509c-12.458,11.482-24.907,22.973-37.356,34.464
			c-0.214,0.197-0.408,0.412-0.611,0.619c0-1.313,0-2.626,0-3.939c0.046,0.359,0.092,0.717,0.14,1.09
			c11.779-10.896,23.515-21.752,35.255-32.613c-0.289-0.039-0.629-0.085-0.969-0.131
			C1074.057,276.405,1075.53,276.405,1077.002,276.405z"/>
		<path fill="#FFFFFF" d="M1038.159,296.804c0-1.36,0-2.72,0-4.08c0.047,0.407,0.093,0.815,0.128,1.121
			c6.248-5.772,12.516-11.562,18.807-17.373c-1.05,0.153-2.147-0.3-3.177,0.672c-4.978,4.7-10.036,9.329-15.083,13.966
			c-0.424,0.39-0.68,0.788-0.675,1.332c0-1.172,0-2.345,0-3.517c0.225-0.112,0.495-0.183,0.669-0.343
			c4.198-3.86,8.386-7.729,12.573-11.598c0.129-0.119,0.23-0.263,0.385-0.444c-0.445-0.053-0.791-0.094-1.137-0.136
			c3.351,0,6.702,0,10.054,0c-0.344,0.173-0.731,0.3-1.021,0.531c-0.516,0.41-0.973,0.884-1.455,1.33
			C1051.537,284.446,1044.848,290.625,1038.159,296.804z"/>
		<path d="M1145.55,359.406c0.201-0.235,0.379-0.491,0.606-0.701c11.651-10.765,23.307-21.526,34.963-32.287
			c0.171-0.158,0.36-0.298,0.678-0.558c0,0.867,0.035,1.583-0.021,2.294c-0.017,0.213-0.26,0.436-0.448,0.609
			c-8.666,8.003-17.338,16-26.008,24c-2.275,2.099-4.546,4.202-6.814,6.308c-0.096,0.089-0.144,0.223-0.214,0.336
			C1147.378,359.406,1146.464,359.406,1145.55,359.406z"/>
		<path d="M1072.585,276.405c0.34,0.046,0.681,0.092,0.969,0.131c-11.741,10.861-23.477,21.717-35.255,32.613
			c-0.048-0.373-0.094-0.732-0.14-1.09c0-0.188,0-0.375,0-0.563c0.217-0.398,0.34-0.882,0.664-1.182
			c10.541-9.759,21.098-19.502,31.672-29.231c0.345-0.317,0.882-0.456,1.329-0.677
			C1072.077,276.405,1072.331,276.405,1072.585,276.405z"/>
		<path fill="#FFFFFF" d="M1071.823,276.405c-0.447,0.222-0.985,0.36-1.329,0.677c-10.573,9.729-21.13,19.472-31.672,29.231
			c-0.324,0.3-0.447,0.784-0.664,1.182c0-1.313,0-2.626,0-3.939c0.059,0.181,0.118,0.363,0.152,0.467
			c9.939-9.19,19.854-18.358,29.746-27.504c-0.414-0.033-0.913-0.074-1.412-0.114
			C1068.37,276.405,1070.097,276.405,1071.823,276.405z"/>
		<path d="M1151.034,359.406c0.266-0.303,0.506-0.632,0.803-0.906c9.753-9.009,19.512-18.012,29.271-27.015
			c0.175-0.161,0.361-0.312,0.686-0.592c-0.068,1.283,0.246,2.328-0.895,3.368c-9.108,8.301-18.135,16.678-27.185,25.032
			c-0.035,0.033-0.06,0.075-0.089,0.113C1152.76,359.406,1151.897,359.406,1151.034,359.406z"/>
		<path d="M1066.644,276.405c0.499,0.04,0.999,0.081,1.412,0.114c-9.892,9.146-19.806,18.314-29.746,27.504
			c-0.034-0.104-0.093-0.286-0.152-0.467c0-0.469,0-0.938,0-1.407c0.164-0.252,0.285-0.543,0.5-0.749
			c1.005-0.96,2.035-1.897,3.058-2.841c8.004-7.385,16.008-14.77,24.012-22.154C1066.035,276.405,1066.339,276.405,1066.644,276.405
			z"/>
		<path fill="#FFFFFF" d="M1065.73,276.405c-8.004,7.385-16.008,14.769-24.012,22.154c-1.023,0.944-2.053,1.881-3.058,2.841
			c-0.216,0.206-0.336,0.497-0.5,0.749c0-1.407,0-2.814,0-4.22c0.045,0.361,0.091,0.721,0.13,1.033
			c8.101-7.493,16.195-14.978,24.271-22.447c-0.052-0.017-0.193-0.063-0.333-0.109
			C1063.394,276.405,1064.562,276.405,1065.73,276.405z"/>
		<path d="M1156.517,359.406c0.14-0.187,0.254-0.399,0.425-0.558c8.068-7.453,16.141-14.902,24.214-22.351
			c0.159-0.146,0.329-0.281,0.624-0.532c-0.026,1.294,0.235,2.35-0.928,3.403c-7.203,6.522-14.305,13.139-21.44,19.725
			c-0.107,0.099-0.203,0.208-0.305,0.313C1158.244,359.406,1157.381,359.406,1156.517,359.406z"/>
		<path d="M1062.226,276.405c0.141,0.046,0.281,0.092,0.333,0.109c-8.076,7.469-16.17,14.955-24.271,22.447
			c-0.039-0.311-0.085-0.672-0.13-1.033c0-0.375,0-0.75,0-1.125c6.689-6.179,13.379-12.358,20.068-18.537
			c0.483-0.446,0.939-0.92,1.455-1.33c0.29-0.231,0.677-0.357,1.021-0.531C1061.211,276.405,1061.719,276.405,1062.226,276.405z"/>
		<path d="M1162.001,359.406c0.117-0.171,0.205-0.369,0.356-0.509c6.354-5.874,12.714-11.743,19.075-17.612
			c0.069-0.064,0.155-0.112,0.361-0.258c-0.066,1.259,0.242,2.32-0.933,3.373c-5.447,4.88-10.771,9.877-16.137,14.834
			c-0.053,0.049-0.088,0.114-0.131,0.171C1163.728,359.406,1162.864,359.406,1162.001,359.406z"/>
		<path d="M1038.159,292.443c-0.005-0.544,0.251-0.942,0.675-1.332c5.047-4.637,10.105-9.266,15.083-13.966
			c1.03-0.972,2.126-0.519,3.177-0.672c-6.29,5.811-12.558,11.601-18.807,17.373c-0.035-0.306-0.082-0.714-0.128-1.121
			C1038.159,292.63,1038.159,292.537,1038.159,292.443z"/>
		<path d="M1167.485,359.406c0.206-0.253,0.382-0.533,0.622-0.755c4.357-4.038,8.721-8.069,13.086-12.1
			c0.153-0.141,0.328-0.262,0.605-0.481c0,0.847,0.035,1.566-0.021,2.278c-0.017,0.213-0.262,0.435-0.45,0.609
			c-3.561,3.297-7.13,6.587-10.694,9.881c-0.195,0.18-0.372,0.378-0.557,0.568C1169.211,359.406,1168.348,359.406,1167.485,359.406z
			"/>
		<path d="M1050.649,276.405c0.346,0.041,0.692,0.083,1.137,0.136c-0.156,0.181-0.257,0.325-0.385,0.444
			c-4.187,3.87-8.375,7.738-12.573,11.598c-0.174,0.16-0.444,0.231-0.669,0.343c0-0.75,0-1.501,0-2.251
			c3.464-3.195,6.923-6.395,10.403-9.575c0.323-0.295,0.779-0.466,1.174-0.694C1050.04,276.405,1050.345,276.405,1050.649,276.405z"
			/>
		<path fill="#FFFFFF" d="M1049.735,276.405c-0.394,0.228-0.851,0.399-1.174,0.694c-3.48,3.18-6.939,6.381-10.403,9.575
			c0-1.172,0-2.345,0-3.517c0.045,0.243,0.09,0.486,0.112,0.6c2.611-2.404,5.243-4.828,7.859-7.237
			c-0.172-0.03-0.415-0.073-0.659-0.116C1046.892,276.405,1048.314,276.405,1049.735,276.405z"/>
		<path d="M1172.969,359.406c0.043-0.104,0.056-0.237,0.135-0.309c2.835-2.637,5.677-5.268,8.598-7.867
			c0.024,1.137,0.42,2.235-0.783,3.225c-1.883,1.55-3.583,3.291-5.36,4.951C1174.695,359.406,1173.832,359.406,1172.969,359.406z"/>
		<path d="M1045.47,276.405c0.244,0.043,0.487,0.086,0.659,0.116c-2.616,2.409-5.248,4.832-7.859,7.237
			c-0.021-0.114-0.066-0.357-0.112-0.6c0-0.328,0-0.657,0-0.985c0.193-0.36,0.304-0.791,0.591-1.067
			c1.326-1.277,2.714-2.499,4.05-3.767c0.539-0.512,1.069-0.976,1.909-0.933C1044.963,276.405,1045.216,276.405,1045.47,276.405z"/>
		<path fill="#FFFFFF" d="M1044.709,276.405c-0.84-0.043-1.37,0.421-1.909,0.933c-1.335,1.269-2.724,2.49-4.05,3.767
			c-0.287,0.276-0.399,0.708-0.591,1.067c0-1.36,0-2.72,0-4.08c0.046,0.247,0.093,0.493,0.139,0.742
			c0.843-0.76,1.66-1.496,2.553-2.3c-0.896,0-1.706,0-2.547,0c-0.052,0.357-0.098,0.676-0.145,0.995c0-0.375,0-0.75,0-1.125
			C1040.342,276.405,1042.525,276.405,1044.709,276.405z"/>
		<path d="M1178.453,359.406c0.057-0.12,0.084-0.268,0.177-0.354c1-0.934,2.01-1.858,3.177-2.932
			c-0.097,1.261,0.41,2.423-0.764,3.286C1180.179,359.406,1179.316,359.406,1178.453,359.406z"/>
		<path d="M1038.159,277.531c0.046-0.319,0.093-0.638,0.145-0.995c0.841,0,1.651,0,2.547,0c-0.893,0.804-1.709,1.54-2.553,2.3
			c-0.047-0.249-0.093-0.496-0.139-0.742C1038.159,277.906,1038.159,277.718,1038.159,277.531z"/>
		<path d="M1038.245,319.2c0-0.677-0.049-1.375,0.026-2.062c0.028-0.256,0.312-0.517,0.536-0.723
			c7.816-7.226,15.638-14.447,23.461-21.667c6.279-5.795,12.57-11.58,18.825-17.397c0.678-0.631,1.34-1.012,2.312-0.881
			c0.367,0.05,0.749,0.008,1.05,0.008C1069.069,290.703,1053.688,304.923,1038.245,319.2z"/>
	</g>
</g>
<style>
#g-totals-desktop-img rect, #g-totals-desktop-img circle, #g-totals-desktop-img path, #g-totals-desktop-img line, #g-totals-desktop-img polyline { vector-effect: non-scaling-stroke; }
</style>
</svg>

